<?xml version="1.0" encoding="iso-8859-1"?>
<!-- Generator: Adobe Illustrator 19.0.0, SVG Export Plug-In . SVG Version: 6.00 Build 0)  -->
<svg version="1.1" id="Capa_1" xmlns="http://www.w3.org/2000/svg" xmlns:xlink="http://www.w3.org/1999/xlink" x="0px" y="0px"
	 viewBox="0 0 480 480" style="enable-background:new 0 0 480 480;" xml:space="preserve">
<g>
	<path style="fill:#F88756;" d="M88,168c0,4.08-1.04,7.84-2.8,11.2c-4,7.6-12,12.8-21.2,12.8c-13.28,0-24-10.72-24-24
		c0-13.28,10.72-24,24-24S88,154.72,88,168z"/>
	<path style="fill:#F88756;" d="M472,80c0,13.28-10.72,24-24,24c-10.16,0-18.8-6.24-22.24-15.12C424.64,86.16,424,83.12,424,80
		c0-13.28,10.72-24,24-24S472,66.72,472,80z"/>
</g>
<path style="fill:#3F708D;" d="M480,480H8c-4.422,0-8-3.578-8-8V0h16v464h464V480z"/>
<g>
	<path style="fill:#F88756;" d="M224,240c0,13.28-10.72,24-24,24s-24-10.72-24-24c0-4.08,1.04-7.84,2.8-11.2
		c4-7.6,12-12.8,21.2-12.8c7.2,0,13.68,3.2,18,8.24C221.76,228.4,224,233.92,224,240z"/>
	<path style="fill:#F88756;" d="M352,128c0,13.28-10.72,24-24,24c-7.2,0-13.68-3.2-18-8.24c-3.76-4.16-6-9.68-6-15.76
		c0-13.28,10.72-24,24-24c10.16,0,18.8,6.24,22.24,15.12C351.36,121.84,352,124.88,352,128z"/>
</g>
<g>
	
		<rect x="202.878" y="175.971" transform="matrix(-0.7529 0.6582 -0.6582 -0.7529 583.8395 148.7263)" style="fill:#3F708D;" width="122.24" height="16"/>
	
		<rect x="347.359" y="95.989" transform="matrix(-0.9283 0.3719 -0.3719 -0.9283 786.9026 56.2099)" style="fill:#3F708D;" width="81.344" height="16"/>
	
		<rect x="124.003" y="151.038" transform="matrix(-0.4682 0.8836 -0.8836 -0.4682 374.0653 182.8717)" style="fill:#3F708D;" width="16" height="105.92"/>
	<rect x="40" y="328" style="fill:#3F708D;" width="32" height="112"/>
	<rect x="184" y="376" style="fill:#3F708D;" width="32" height="64"/>
	<rect x="312" y="264" style="fill:#3F708D;" width="32" height="176"/>
	<rect x="440" y="216" style="fill:#3F708D;" width="32" height="224"/>
	<rect x="40" y="24" style="fill:#3F708D;" width="48" height="32"/>
</g>
<g>
	<rect x="112" y="16" style="fill:#FFBE00;" width="80" height="16"/>
	<rect x="112" y="48" style="fill:#FFBE00;" width="48" height="16"/>
	<rect x="304" y="16" style="fill:#FFBE00;" width="80" height="16"/>
	<rect x="304" y="48" style="fill:#FFBE00;" width="48" height="16"/>
</g>
<circle style="fill:#F88756;" cx="256" cy="40" r="24"/>
<g>
</g>
<g>
</g>
<g>
</g>
<g>
</g>
<g>
</g>
<g>
</g>
<g>
</g>
<g>
</g>
<g>
</g>
<g>
</g>
<g>
</g>
<g>
</g>
<g>
</g>
<g>
</g>
<g>
</g>
</svg>
