<?xml version="1.0" encoding="iso-8859-1"?>
<!-- Generator: Adobe Illustrator 19.0.0, SVG Export Plug-In . SVG Version: 6.00 Build 0)  -->
<svg version="1.1" id="Capa_1" xmlns="http://www.w3.org/2000/svg" xmlns:xlink="http://www.w3.org/1999/xlink" x="0px" y="0px"
	 viewBox="0 0 464 464" style="enable-background:new 0 0 464 464;" xml:space="preserve">
<rect x="32" y="248" style="fill:#3F708D;" width="400" height="184"/>
<polygon style="fill:#FFBE00;" points="432,200 394.316,243.508 405.223,300.03 350.791,318.797 332.025,373.226 275.506,362.316 
	232,400 188.492,362.316 131.97,373.223 113.203,318.791 58.774,300.025 69.684,243.506 32,200 69.684,156.492 58.777,99.97 
	113.209,81.203 131.975,26.774 188.494,37.684 232,0 275.508,37.684 332.03,26.777 350.797,81.209 405.226,99.975 394.316,156.494 
	"/>
<path style="fill:#E15D2D;" d="M320,280L320,280c8.837,0,16-7.163,16-16V136c0-8.837-7.163-16-16-16h0c-8.837,0-16,7.163-16,16v128
	C304,272.837,311.163,280,320,280z"/>
<polygon style="fill:#FFFFFF;" points="304,128 256,160 256,240 304,272 "/>
<rect x="136" y="160" style="fill:#3F708D;" width="120" height="80"/>
<rect x="336" y="176" style="fill:#FFFFFF;" width="24" height="48"/>
<polygon style="fill:#3F708D;" points="232,240 231.279,288 199.279,288 200,240 "/>
<path style="fill:#E15D2D;" d="M136,160L136,160c-32.962,16.481-32.962,63.519,0,80l0,0V160z"/>
<path style="fill:#F88756;" d="M448,464H16c-8.837,0-16-7.163-16-16v-16h464v16C464,456.837,456.837,464,448,464z"/>
<g>
	<rect x="344" y="392" style="fill:#FFFFFF;" width="16" height="16"/>
	<path style="fill:#FFFFFF;" d="M400,408h-24v-16h16v-16h16v24C408,404.422,404.422,408,400,408z"/>
	<rect x="224" y="48" style="fill:#FFFFFF;" width="16" height="48"/>
	<rect x="224" y="112" style="fill:#FFFFFF;" width="16" height="16"/>
</g>
<g>
	<rect x="389.656" y="194.32" style="fill:#E15D2D;" width="32" height="16"/>
	
		<rect x="384.713" y="158.319" transform="matrix(-0.7071 0.7071 -0.7071 -0.7071 803.3249 -0.1099)" style="fill:#E15D2D;" width="33.944" height="16"/>
	
		<rect x="393.679" y="221.374" transform="matrix(-0.7071 0.7071 -0.7071 -0.7071 854.246 122.8523)" style="fill:#E15D2D;" width="16" height="33.944"/>
</g>
<rect x="88" y="352" style="fill:#FE946F;" width="176" height="40"/>
<polygon style="fill:#FFB398;" points="264,288 199.279,288 200,272 160,272 128,304 88,304 88,352 264,352 "/>
<g>
</g>
<g>
</g>
<g>
</g>
<g>
</g>
<g>
</g>
<g>
</g>
<g>
</g>
<g>
</g>
<g>
</g>
<g>
</g>
<g>
</g>
<g>
</g>
<g>
</g>
<g>
</g>
<g>
</g>
</svg>
