<?xml version="1.0" encoding="iso-8859-1"?>
<!-- Generator: Adobe Illustrator 19.0.0, SVG Export Plug-In . SVG Version: 6.00 Build 0)  -->
<svg version="1.1" id="Capa_1" xmlns="http://www.w3.org/2000/svg" xmlns:xlink="http://www.w3.org/1999/xlink" x="0px" y="0px"
	 viewBox="0 0 472 472" style="enable-background:new 0 0 472 472;" xml:space="preserve">
<polygon style="fill:#FFBE00;" points="88,204 88,356 360,356 432,204 "/>
<g>
	<path style="fill:#3F708D;" d="M360,364H88c-4.418,0-8-3.578-8-8V204c0-4.422,3.582-8,8-8h40v16H96v136h258.938l64.422-136H360v-16
		h72c2.742,0,5.293,1.406,6.762,3.719c1.465,2.32,1.641,5.227,0.469,7.703l-72,152C365.906,362.219,363.09,364,360,364z"/>
	<path style="fill:#3F708D;" d="M96,388H80V140H32v-16h56c4.418,0,8,3.578,8,8V388z"/>
</g>
<circle style="fill:#E15D2D;" cx="16" cy="132" r="16"/>
<g>
	<circle style="fill:#FFBE00;" cx="40" cy="444" r="24"/>
	<circle style="fill:#FFBE00;" cx="296" cy="444" r="24"/>
</g>
<path style="fill:#3F708D;" d="M327.352,447.148l-14.703-6.297L331.867,396H93.273l-21.922,51.148l-14.703-6.297l24-56
	C81.906,381.906,84.801,380,88,380h256c2.688,0,5.199,1.352,6.68,3.594c1.48,2.25,1.734,5.086,0.672,7.555L327.352,447.148z"/>
<g>
	<rect x="24" y="244" style="fill:#FFBE00;" width="40" height="16"/>
	<rect x="48" y="284" style="fill:#FFBE00;" width="16" height="16"/>
	<rect y="284" style="fill:#FFBE00;" width="32" height="16"/>
	<rect x="32" y="324" style="fill:#FFBE00;" width="32" height="16"/>
</g>
<path style="fill:#E15D2D;" d="M376,164L376,164c8.837,0,16-7.163,16-16V20c0-8.837-7.163-16-16-16h0c-8.837,0-16,7.163-16,16v128
	C360,156.837,367.163,164,376,164z"/>
<g>
	<rect x="440" y="76" style="fill:#FFBE00;" width="32" height="16"/>
	
		<rect x="435.038" y="23.993" transform="matrix(-0.7071 0.7071 -0.7071 -0.7071 794.2527 -265.0045)" style="fill:#FFBE00;" width="33.944" height="16"/>
	
		<rect x="444.008" y="119.028" transform="matrix(-0.7071 0.7071 -0.7071 -0.7071 867.7928 -87.4523)" style="fill:#FFBE00;" width="16" height="33.944"/>
</g>
<polygon style="fill:#E3DCD9;" points="360,12 312,44 312,124 360,156 "/>
<rect x="200.72" y="44" style="fill:#E15D2D;" width="111.28" height="80"/>
<rect x="392" y="60" style="fill:#E3DCD9;" width="24" height="48"/>
<rect x="248" y="124" style="fill:#E15D2D;" width="32" height="40"/>
<path style="fill:#E3DCD9;" d="M200.721,44L200.721,44c-32.962,16.481-32.962,63.519,0,80l0,0V44z"/>
<path style="fill:#FFB398;" d="M336,204c0-8.837-7.164-16-16-16h-24v-8c0-8.837-7.164-16-16-16h-48l-40,40h-40v40h184V204z"/>
<path style="fill:#FE946F;" d="M152,244v48h168c8.836,0,16-7.164,16-16v-32H152z"/>
<g>
</g>
<g>
</g>
<g>
</g>
<g>
</g>
<g>
</g>
<g>
</g>
<g>
</g>
<g>
</g>
<g>
</g>
<g>
</g>
<g>
</g>
<g>
</g>
<g>
</g>
<g>
</g>
<g>
</g>
</svg>
