<?xml version="1.0" encoding="iso-8859-1"?>
<!-- Generator: Adobe Illustrator 19.0.0, SVG Export Plug-In . SVG Version: 6.00 Build 0)  -->
<svg version="1.1" id="Capa_1" xmlns="http://www.w3.org/2000/svg" xmlns:xlink="http://www.w3.org/1999/xlink" x="0px" y="0px"
	 viewBox="0 0 472 472" style="enable-background:new 0 0 472 472;" xml:space="preserve">
<rect x="60" y="216" style="fill:#3F708D;" width="352" height="192"/>
<rect x="84" y="240" style="fill:#2E5166;" width="304" height="144"/>
<polygon style="fill:#E0A700;" points="260,192 260,240 236,240 236,440 260,440 260,296 292,264 292,224 "/>
<polygon style="fill:#FFBE00;" points="212,240 212,192 180,224 180,264 212,296 212,440 236,440 236,240 "/>
<path style="fill:#E3DCD9;" d="M4,440v16c0,8.836,7.164,16,16,16h216v-32H4z"/>
<path style="fill:#B9ACA9;" d="M236,440v32h216c8.836,0,16-7.164,16-16v-16H236z"/>
<path style="fill:#E7343A;" d="M230.344,2.344l-24,24l11.313,11.313L228,27.313V88h16V27.313l10.344,10.344l11.313-11.313l-24-24
	C238.531-0.781,233.469-0.781,230.344,2.344z"/>
<path style="fill:#2F9BD7;" d="M405.703,70.293h-33.938v16h14.627l-42.908,42.914l11.313,11.313l42.906-42.912v14.627h16V78.293
	C413.703,73.875,410.125,70.293,405.703,70.293z"/>
<path style="fill:#FFBE00;" d="M100.234,86.293v-16H66.297c-4.422,0-8,3.582-8,8v33.941h16V97.607l42.906,42.912l11.313-11.313
	L85.607,86.293H100.234z"/>
<path style="fill:#F88756;" d="M225.44,112l-6.72,19.28c-8.08,1.84-10.4,2.4-18.48,4.24l-14.4-14.4c-9.52,4.56-9.44,4.56-19.04,9.2
	l2.32,20.16c-6.48,5.12-8.32,6.64-14.8,11.84l-19.28-6.8c-6.64,8.32-6.56,8.24-13.2,16.56l10.88,17.28
	c-3.6,7.44-4.64,9.6-8.24,17.12l-20.16,2.16c-2.4,10.4-2.4,10.32-4.72,20.64l17.2,10.8v18.96l-17.2,10.8
	c2.32,10.32,2.32,10.24,4.72,20.64l20.16,2.24c3.6,7.44,4.64,9.6,8.24,17.04l-10.88,17.28c6.64,8.32,6.56,8.24,13.2,16.56l19.28-6.8
	c6.48,5.2,8.32,6.72,14.8,11.84l-2.32,20.24c7.04,3.36,8.88,4.24,13.2,6.32V320v-1.36c-19.52-16.4-32-41.2-32-69.04
	c0-49.52,39.36-89.6,88-89.6v-48C233.38,112,230.74,112,225.44,112z"/>
<path style="fill:#E15D2D;" d="M355.2,240.08l17.2-10.8c-2.32-10.32-2.32-10.24-4.72-20.64l-20.16-2.16
	c-3.6-7.44-4.64-9.68-8.24-17.12l10.88-17.28c-6.64-8.32-6.56-8.24-13.2-16.56l-19.28,6.8c-6.48-5.2-8.32-6.72-14.8-11.84
	l2.32-20.16c-9.6-4.64-9.52-4.64-19.04-9.2l-14.4,14.4c-8-1.84-10.4-2.4-18.48-4.24L246.56,112c-5.3,0-7.92,0-10.56,0v48
	c48.64,0,88,40.08,88,89.6c0,27.84-12.48,52.64-32,69.04V320v55.2c4.32-2.08,6.16-2.96,13.2-6.32l-2.32-20.24
	c6.48-5.12,8.32-6.64,14.8-11.84l19.28,6.8c6.64-8.32,6.56-8.24,13.2-16.56l-10.88-17.28c3.6-7.44,4.64-9.6,8.24-17.04l20.16-2.24
	c2.4-10.4,2.4-10.32,4.72-20.64l-17.2-10.8V240.08z"/>
<g>
</g>
<g>
</g>
<g>
</g>
<g>
</g>
<g>
</g>
<g>
</g>
<g>
</g>
<g>
</g>
<g>
</g>
<g>
</g>
<g>
</g>
<g>
</g>
<g>
</g>
<g>
</g>
<g>
</g>
</svg>
