<?xml version="1.0" encoding="iso-8859-1"?>
<!-- Generator: Adobe Illustrator 19.0.0, SVG Export Plug-In . SVG Version: 6.00 Build 0)  -->
<svg version="1.1" id="Capa_1" xmlns="http://www.w3.org/2000/svg" xmlns:xlink="http://www.w3.org/1999/xlink" x="0px" y="0px"
	 viewBox="0 0 481.125 481.125" style="enable-background:new 0 0 481.125 481.125;" xml:space="preserve">
<rect x="200.526" y="-56.256" transform="matrix(-0.2559 0.9667 -0.9667 -0.2559 343.4991 -95.5551)" style="fill:#FFBE00;" width="16" height="281.361"/>
<path style="fill:#2E5166;" d="M383.699,153.296c0.526,2.302,0.863,4.675,0.863,7.137v192c0,17.673-14.327,32-32,32h-272
	c-2.462,0-4.834-0.337-7.137-0.863c3.252,14.226,15.925,24.863,31.137,24.863h272c17.673,0,32-14.327,32-32v-192
	C408.563,169.221,397.925,156.548,383.699,153.296z"/>
<path style="fill:#3F708D;" d="M352.563,384.433c17.673,0,32-14.327,32-32v-192c0-2.462-0.337-4.834-0.863-7.137
	c-2.302-0.526-4.675-0.863-7.137-0.863h-272c-17.673,0-32,14.327-32,32v192c0,2.462,0.337,4.834,0.863,7.137
	c2.302,0.526,4.675,0.863,7.137,0.863H352.563z"/>
<path style="fill:#E0A700;" d="M276.885,222.369c2.339,8.298,3.677,17.017,3.677,26.063c0,53.019-42.98,96-96,96
	c-31.169,0-58.786-14.92-76.323-37.937c11.369,40.336,48.35,69.937,92.323,69.937c53.02,0,96-42.981,96-96
	C296.563,258.582,289.179,238.504,276.885,222.369z"/>
<path style="fill:#FFBE00;" d="M184.563,344.433c53.02,0,96-42.981,96-96c0-9.046-1.338-17.765-3.677-26.063
	c-17.537-23.016-45.153-37.937-76.323-37.937c-53.02,0-96,42.98-96,96c0,9.046,1.338,17.765,3.677,26.063
	C125.777,329.512,153.393,344.433,184.563,344.433z"/>
<rect x="344.563" y="104.433" style="fill:#E3DCD9;" width="32" height="48"/>
<g>
	<path style="fill:#E15D2D;" d="M192.109,384.097c-5.719-0.461-11.422-1.398-16.945-2.789l3.906-15.516
		c4.664,1.172,9.484,1.961,14.32,2.352L192.109,384.097z M209.242,384.081l-1.328-15.938c4.828-0.406,9.648-1.211,14.336-2.398
		l3.922,15.516C220.641,382.659,214.938,383.612,209.242,384.081z M158.898,375.745c-5.258-2.297-10.352-5.047-15.125-8.172
		l8.766-13.391c4.031,2.641,8.328,4.961,12.766,6.906L158.898,375.745z M242.43,375.659l-6.469-14.641
		c4.445-1.961,8.742-4.289,12.773-6.93l8.766,13.375C252.742,370.589,247.672,373.347,242.43,375.659z M130.234,357.042
		c-4.234-3.891-8.148-8.133-11.641-12.609l12.609-9.844c2.953,3.781,6.273,7.375,9.859,10.672L130.234,357.042z M271.031,356.925
		l-10.844-11.766c3.578-3.297,6.883-6.891,9.844-10.695l12.625,9.828C279.164,348.784,275.25,353.034,271.031,356.925z
		 M109.164,330.097c-2.75-5.039-5.078-10.328-6.938-15.711l15.125-5.219c1.57,4.547,3.539,9.016,5.859,13.273L109.164,330.097z
		 M292.055,329.917l-14.063-7.625c2.313-4.273,4.281-8.742,5.836-13.297l15.141,5.188
		C297.117,319.573,294.797,324.87,292.055,329.917z M98,297.745c-0.938-5.609-1.422-11.359-1.438-17.094l16-0.047
		c0.016,4.867,0.422,9.75,1.219,14.5L98,297.745z M303.156,297.526l-15.781-2.609c0.789-4.766,1.188-9.641,1.188-14.484
		l13.617-0.336l2.375,0.023C304.563,286.151,304.094,291.901,303.156,297.526z M113.727,266.12l-15.797-2.563
		c0.922-5.633,2.32-11.234,4.172-16.664l15.141,5.156C115.68,256.636,114.5,261.37,113.727,266.12z M287.313,265.581
		c-0.797-4.742-2.008-9.469-3.602-14.055l15.109-5.25c1.883,5.422,3.32,11.023,4.273,16.648L287.313,265.581z M123.047,238.737
		l-14.078-7.609c2.695-4.984,5.844-9.82,9.352-14.375l12.672,9.781C128,230.401,125.328,234.503,123.047,238.737z M277.82,238.261
		c-2.32-4.242-5.016-8.32-8-12.125l12.578-9.875c3.531,4.492,6.711,9.305,9.453,14.313L277.82,238.261z M140.805,215.847
		l-10.875-11.75c4.211-3.891,8.758-7.453,13.516-10.578l8.797,13.359C148.211,209.534,144.359,212.55,140.805,215.847z
		 M259.93,215.479c-3.57-3.266-7.438-6.258-11.492-8.898l8.719-13.406c4.789,3.109,9.352,6.641,13.57,10.492L259.93,215.479z
		 M164.984,199.917l-6.484-14.625c5.234-2.32,10.695-4.211,16.234-5.625l3.953,15.5
		C174.016,196.362,169.406,197.956,164.984,199.917z M235.641,199.698c-4.438-1.93-9.063-3.5-13.75-4.664l3.859-15.531
		c5.547,1.383,11.023,3.242,16.281,5.523L235.641,199.698z M193,192.753l-1.328-15.938c5.664-0.484,11.508-0.5,17.156-0.055
		l-1.281,15.953C202.734,192.323,197.813,192.354,193,192.753z"/>
	<path style="fill:#E15D2D;" d="M200.805,352.425c-6.125,0-11.891-0.703-17.461-2.078l3.828-15.531
		c4.352,1.07,8.859,1.617,13.391,1.617l0.398,12.852l-0.063,3.141C200.867,352.425,200.836,352.425,200.805,352.425z
		 M218.305,350.222l-3.953-15.5c4.359-1.109,8.586-2.758,12.563-4.891l7.563,14.109C229.352,346.683,223.914,348.8,218.305,350.222z
		 M167.141,344.19c-5.133-2.695-9.93-6.008-14.266-9.852l10.609-11.969c3.375,2.984,7.102,5.563,11.094,7.664L167.141,344.19z
		 M248.664,333.972l-10.719-11.875c3.375-3.047,6.367-6.469,8.898-10.18l13.219,9.031
		C256.813,325.698,252.977,330.089,248.664,333.972z M141.375,321.386c-3.305-4.773-6.031-9.922-8.094-15.313l14.953-5.719
		c1.594,4.195,3.719,8.203,6.297,11.922L141.375,321.386z M268.055,305.558l-15-5.594c1.578-4.227,2.633-8.633,3.148-13.102
		l15.891,1.813C271.438,294.433,270.078,300.112,268.055,305.558z M129.102,289.237c-0.344-2.883-0.531-5.805-0.539-8.781
		c0-2.906,0.164-5.758,0.5-8.555l15.891,1.906c-0.258,2.172-0.391,4.383-0.391,6.625c0.008,2.313,0.148,4.609,0.43,6.867
		L129.102,289.237z M256.117,273.37c-0.57-4.484-1.68-8.883-3.297-13.07l14.922-5.766c2.086,5.391,3.508,11.047,4.25,16.805
		L256.117,273.37z M148.148,260.714l-14.969-5.656c2.039-5.398,4.75-10.57,8.039-15.359l13.18,9.078
		C151.836,252.503,149.734,256.519,148.148,260.714z M246.484,248.417c-2.586-3.695-5.617-7.078-9.008-10.063l10.563-12.016
		c4.352,3.828,8.242,8.172,11.555,12.906L246.484,248.417z M163.336,238.644l-10.656-11.938c4.32-3.852,9.102-7.18,14.211-9.898
		l7.516,14.125C170.422,233.05,166.695,235.644,163.336,238.644z M226.344,230.737c-4-2.094-8.242-3.688-12.609-4.742l3.766-15.547
		c5.625,1.359,11.086,3.414,16.25,6.102L226.344,230.737z M186.977,226.097l-3.891-15.516c5.57-1.398,11.352-2.125,17.188-2.156
		l0.094,16C195.813,224.448,191.305,225.019,186.977,226.097z"/>
	<path style="fill:#E15D2D;" d="M200.828,320.425c-7.313,0-14.195-1.852-20.234-5.336l8-13.859
		c3.625,2.094,7.766,3.203,11.969,3.203l0.328,13.82l-0.016,2.172C200.859,320.425,200.844,320.425,200.828,320.425z
		 M220.93,314.847l-8.156-13.766c3.617-2.148,6.625-5.211,8.695-8.867l13.922,7.875C231.953,306.175,226.953,311.276,220.93,314.847
		z M165.969,300.503c-3.523-6.047-5.391-12.953-5.398-19.969l16-0.016c0.008,4.195,1.117,8.32,3.227,11.938L165.969,300.503z
		 M224.563,280.222c-0.039-4.211-1.18-8.336-3.305-11.938l13.781-8.125c3.547,6.016,5.453,12.898,5.523,19.906L224.563,280.222z
		 M179.727,268.534l-13.875-7.969c3.477-6.055,8.5-11.125,14.539-14.664l8.094,13.797
		C184.844,261.831,181.82,264.886,179.727,268.534z M212.406,259.565c-3.594-2.047-7.688-3.133-11.844-3.133l-0.188-16h0.188
		c6.922,0,13.758,1.805,19.766,5.227L212.406,259.565z"/>
</g>
<g>
	<circle style="fill:#E3DCD9;" cx="352.563" cy="352.433" r="24"/>
	<circle style="fill:#E3DCD9;" cx="352.563" cy="208.433" r="24"/>
</g>
<g>
	<rect x="360.563" y="256.433" style="fill:#FFBE00;" width="16" height="48"/>
	<rect x="328.563" y="256.433" style="fill:#FFBE00;" width="16" height="48"/>
</g>
<g>
	<rect x="192.563" y="272.433" style="fill:#E15D2D;" width="16" height="16"/>
	<rect x="112.563" y="408.433" style="fill:#E15D2D;" width="32" height="32"/>
	<rect x="336.563" y="408.433" style="fill:#E15D2D;" width="32" height="32"/>
</g>
<g>
	<path style="fill:#FFBE00;" d="M26.375,329.714C9.859,318.698,0,300.276,0,280.433s9.859-38.266,26.375-49.281l8.875,13.313
		C23.195,252.503,16,265.948,16,280.433s7.195,27.93,19.25,35.969L26.375,329.714z"/>
	<path style="fill:#FFBE00;" d="M44.125,303.089C36.531,298.026,32,289.558,32,280.433s4.531-17.594,12.125-22.656L53,271.089
		c-3.18,2.117-5,5.523-5,9.344s1.82,7.227,5,9.344L44.125,303.089z"/>
	<path style="fill:#FFBE00;" d="M454.75,329.714l-8.875-13.313c12.055-8.039,19.25-21.484,19.25-35.969s-7.195-27.93-19.25-35.969
		l8.875-13.313c16.516,11.016,26.375,29.438,26.375,49.281S471.266,318.698,454.75,329.714z"/>
	<path style="fill:#FFBE00;" d="M437,303.089l-8.875-13.313c3.18-2.117,5-5.523,5-9.344s-1.82-7.227-5-9.344L437,257.776
		c7.594,5.063,12.125,13.531,12.125,22.656S444.594,298.026,437,303.089z"/>
</g>
<g>
	<circle style="fill:#FFFFFF;" cx="348.563" cy="348.433" r="12"/>
	<circle style="fill:#FFFFFF;" cx="348.563" cy="204.433" r="12"/>
</g>
<g>
</g>
<g>
</g>
<g>
</g>
<g>
</g>
<g>
</g>
<g>
</g>
<g>
</g>
<g>
</g>
<g>
</g>
<g>
</g>
<g>
</g>
<g>
</g>
<g>
</g>
<g>
</g>
<g>
</g>
</svg>
