<?xml version="1.0" encoding="iso-8859-1"?>
<!-- Generator: Adobe Illustrator 19.0.0, SVG Export Plug-In . SVG Version: 6.00 Build 0)  -->
<svg version="1.1" id="Capa_1" xmlns="http://www.w3.org/2000/svg" xmlns:xlink="http://www.w3.org/1999/xlink" x="0px" y="0px"
	 viewBox="0 0 480 480" style="enable-background:new 0 0 480 480;" xml:space="preserve">
<rect x="120" y="244" style="fill:#3F708D;" width="240" height="168"/>
<circle style="fill:#2F9BD7;" cx="240" cy="108" r="96"/>
<g>
	<path style="fill:#3F708D;" d="M240,212c57.344,0,104-46.652,104-104S297.344,4,240,4S136,50.652,136,108S182.656,212,240,212z
		 M200.573,167.5c8.171-1.667,18.492-2.975,31.427-3.365v31.46c-5.825-0.528-10.625-1.349-16.07-2.957l-1.461-1.345
		C208.967,183.728,204.404,175.734,200.573,167.5z M188.272,179.035c-2.434-1.777-4.764-3.674-6.999-5.685
		c1.089-0.484,2.351-0.987,3.705-1.498C186.048,174.256,187.075,176.673,188.272,179.035z M248,116h44.396
		c-0.7,12.316-2.975,24.554-6.907,36.407c-9.696-2.171-22.004-3.827-37.49-4.264V116z M248,100V67.856
		c15.486-0.437,27.794-2.092,37.49-4.264c3.932,11.854,6.207,24.091,6.907,36.407H248z M232,100h-44.396
		c0.7-12.316,2.975-24.554,6.907-36.407c9.696,2.171,22.004,3.827,37.49,4.264V100z M232,116v32.144
		c-15.486,0.437-27.794,2.092-37.49,4.264c-3.932-11.854-6.207-24.091-6.907-36.407H232z M248,164.135
		c12.938,0.39,23.261,1.697,31.429,3.361c-3.832,8.236-8.395,16.231-13.897,23.797c0,0-0.91,1.192-1.817,1.445
		c-5.069,1.413-10.325,2.368-15.715,2.857V164.135z M295.027,171.84c1.359,0.51,2.624,1.015,3.713,1.498
		c-2.239,2.016-4.574,3.916-7.011,5.696C292.928,176.669,293.956,174.248,295.027,171.84z M300.871,156.91
		c4.368-13.321,6.828-27.078,7.533-40.91h19.19c-1.527,16.845-7.856,32.285-17.554,45.056
		C307.654,159.75,304.609,158.327,300.871,156.91z M308.404,100c-0.706-13.832-3.165-27.588-7.533-40.91
		c3.738-1.417,6.782-2.84,9.169-4.146c9.698,12.771,16.027,28.211,17.554,45.056H308.404z M295.022,44.148
		c-1.07-2.404-2.096-4.821-3.293-7.182c2.433,1.777,4.763,3.674,6.998,5.685C297.638,43.134,296.376,43.638,295.022,44.148z
		 M279.427,48.5c-8.171,1.667-18.492,2.975-31.427,3.365v-31.46c5.758,0.522,11.363,1.576,16.752,3.153l0.78,1.149
		C271.033,32.272,275.596,40.266,279.427,48.5z M232,51.865c-12.935-0.39-23.255-1.697-31.427-3.365
		c3.831-8.235,8.394-16.229,13.896-23.793c0,0,11.178-3.726,17.531-4.302V51.865z M184.978,44.148
		c-1.354-0.51-2.616-1.014-3.705-1.498c2.235-2.011,4.565-3.908,6.999-5.685C187.075,39.327,186.048,41.744,184.978,44.148z
		 M179.128,59.09c-4.368,13.321-6.827,27.078-7.533,40.91h-19.19c1.527-16.845,7.856-32.285,17.554-45.056
		C172.346,56.25,175.39,57.673,179.128,59.09z M171.596,116c0.706,13.832,3.166,27.588,7.533,40.91
		c-3.738,1.417-6.783,2.84-9.169,4.146c-9.698-12.771-16.027-28.211-17.554-45.056H171.596z"/>
	<path style="fill:#3F708D;" d="M94.398,144.801l-12.797-9.602L102,108L81.602,80.801l12.797-9.602l24,32
		c2.133,2.844,2.133,6.758,0,9.602L94.398,144.801z"/>
	<rect x="80" y="100" style="fill:#3F708D;" width="32" height="16"/>
	<rect x="48" y="100" style="fill:#3F708D;" width="16" height="16"/>
	<path style="fill:#3F708D;" d="M16,132H0v-24c0-4.418,3.578-8,8-8h24v16H16V132z"/>
	<rect y="148" style="fill:#3F708D;" width="16" height="16"/>
	<rect y="180" style="fill:#3F708D;" width="16" height="16"/>
	<rect y="212" style="fill:#3F708D;" width="16" height="16"/>
	<rect y="244" style="fill:#3F708D;" width="16" height="16"/>
	<rect y="276" style="fill:#3F708D;" width="16" height="16"/>
	<path style="fill:#3F708D;" d="M32,340H8c-4.422,0-8-3.582-8-8v-24h16v16h16V340z"/>
	<rect x="48" y="324" style="fill:#3F708D;" width="16" height="16"/>
	<rect x="80" y="324" style="fill:#3F708D;" width="16" height="16"/>
</g>
<g>
	<path style="fill:#E15D2D;" d="M398.398,80.801l-12.797-9.602l-24,32c-2.133,2.844-2.133,6.758,0,9.602l24,32l12.797-9.602L384,116
		h16v-16h-16L398.398,80.801z"/>
	<rect x="416" y="100" style="fill:#E15D2D;" width="16" height="16"/>
	<path style="fill:#E15D2D;" d="M472,100h-24v16h16v16h16v-24C480,103.582,476.422,100,472,100z"/>
	<rect x="464" y="148" style="fill:#E15D2D;" width="16" height="16"/>
	<rect x="464" y="180" style="fill:#E15D2D;" width="16" height="16"/>
	<rect x="464" y="212" style="fill:#E15D2D;" width="16" height="16"/>
	<rect x="464" y="244" style="fill:#E15D2D;" width="16" height="16"/>
	<rect x="464" y="276" style="fill:#E15D2D;" width="16" height="16"/>
	<path style="fill:#E15D2D;" d="M464,324h-16v16h24c4.422,0,8-3.582,8-8v-24h-16V324z"/>
	<rect x="416" y="324" style="fill:#E15D2D;" width="16" height="16"/>
	<rect x="384" y="324" style="fill:#E15D2D;" width="16" height="16"/>
</g>
<polygon style="fill:#E3DCD9;" points="272,444 208,444 176,444 152,476 328,476 304,444 "/>
<rect x="208" y="412" style="fill:#B9ACA9;" width="64" height="48"/>
<rect x="144" y="268" style="fill:#FA8156;" width="192" height="120"/>
<g>
</g>
<g>
</g>
<g>
</g>
<g>
</g>
<g>
</g>
<g>
</g>
<g>
</g>
<g>
</g>
<g>
</g>
<g>
</g>
<g>
</g>
<g>
</g>
<g>
</g>
<g>
</g>
<g>
</g>
</svg>
