<?xml version="1.0" encoding="iso-8859-1"?>
<!-- Generator: Adobe Illustrator 19.0.0, SVG Export Plug-In . SVG Version: 6.00 Build 0)  -->
<svg version="1.1" id="Capa_1" xmlns="http://www.w3.org/2000/svg" xmlns:xlink="http://www.w3.org/1999/xlink" x="0px" y="0px"
	 viewBox="0 0 480 480" style="enable-background:new 0 0 480 480;" xml:space="preserve">
<path style="fill:#2E5166;" d="M232,340H8v128h192c17.673,0,32-14.327,32-32V340z"/>
<path style="fill:#E3DCD9;" d="M8,68v56c0-17.673,14.327-32,32-32h192V36H40C22.327,36,8,50.327,8,68z"/>
<g>
	<path style="fill:#3F708D;" d="M8,124v248c0-17.673,14.327-32,32-32h192V92H40C22.327,92,8,106.327,8,124z"/>
	<path style="fill:#3F708D;" d="M40,4C22.327,4,8,18.327,8,36v32c0-17.673,14.327-32,32-32h192V4H40z"/>
</g>
<g>
	<path style="fill:#E3DCD9;" d="M40,340c-17.673,0-32,14.327-32,32v32c0-17.673,14.327-32,32-32h192v-32H40z"/>
	<rect x="136" y="124" style="fill:#E3DCD9;" width="64" height="64"/>
	<rect x="40" y="220" style="fill:#E3DCD9;" width="96" height="64"/>
</g>
<g>
	<rect x="32" y="116" style="fill:#2E5166;" width="80" height="16"/>
	<rect x="32" y="148" style="fill:#2E5166;" width="80" height="16"/>
	<rect x="32" y="180" style="fill:#2E5166;" width="80" height="16"/>
	<rect x="160" y="212" style="fill:#2E5166;" width="48" height="16"/>
	<rect x="160" y="244" style="fill:#2E5166;" width="48" height="16"/>
	<rect x="160" y="276" style="fill:#2E5166;" width="48" height="16"/>
</g>
<path style="fill:#E15D2D;" d="M472,444h-40v-16h32v-96h-32v-16h40c4.422,0,8,3.582,8,8v112C480,440.418,476.422,444,472,444z"/>
<path style="fill:#FFBE00;" d="M309.656,233.656l-11.313-11.313L316.688,204l-18.344-18.344c-3.125-3.125-3.125-8.188,0-11.313
	l24-24l11.313,11.313L315.313,180l18.344,18.344c3.125,3.125,3.125,8.188,0,11.313L309.656,233.656z"/>
<path style="fill:#E7343A;" d="M357.656,233.656l-11.313-11.313L364.688,204l-18.344-18.344c-3.125-3.125-3.125-8.188,0-11.313
	l24-24l11.313,11.313L363.313,180l18.344,18.344c3.125,3.125,3.125,8.188,0,11.313L357.656,233.656z"/>
<path style="fill:#2F9BD7;" d="M405.656,233.656l-11.313-11.313L412.688,204l-18.344-18.344c-3.125-3.125-3.125-8.188,0-11.313
	l24-24l11.313,11.313L411.313,180l18.344,18.344c3.125,3.125,3.125,8.188,0,11.313L405.656,233.656z"/>
<g>
	<circle style="fill:#CFF2F8;" cx="312" cy="68" r="40"/>
	<circle style="fill:#CFF2F8;" cx="424" cy="68" r="40"/>
</g>
<g>
	<rect x="352" y="60" style="fill:#3F708D;" width="32" height="16"/>
	<rect x="256" y="60" style="fill:#3F708D;" width="16" height="16"/>
	<rect x="464" y="60" style="fill:#3F708D;" width="16" height="16"/>
	<path style="fill:#3F708D;" d="M200,476H8v-16h192c13.234,0,24-10.766,24-24s-10.766-24-24-24H56v-16h144c22.055,0,40,17.945,40,40
		S222.055,476,200,476z"/>
	<path style="fill:#3F708D;" d="M40,364h192v16H40c-13.234,0-24,10.766-24,24s10.766,24,24,24h144v16H40c-22.055,0-40-17.945-40-40
		S17.945,364,40,364z"/>
</g>
<path style="fill:#F88756;" d="M384,380v-88h-96v136h48C362.51,428,384,406.51,384,380z"/>
<path style="fill:#E15D2D;" d="M384,292v88c0,26.51-21.49,48-48,48h-48v40h144V292H384z"/>
<g>
</g>
<g>
</g>
<g>
</g>
<g>
</g>
<g>
</g>
<g>
</g>
<g>
</g>
<g>
</g>
<g>
</g>
<g>
</g>
<g>
</g>
<g>
</g>
<g>
</g>
<g>
</g>
<g>
</g>
</svg>
