<?xml version="1.0" encoding="iso-8859-1"?>
<!-- Generator: Adobe Illustrator 19.0.0, SVG Export Plug-In . SVG Version: 6.00 Build 0)  -->
<svg version="1.1" id="Capa_1" xmlns="http://www.w3.org/2000/svg" xmlns:xlink="http://www.w3.org/1999/xlink" x="0px" y="0px"
	 viewBox="0 0 472 472" style="enable-background:new 0 0 472 472;" xml:space="preserve">
<path style="fill:#FFBE00;" d="M264,52h168v192h-56c0,8.8,3.6,16.8,9.36,22.64C391.2,272.4,399.2,276,408,276l24,24v120H264v-32h24
	c4.4,0,8.4-1.76,11.28-4.72c2.96-2.88,4.72-6.88,4.72-11.28c0-8.8-7.2-16-16-16c4.4,0,8.4-1.76,11.28-4.72
	c2.96-2.88,4.72-6.88,4.72-11.28c0-8.8-7.2-16-16-16c4.4,0,8.4-1.76,11.28-4.72c2.96-2.88,4.72-6.88,4.72-11.28c0-8.8-7.2-16-16-16
	c4.4,0,8.4-1.76,11.28-4.72c2.96-2.88,4.72-6.88,4.72-11.28c0-8.8-7.2-16-16-16h-24V52z"/>
<path style="fill:#E0A700;" d="M320,324c0-8.8-7.2-16-16-16c4.4,0,8.4-1.76,11.28-4.72c2.96-2.88,4.72-6.88,4.72-11.28
	c0-8.8-7.2-16-16-16h-32c-4.4,0-8.4,1.76-11.28,4.72C257.76,283.6,256,287.6,256,292c0,8.8,7.2,16,16,16c-4.4,0-8.4,1.76-11.28,4.72
	C257.76,315.6,256,319.6,256,324c0,8.8,7.2,16,16,16c-4.4,0-8.4,1.76-11.28,4.72C257.76,347.6,256,351.6,256,356c0,8.8,7.2,16,16,16
	c-4.4,0-8.4,1.76-11.28,4.72C257.76,379.6,256,383.6,256,388c0,8.8,7.2,16,16,16h32c4.4,0,8.4-1.76,11.28-4.72
	c2.96-2.88,4.72-6.88,4.72-11.28c0-8.8-7.2-16-16-16c4.4,0,8.4-1.76,11.28-4.72c2.96-2.88,4.72-6.88,4.72-11.28c0-8.8-7.2-16-16-16
	c4.4,0,8.4-1.76,11.28-4.72C318.24,332.4,320,328.4,320,324z"/>
<polygon style="fill:#3F708D;" points="208,164 208,188 328,188 328,164 368,204 328,244 328,220 208,220 208,388 144,388 144,356 
	72,356 71.279,164 "/>
<polygon style="fill:#F88756;" points="144,468 0,468 0,356 144,356 144,420 176,420 144,452 "/>
<g>
	<rect x="344" y="364" style="fill:#E3DCD9;" width="16" height="16"/>
	
		<rect x="100.399" y="224.004" transform="matrix(-0.7071 0.7071 -0.7071 -0.7071 403.0382 297.0651)" style="fill:#E3DCD9;" width="79.192" height="16"/>
	<rect x="112" y="204" style="fill:#E3DCD9;" width="16" height="16"/>
	<rect x="152" y="244" style="fill:#E3DCD9;" width="16" height="16"/>
	<rect x="96" y="284" style="fill:#E3DCD9;" width="88" height="16"/>
	<rect x="96" y="316" style="fill:#E3DCD9;" width="24" height="16"/>
	<rect x="136" y="316" style="fill:#E3DCD9;" width="48" height="16"/>
	<rect x="24" y="404" style="fill:#E3DCD9;" width="16" height="16"/>
	<rect x="56" y="404" style="fill:#E3DCD9;" width="48" height="16"/>
</g>
<g>
	<path style="fill:#E15D2D;" d="M272,164L272,164c8.837,0,16-7.163,16-16V20c0-8.837-7.163-16-16-16h0c-8.837,0-16,7.163-16,16v128
		C256,156.837,263.163,164,272,164z"/>
	<rect x="336" y="76" style="fill:#E15D2D;" width="32" height="16"/>
	
		<rect x="331.011" y="23.988" transform="matrix(-0.7071 0.7071 -0.7071 -0.7071 616.6635 -191.4538)" style="fill:#E15D2D;" width="33.944" height="16"/>
	
		<rect x="340.005" y="119.031" transform="matrix(-0.7071 0.7071 -0.7071 -0.7071 690.2502 -13.9049)" style="fill:#E15D2D;" width="16" height="33.944"/>
</g>
<g>
	<polygon style="fill:#E3DCD9;" points="256,12 208,44 208,124 256,156 	"/>
	<rect x="168" y="44" style="fill:#E3DCD9;" width="40" height="80"/>
</g>
<g>
	<rect x="288" y="60" style="fill:#E15D2D;" width="24" height="48"/>
	<rect x="120" y="124" style="fill:#E15D2D;" width="32" height="56"/>
</g>
<g>
	<path style="fill:#FFB398;" d="M304,276c0,4.4-1.76,8.4-4.72,11.28C296.4,290.24,292.4,292,288,292h-32c-8.8,0-16-7.2-16-16
		c0-4.4,1.76-8.4,4.72-11.28c2.88-2.96,6.88-4.72,11.28-4.72h32C296.8,260,304,267.2,304,276z"/>
	<path style="fill:#FFB398;" d="M304,308c0,4.4-1.76,8.4-4.72,11.28C296.4,322.24,292.4,324,288,324h-32c-8.8,0-16-7.2-16-16
		c0-4.4,1.76-8.4,4.72-11.28c2.88-2.96,6.88-4.72,11.28-4.72h32C296.8,292,304,299.2,304,308z"/>
	<path style="fill:#FFB398;" d="M304,340c0,4.4-1.76,8.4-4.72,11.28C296.4,354.24,292.4,356,288,356h-32c-8.8,0-16-7.2-16-16
		c0-4.4,1.76-8.4,4.72-11.28c2.88-2.96,6.88-4.72,11.28-4.72h32C296.8,324,304,331.2,304,340z"/>
	<path style="fill:#FFB398;" d="M304,372c0,4.4-1.76,8.4-4.72,11.28C296.4,386.24,292.4,388,288,388h-32c-8.8,0-16-7.2-16-16
		c0-4.4,1.76-8.4,4.72-11.28c2.88-2.96,6.88-4.72,11.28-4.72h32C296.8,356,304,363.2,304,372z"/>
</g>
<path style="fill:#FE946F;" d="M416,268h-28.964c5.627,4.919,12.903,8,20.964,8l24,24v80h16v-80L416,268z"/>
<path style="fill:#FFB398;" d="M464,268l-24-24h-64c0,9.612,4.326,18.134,11.036,24H416l32,32v80h24V268H464z"/>
<path style="fill:#E15D2D;" d="M104,44c-32.962,16.481-32.962,63.519,0,80h64V44H104z"/>
<g>
</g>
<g>
</g>
<g>
</g>
<g>
</g>
<g>
</g>
<g>
</g>
<g>
</g>
<g>
</g>
<g>
</g>
<g>
</g>
<g>
</g>
<g>
</g>
<g>
</g>
<g>
</g>
<g>
</g>
</svg>
