<?xml version="1.0" encoding="iso-8859-1"?>
<!-- Generator: Adobe Illustrator 19.0.0, SVG Export Plug-In . SVG Version: 6.00 Build 0)  -->
<svg version="1.1" id="Capa_1" xmlns="http://www.w3.org/2000/svg" xmlns:xlink="http://www.w3.org/1999/xlink" x="0px" y="0px"
	 viewBox="0 0 464 464" style="enable-background:new 0 0 464 464;" xml:space="preserve">
<rect x="184" y="328" style="fill:#FFBE00;" width="96" height="136"/>
<rect x="224" y="424" style="fill:#E3DCD9;" width="16" height="16"/>
<g>
	<path style="fill:#E15D2D;" d="M272,160v16c0,8.837-7.163,16-16,16h0v40h-48v-40h0c-8.837,0-16-7.163-16-16v-16c0-8.8,7.2-16,16-16
		h48C264.8,144,272,151.2,272,160z"/>
	<circle style="fill:#E15D2D;" cx="232" cy="120" r="24"/>
</g>
<polygon style="fill:#3F708D;" points="192,0 272,0 272,48 248,48 232,64 216,48 192,48 "/>
<g>
	<path style="fill:#FFBE00;" d="M464,160v16c0,8.837-7.163,16-16,16h0v40h-48v-40h0c-8.837,0-16-7.163-16-16v-16c0-8.8,7.2-16,16-16
		h48C456.8,144,464,151.2,464,160z"/>
	<circle style="fill:#FFBE00;" cx="424" cy="120" r="24"/>
</g>
<polygon style="fill:#E3DCD9;" points="384,0 464,0 464,48 440,48 424,64 408,48 384,48 "/>
<g>
	<path style="fill:#3F708D;" d="M80,160v16c0,8.837-7.163,16-16,16h0v40H16v-40h0c-8.837,0-16-7.163-16-16v-16c0-8.8,7.2-16,16-16
		h48C72.8,144,80,151.2,80,160z"/>
	<circle style="fill:#3F708D;" cx="40" cy="120" r="24"/>
</g>
<polygon style="fill:#E15D2D;" points="0,0 80,0 80,48 56,48 40,64 24,48 0,48 "/>
<g>
	<path style="fill:#2F9BD7;" d="M261.656,282.344l-24-24c-3.125-3.125-8.188-3.125-11.313,0l-24,24l11.313,11.313L224,283.313V304
		h16v-20.688l10.344,10.344L261.656,282.344z"/>
	<path style="fill:#2F9BD7;" d="M48,384V283.313l10.344,10.344l11.313-11.313l-24-24c-3.125-3.125-8.188-3.125-11.313,0l-24,24
		l11.313,11.313L32,283.313V392c0,4.422,3.578,8,8,8h120v-16H48z"/>
	<path style="fill:#2F9BD7;" d="M453.656,282.344l-24-24c-3.125-3.125-8.188-3.125-11.313,0l-24,24l11.313,11.313L416,283.313V384
		H304v16h120c4.422,0,8-3.578,8-8V283.313l10.344,10.344L453.656,282.344z"/>
</g>
<g>
	<rect x="224" y="368" style="fill:#E3DCD9;" width="16" height="16"/>
	<rect x="192" y="368" style="fill:#E3DCD9;" width="16" height="16"/>
	<rect x="256" y="368" style="fill:#E3DCD9;" width="16" height="16"/>
</g>
<g>
</g>
<g>
</g>
<g>
</g>
<g>
</g>
<g>
</g>
<g>
</g>
<g>
</g>
<g>
</g>
<g>
</g>
<g>
</g>
<g>
</g>
<g>
</g>
<g>
</g>
<g>
</g>
<g>
</g>
</svg>
