<?xml version="1.0" encoding="iso-8859-1"?>
<!-- Generator: Adobe Illustrator 19.0.0, SVG Export Plug-In . SVG Version: 6.00 Build 0)  -->
<svg version="1.1" id="Capa_1" xmlns="http://www.w3.org/2000/svg" xmlns:xlink="http://www.w3.org/1999/xlink" x="0px" y="0px"
	 viewBox="0 0 472 472" style="enable-background:new 0 0 472 472;" xml:space="preserve">
<path style="fill:#3F708D;" d="M232,104c-75.2,0-136,60.8-136,136s60.8,136,136,136V240h136C368,164.8,307.2,104,232,104z"/>
<polygon style="fill:#F88756;" points="0,472 0,408 96,408 128,376 128,472 "/>
<polygon style="fill:#3F708D;" points="0,8 0,72 96,72 128,104 128,8 "/>
<g>
	<rect x="88" y="32" style="fill:#F88756;" width="16" height="16"/>
	<rect x="56" y="32" style="fill:#F88756;" width="16" height="16"/>
	<rect x="24" y="32" style="fill:#F88756;" width="16" height="16"/>
</g>
<g>
	<rect x="88" y="432" style="fill:#E3DCD9;" width="16" height="16"/>
	<rect x="56" y="432" style="fill:#E3DCD9;" width="16" height="16"/>
	<rect x="24" y="432" style="fill:#E3DCD9;" width="16" height="16"/>
	<polygon style="fill:#E3DCD9;" points="344,304 304,344 293.6,323.2 288,312 312,288 	"/>
</g>
<polygon style="fill:#E15D2D;" points="376,272 358.4,289.6 344,304 272,376 328,392 392,328 "/>
<polygon style="fill:#E3DCD9;" points="392,328 328,392 344,408 368,432 392,456 456,392 "/>
<path style="fill:#E15D2D;" d="M456,392l-64,64l3.2,1.6c23.2,11.2,51.2,1.6,62.4-21.6C464,421.6,464,405.6,456,392z"/>
<rect x="307.837" y="422.879" transform="matrix(-0.7071 0.7071 -0.7071 -0.7071 884.8913 512.8235)" style="fill:#B9ACA9;" width="56.799" height="33.6"/>
<g>
	<rect x="328" y="256" style="fill:#E15D2D;" width="16" height="24"/>
	
		<rect x="263.994" y="260.799" transform="matrix(-0.7071 0.7071 -0.7071 -0.7071 656.6559 272.0026)" style="fill:#E15D2D;" width="16" height="22.4"/>
	<rect x="248" y="320" style="fill:#E15D2D;" width="24" height="16"/>
</g>
<g>
	<rect x="392" style="fill:#FFBE00;" width="16" height="24"/>
	
		<rect x="428.795" y="24.007" transform="matrix(-0.7071 0.7071 -0.7071 -0.7071 773.7507 -256.4852)" style="fill:#FFBE00;" width="22.4" height="16"/>
	<rect x="448" y="64" style="fill:#FFBE00;" width="24" height="16"/>
	<polygon style="fill:#FFBE00;" points="328,72 358.4,102.4 322.4,138.4 333.6,149.6 369.6,113.6 400,144 440,104 368,32 	"/>
</g>
<path style="fill:#2E5166;" d="M376,243.2V240c0-35.2-12.8-69.6-36.8-96L328,132.8c-18.4-16.8-40.8-28-64.8-33.6
	C252.8,97.6,242.4,96,232,96s-20.8,1.6-31.2,3.2C123.2,116,73.6,192.8,91.2,270.4c12,55.2,55.2,97.6,109.6,109.6
	c10.4,1.6,20.8,3.2,31.2,3.2c2.4,0,5.6,0,8,0V248h136C376,246.4,376,244.8,376,243.2z M181.6,122.4c-7.2,10.4-14.4,21.6-19.2,33.6
	c-4.8-3.2-10.4-7.2-14.4-11.2C157.6,135.2,168.8,128,181.6,122.4z M136,156c6.4,5.6,12.8,11.2,20,15.2c-7.2,20-11.2,40-11.2,60.8
	h-40C106.4,204,117.6,176.8,136,156z M104,248h40c0.8,20.8,4.8,41.6,12,60.8c-7.2,4.8-13.6,9.6-20,15.2
	C117.6,303.2,106.4,276,104,248z M147.2,336c4.8-4,9.6-8,14.4-11.2c5.6,12,12,22.4,19.2,32.8C168.8,352,157.6,344.8,147.2,336z
	 M224,368c-4.8,0-10.4-0.8-15.2-1.6C195.2,352,184,335.2,176,316.8c15.2-7.2,31.2-11.2,48-12V368z M224,288
	c-18.4,0.8-36.8,5.6-53.6,12.8c-5.6-16.8-9.6-35.2-9.6-53.6h64V288H224z M224,232h-64c0.8-18.4,4-36,10.4-53.6
	c16.8,8,35.2,12,53.6,12.8V232z M224,176c-16.8-0.8-32.8-4.8-48-12c8-18.4,19.2-35.2,32.8-49.6c4.8-0.8,9.6-1.6,15.2-1.6V176z
	 M316.8,144c-4.8,4-9.6,8-15.2,12c-5.6-12-12-22.4-19.2-32.8C295.2,128,306.4,135.2,316.8,144z M240,112c4.8,0,10.4,0.8,15.2,1.6
	c13.6,14.4,24.8,31.2,32.8,49.6c-15.2,7.2-31.2,11.2-48,12V112z M240,232v-40c18.4-0.8,36.8-5.6,53.6-12.8
	c5.6,17.6,8.8,35.2,9.6,53.6H240V232z M320,232c-0.8-20.8-4.8-41.6-12-60.8c7.2-4.8,13.6-9.6,20-15.2c18.4,21.6,29.6,48,32,76H320z"
	/>
<g>
</g>
<g>
</g>
<g>
</g>
<g>
</g>
<g>
</g>
<g>
</g>
<g>
</g>
<g>
</g>
<g>
</g>
<g>
</g>
<g>
</g>
<g>
</g>
<g>
</g>
<g>
</g>
<g>
</g>
</svg>
