<?xml version="1.0" encoding="iso-8859-1"?>
<!-- Generator: Adobe Illustrator 19.0.0, SVG Export Plug-In . SVG Version: 6.00 Build 0)  -->
<svg version="1.1" id="Capa_1" xmlns="http://www.w3.org/2000/svg" xmlns:xlink="http://www.w3.org/1999/xlink" x="0px" y="0px"
	 viewBox="0 0 472 472" style="enable-background:new 0 0 472 472;" xml:space="preserve">
<rect x="244" y="48" style="fill:#3F708D;" width="216" height="280"/>
<path style="fill:#2E5166;" d="M404,72h-16V16h-72v56h-16V8c0-4.422,3.582-8,8-8h88c4.418,0,8,3.578,8,8V72z"/>
<g>
	<rect x="172" y="248" style="fill:#E15D2D;" width="144" height="144"/>
	<path style="fill:#E15D2D;" d="M284,272h-16v-48h-48v48h-16v-56c0-4.422,3.582-8,8-8h64c4.418,0,8,3.578,8,8V272z"/>
</g>
<polygon style="fill:#FFBE00;" points="348,168 340,192 316,192 308,216 332,216 324,240 348,240 356,216 380,216 388,192 364,192 
	372,168 "/>
<rect x="12" y="448" style="fill:#FE946F;" width="96" height="24"/>
<polygon style="fill:#FFB398;" points="244,424 202,424 172,448 140,448 140,424 140,392 124,392 108,408 12,408 12,448 108,448 
	108,472 188,472 "/>
<polygon style="fill:#FE946F;" points="172,448 202,424 140,424 140,448 "/>
<polygon style="fill:#FFB398;" points="287.2,112 244,112 244,88 220,88 204,104 12,104 12,144 268,144 "/>
<polygon style="fill:#FE946F;" points="287.2,112 268,144 12,144 12,168 300,168 300,112 "/>
<g>
</g>
<g>
</g>
<g>
</g>
<g>
</g>
<g>
</g>
<g>
</g>
<g>
</g>
<g>
</g>
<g>
</g>
<g>
</g>
<g>
</g>
<g>
</g>
<g>
</g>
<g>
</g>
<g>
</g>
</svg>
