<?xml version="1.0" encoding="iso-8859-1"?>
<!-- Generator: Adobe Illustrator 19.0.0, SVG Export Plug-In . SVG Version: 6.00 Build 0)  -->
<svg version="1.1" id="Capa_1" xmlns="http://www.w3.org/2000/svg" xmlns:xlink="http://www.w3.org/1999/xlink" x="0px" y="0px"
	 viewBox="0 0 464 464" style="enable-background:new 0 0 464 464;" xml:space="preserve">
<rect x="152" y="138.845" style="fill:#FFBE00;" width="288" height="232"/>
<path style="fill:#E3DCD9;" d="M272,210.845v80l24-16h16v32h24v-32h24l0,0c9.689-14.533,9.689-33.467,0-48l0,0h-64L272,210.845z"/>
<polygon style="fill:#E15D2D;" points="440,386.845 440,370.845 152,370.845 152,418.845 328,418.845 376,418.845 464,418.845 
	464,386.845 "/>
<polygon style="fill:#FFBE00;" points="152,194.845 64,194.845 96,138.845 152,138.845 "/>
<g>
	<polygon style="fill:#E3DCD9;" points="272,234.845 248,242.845 248,258.845 272,266.845 	"/>
	<rect x="200" y="242.845" style="fill:#E3DCD9;" width="24" height="16"/>
	
		<rect x="208.019" y="199.532" transform="matrix(-0.7071 0.7071 -0.7071 -0.7071 517.8566 207.1842)" style="fill:#E3DCD9;" width="16" height="22.624"/>
	
		<rect x="204.716" y="282.82" transform="matrix(-0.7071 0.7071 -0.7071 -0.7071 574.4237 343.7069)" style="fill:#E3DCD9;" width="22.624" height="16"/>
</g>
<rect x="96" y="338.845" width="32" height="16"/>
<polygon style="fill:#3F708D;" points="72,314.845 112,314.845 112,226.845 48,226.845 0,330.845 0,338.845 56,338.845 "/>
<polygon style="fill:#E15D2D;" points="72,314.845 56,338.845 0,338.845 0,418.845 72,418.845 120,418.845 152,418.845 152,314.845 
	112,314.845 "/>
<rect x="112" y="226.845" style="fill:#2E5166;" width="40" height="88"/>
<polygon style="fill:#E3DCD9;" points="160,42.845 160,90.845 184,82.845 200,82.845 200,66.845 200,50.845 184,50.845 "/>
<rect x="144" y="58.845" style="fill:#E15D2D;" width="16" height="16"/>
<g>
	<rect x="104" y="58.845" style="fill:#FFBE00;" width="24" height="16"/>
	
		<rect x="111.997" y="23.531" transform="matrix(-0.7071 0.7071 -0.7071 -0.7071 229.4855 -25.3702)" style="fill:#FFBE00;" width="16" height="22.624"/>
	
		<rect x="108.692" y="90.842" transform="matrix(-0.7071 0.7071 -0.7071 -0.7071 274.7517 83.878)" style="fill:#FFBE00;" width="22.624" height="16"/>
</g>
<polygon style="fill:#E3DCD9;" points="304,42.845 304,90.845 280,82.845 264,82.845 264,50.845 280,50.845 "/>
<rect x="304" y="58.845" style="fill:#E15D2D;" width="16" height="16"/>
<g>
	<rect x="336" y="58.845" style="fill:#FFBE00;" width="24" height="16"/>
	
		<rect x="332.686" y="26.81" transform="matrix(-0.7071 0.7071 -0.7071 -0.7071 611.8555 -183.8183)" style="fill:#FFBE00;" width="22.624" height="16"/>
	
		<rect x="336.005" y="87.529" transform="matrix(-0.7071 0.7071 -0.7071 -0.7071 657.1443 -74.5155)" style="fill:#FFBE00;" width="16" height="22.624"/>
</g>
<g>
	<rect x="224" y="58.845" style="fill:#E15D2D;" width="16" height="80"/>
	<rect x="200" y="58.845" style="fill:#E15D2D;" width="64" height="16"/>
</g>
<g>
	<circle style="fill:#2E5166;" cx="96" cy="418.845" r="24"/>
	<circle style="fill:#2E5166;" cx="352" cy="418.845" r="24"/>
</g>
<g>
</g>
<g>
</g>
<g>
</g>
<g>
</g>
<g>
</g>
<g>
</g>
<g>
</g>
<g>
</g>
<g>
</g>
<g>
</g>
<g>
</g>
<g>
</g>
<g>
</g>
<g>
</g>
<g>
</g>
</svg>
