<?xml version="1.0" encoding="iso-8859-1"?>
<!-- Generator: Adobe Illustrator 19.0.0, SVG Export Plug-In . SVG Version: 6.00 Build 0)  -->
<svg version="1.1" id="Capa_1" xmlns="http://www.w3.org/2000/svg" xmlns:xlink="http://www.w3.org/1999/xlink" x="0px" y="0px"
	 viewBox="0 0 464 464" style="enable-background:new 0 0 464 464;" xml:space="preserve">
<path style="fill:#FFB398;" d="M144,264c13.255,0,24-10.745,24-24h32v-48h8c8.836,0,16-7.164,16-16c0-8.837-7.164-16-16-16h-8h-16
	c-13.255,0-24-10.745-24-24H88v24h-8c-8.836,0-16,7.163-16,16c0,8.836,7.164,16,16,16h8v48h32C120,253.255,130.745,264,144,264z"/>
<path style="fill:#2E5166;" d="M80,240c-17.673,0-32,14.327-32,32l40,20v-52H80z"/>
<path style="fill:#FFBE00;" d="M184,160h16v-24c0-8.837-7.164-16-16-16h-8c0-8.837-7.164-16-16-16h-56c-8.836,0-16,7.163-16,16v16
	h72C160,149.255,170.745,160,184,160z"/>
<path style="fill:#F88756;" d="M464,88c0-8.837-7.164-16-16-16H16C7.164,72,0,79.163,0,88v160l48,24c0-17.673,14.327-32,32-32h8v-48
	h-8c-8.836,0-16-7.164-16-16c0-8.837,7.164-16,16-16h8v-24v-16c0-8.837,7.164-16,16-16h56c8.836,0,16,7.163,16,16h8
	c8.836,0,16,7.163,16,16v24h8c8.836,0,16,7.163,16,16c0,8.836-7.164,16-16,16h-8v48h8c16.115,0,29.316,11.953,31.542,27.452L464,144
	V88z"/>
<path style="fill:#E3DCD9;" d="M200,280v-40h-32c0,13.255-10.745,24-24,24s-24-10.745-24-24H88v52l56,28l56-30.8V288V280z"/>
<path style="fill:#2E5166;" d="M208,240h-8v40v8v1.2l39.542-21.748C237.316,251.953,224.115,240,208,240z"/>
<path style="fill:#3F708D;" d="M0,248v128c0,8.836,7.164,16,16,16h432c8.836,0,16-7.164,16-16V144L144,320L0,248z"/>
<g>
	<rect x="232" y="112" style="fill:#E15D2D;" width="88" height="16"/>
	<rect x="336" y="112" style="fill:#E15D2D;" width="88" height="16"/>
	<rect x="304" y="152" style="fill:#E15D2D;" width="48" height="16"/>
</g>
<g>
	<rect x="232" y="352" style="fill:#2E5166;" width="192" height="16"/>
	<rect x="232" y="320" style="fill:#2E5166;" width="112" height="16"/>
	<rect x="344" y="320" style="fill:#2E5166;" width="80" height="16"/>
	<rect x="304" y="288" style="fill:#2E5166;" width="120" height="16"/>
</g>
<rect x="32" y="312" style="fill:#E3DCD9;" width="48" height="48"/>
<g>
	<rect x="160" y="184" style="fill:#2E5166;" width="16" height="16"/>
	<rect x="112" y="184" style="fill:#2E5166;" width="16" height="16"/>
</g>
<rect x="128" y="208" style="fill:#FE946F;" width="32" height="16"/>
<polygon style="fill:#E15D2D;" points="136,264 144,264 152,264 160,312 144,320 128,312 "/>
<g>
</g>
<g>
</g>
<g>
</g>
<g>
</g>
<g>
</g>
<g>
</g>
<g>
</g>
<g>
</g>
<g>
</g>
<g>
</g>
<g>
</g>
<g>
</g>
<g>
</g>
<g>
</g>
<g>
</g>
</svg>
