<?xml version="1.0" encoding="iso-8859-1"?>
<!-- Generator: Adobe Illustrator 19.0.0, SVG Export Plug-In . SVG Version: 6.00 Build 0)  -->
<svg version="1.1" id="Capa_1" xmlns="http://www.w3.org/2000/svg" xmlns:xlink="http://www.w3.org/1999/xlink" x="0px" y="0px"
	 viewBox="0 0 464 464" style="enable-background:new 0 0 464 464;" xml:space="preserve">
<polygon style="fill:#FFBE00;" points="368,256 464,256 464,464 304,464 304,368 336,368 368,400 "/>
<path style="fill:#2E5166;" d="M240.08,110.64C240,111.12,240,111.52,240,112c0,5.44,0.4,10.8,1.12,16H152l-24-32H0V64h250.88
	c-1.28,2.64-2.4,5.28-3.44,8C242.8,84,240.16,97.04,240.08,110.64z"/>
<polygon style="fill:#E15D2D;" points="128,96 0,96 0,128 152,128 "/>
<polygon style="fill:#3F708D;" points="253.396,177.109 253.712,176 0.32,176 "/>
<path style="fill:#F88756;" d="M253.712,176l1.968-6.88c-7.36-12.4-12.4-26.32-14.56-41.12H152H0v48h0.32H253.712z"/>
<path style="fill:#3F708D;" d="M352,224c-20.8,0-40.4-5.68-57.12-15.68L256,219.44L240,224l4.56-16l8.835-30.891L0.32,176H0v192h40
	l8-8l-24-24h104v32h208l32,32V222.88C362.8,223.6,357.44,224,352,224z"/>
<g>
	<rect x="16" y="144" style="fill:#E3DCD9;" width="16" height="16"/>
	<rect x="48" y="144" style="fill:#E3DCD9;" width="16" height="16"/>
	<rect x="80" y="144" style="fill:#E3DCD9;" width="136" height="16"/>
</g>
<polygon style="fill:#E15D2D;" points="128,336 128,440 104,416 56,464 0,408 48,360 24,336 "/>
<path style="fill:#E3DCD9;" d="M464,112c0,56.4-41.76,103.12-96,110.88c-5.2,0.72-10.56,1.12-16,1.12c-20.8,0-40.4-5.68-57.12-15.68
	L256,219.44L240,224l4.56-16l11.12-38.88c-7.36-12.4-12.4-26.32-14.56-41.12c-0.72-5.2-1.12-10.56-1.12-16c0-0.48,0-0.88,0.08-1.36
	c0.08-13.6,2.72-26.64,7.36-38.64c1.04-2.72,2.16-5.36,3.44-8C268.8,26.16,307.36,0,352,0C413.84,0,464,50.16,464,112z"/>
<path style="fill:#FFB398;" d="M360,48v24l16,16h40v64H304l-16-16V88l16-16h32v0C336,58.745,346.745,48,360,48L360,48z"/>
<rect x="384" y="88" style="fill:#3F708D;" width="32" height="64"/>
<polygon style="fill:#FFBE00;" points="256,219.44 256,336 128,336 128,208 244.56,208 240,224 "/>
<g>
	<rect x="152" y="296" style="fill:#2E5166;" width="80" height="16"/>
	<rect x="152" y="264" style="fill:#2E5166;" width="80" height="16"/>
	<rect x="152" y="232" style="fill:#2E5166;" width="80" height="16"/>
</g>
<g>
	<rect x="376" y="424" style="fill:#E3DCD9;" width="16" height="16"/>
	<path style="fill:#E3DCD9;" d="M432,440h-24v-16h16v-48h16v56C440,436.418,436.422,440,432,440z"/>
</g>
<g>
</g>
<g>
</g>
<g>
</g>
<g>
</g>
<g>
</g>
<g>
</g>
<g>
</g>
<g>
</g>
<g>
</g>
<g>
</g>
<g>
</g>
<g>
</g>
<g>
</g>
<g>
</g>
<g>
</g>
</svg>
