<?xml version="1.0" encoding="utf-8"?>
<!-- Generator: Adobe Illustrator 16.0.0, SVG Export Plug-In . SVG Version: 6.00 Build 0)  -->
<!DOCTYPE svg PUBLIC "-//W3C//DTD SVG 1.1//EN" "http://www.w3.org/Graphics/SVG/1.1/DTD/svg11.dtd">
<svg version="1.1" id="c_xA0_Image_1_" xmlns="http://www.w3.org/2000/svg" xmlns:xlink="http://www.w3.org/1999/xlink" x="0px"
	 y="0px" width="671.916px" height="739.908px" viewBox="0 0 671.916 739.908" enable-background="new 0 0 671.916 739.908"
	 xml:space="preserve">
<g>
	<path opacity="0.9" fill="#2EAEB7" d="M291.172,167.626c40.221,22.159,90.766,7.471,112.895-32.804
		c22.129-40.274,7.465-90.886-32.758-113.044c-40.22-22.159-90.766-7.473-112.894,32.802
		C236.286,94.854,250.952,145.467,291.172,167.626z"/>
	<path fill="#B2B7D9" d="M371.31,718.131c-40.221,22.158-90.766,7.471-112.895-32.803s-7.464-90.887,32.758-113.047
		c40.221-22.156,90.766-7.471,112.895,32.803C426.196,645.36,411.53,695.971,371.31,718.131z"/>
	<g opacity="0.5">
		<g>
			<path fill="#5D5D5D" d="M296.652,352.296c0,2.094-0.116,4.03-0.347,5.809c-0.232,1.779-0.842,3.609-1.832,5.49
				c-0.99,1.881-2.601,3.447-4.83,4.698c-2.23,1.25-5.205,1.876-8.925,1.876c-3.627,0-6.551-0.556-8.772-1.667
				s-3.849-2.548-4.885-4.309c-1.037-1.76-1.698-3.595-1.985-5.503c-0.287-1.909-0.43-4.04-0.43-6.393v-23.571h5.385v23.488
				c0,2.446,0.175,4.554,0.527,6.324c0.351,1.77,1.277,3.34,2.776,4.711c1.499,1.372,3.812,2.057,6.94,2.057
				c3.164,0,5.542-0.546,7.134-1.64c1.591-1.093,2.627-2.552,3.109-4.377c0.481-1.825,0.722-4.184,0.722-7.074v-23.488h5.413
				V352.296z"/>
			<path fill="#5D5D5D" d="M338.791,369.474h-6.663l-8.161-11.563c-1.999-2.835-3.257-4.734-3.775-5.698h-0.111
				c0,0.333-4.035,6.087-12.103,17.261h-6.495l15.767-21.236l-13.935-19.513h6.412l8.578,12.175c0.925,1.316,1.61,2.418,2.054,3.308
				c0.722-1.241,4.534-6.402,11.437-15.482h5.857l-14.268,19.179L338.791,369.474z"/>
			<path fill="#5D5D5D" d="M354.919,328.725l-11.77,42.111h-4.025l11.77-42.111H354.919z"/>
			<path fill="#5D5D5D" d="M391.422,352.296c0,2.094-0.115,4.03-0.347,5.809c-0.231,1.779-0.843,3.609-1.832,5.49
				c-0.99,1.881-2.601,3.447-4.83,4.698c-2.23,1.25-5.205,1.876-8.925,1.876c-3.627,0-6.551-0.556-8.771-1.667
				s-3.85-2.548-4.886-4.309c-1.037-1.76-1.698-3.595-1.985-5.503s-0.43-4.04-0.43-6.393v-23.571h5.385v23.488
				c0,2.446,0.176,4.554,0.527,6.324s1.277,3.34,2.776,4.711c1.499,1.372,3.813,2.057,6.939,2.057c3.165,0,5.543-0.546,7.135-1.64
				c1.591-1.093,2.627-2.552,3.108-4.377s0.722-4.184,0.722-7.074v-23.488h5.413V352.296z"/>
			<path fill="#5D5D5D" d="M406.605,369.474h-5.413v-40.749h5.413V369.474z"/>
		</g>
		<g>
			<path fill="#5D5D5D" d="M301.512,392.012l-1.167-3.249h-4.467l-1.143,3.249h-2.014l4.371-11.747h2.078l4.372,11.747H301.512z
				 M299.842,387.115l-1.095-3.185c-0.08-0.213-0.19-0.549-0.332-1.008s-0.239-0.795-0.292-1.009
				c-0.144,0.656-0.354,1.374-0.631,2.152l-1.055,3.049H299.842z"/>
			<path fill="#5D5D5D" d="M312.656,383.85c0,1.222-0.399,2.158-1.199,2.809c-0.799,0.651-1.937,0.977-3.412,0.977h-1.215v4.377
				h-1.91v-11.698h3.364c1.459,0,2.553,0.299,3.28,0.896C312.292,381.807,312.656,382.687,312.656,383.85z M306.83,386.027h1.015
				c0.98,0,1.699-0.171,2.157-0.512c0.458-0.342,0.688-0.875,0.688-1.601c0-0.673-0.205-1.174-0.615-1.505
				c-0.411-0.33-1.05-0.496-1.918-0.496h-1.327V386.027z"/>
			<path fill="#5D5D5D" d="M322.561,383.85c0,1.222-0.399,2.158-1.199,2.809c-0.799,0.651-1.937,0.977-3.412,0.977h-1.215v4.377
				h-1.91v-11.698h3.364c1.459,0,2.553,0.299,3.28,0.896C322.197,381.807,322.561,382.687,322.561,383.85z M316.735,386.027h1.015
				c0.98,0,1.699-0.171,2.157-0.512c0.458-0.342,0.688-0.875,0.688-1.601c0-0.673-0.205-1.174-0.615-1.505
				c-0.411-0.33-1.05-0.496-1.918-0.496h-1.327V386.027z"/>
			<path fill="#5D5D5D" d="M326.641,387.339v4.673h-1.91v-11.698h3.3c1.507,0,2.624,0.282,3.348,0.848s1.087,1.419,1.087,2.561
				c0,1.456-0.756,2.494-2.27,3.113l3.3,5.177h-2.173l-2.797-4.673H326.641z M326.641,385.754h1.327c0.89,0,1.534-0.165,1.934-0.496
				c0.4-0.33,0.6-0.821,0.6-1.472c0-0.662-0.216-1.137-0.647-1.425s-1.082-0.432-1.95-0.432h-1.263V385.754z"/>
			<path fill="#5D5D5D" d="M345.4,386.147c0,1.904-0.476,3.385-1.427,4.44c-0.951,1.057-2.297,1.585-4.039,1.585
				c-1.764,0-3.118-0.524-4.064-1.572c-0.946-1.049-1.418-2.538-1.418-4.47c0-1.931,0.476-3.413,1.427-4.448
				c0.95-1.035,2.308-1.553,4.071-1.553c1.736,0,3.079,0.525,4.027,1.576S345.4,384.237,345.4,386.147z M336.481,386.147
				c0,1.44,0.291,2.532,0.871,3.276c0.581,0.744,1.441,1.116,2.582,1.116c1.135,0,1.991-0.368,2.569-1.104
				c0.577-0.736,0.866-1.833,0.866-3.289c0-1.436-0.286-2.523-0.858-3.265c-0.573-0.741-1.427-1.112-2.562-1.112
				c-1.146,0-2.01,0.371-2.594,1.112C336.774,383.624,336.481,384.711,336.481,386.147z"/>
			<path fill="#5D5D5D" d="M354.994,392.012l-1.166-3.249h-4.468l-1.143,3.249h-2.014l4.371-11.747h2.078l4.371,11.747H354.994z
				 M353.324,387.115l-1.095-3.185c-0.08-0.213-0.19-0.549-0.332-1.008c-0.141-0.459-0.238-0.795-0.291-1.009
				c-0.145,0.656-0.354,1.374-0.632,2.152l-1.055,3.049H353.324z"/>
			<path fill="#5D5D5D" d="M363.373,381.786c-1.098,0-1.96,0.39-2.589,1.169c-0.629,0.778-0.943,1.854-0.943,3.225
				c0,1.435,0.303,2.521,0.907,3.257c0.604,0.735,1.479,1.104,2.625,1.104c0.495,0,0.975-0.049,1.438-0.147s0.945-0.226,1.446-0.38
				v1.64c-0.916,0.347-1.955,0.521-3.116,0.521c-1.71,0-3.023-0.519-3.939-1.557c-0.917-1.037-1.375-2.521-1.375-4.453
				c0-1.216,0.223-2.28,0.667-3.192c0.445-0.912,1.089-1.611,1.931-2.097s1.83-0.729,2.965-0.729c1.192,0,2.296,0.251,3.308,0.753
				l-0.687,1.592c-0.395-0.187-0.812-0.351-1.251-0.492C364.32,381.857,363.858,381.786,363.373,381.786z"/>
			<path fill="#5D5D5D" d="M377.825,392.012h-1.918v-5.273h-5.386v5.273h-1.91v-11.698h1.91v4.784h5.386v-4.784h1.918V392.012z"/>
		</g>
	</g>
	<g>
		<g>
			<path fill="#FFFFFF" d="M319.821,60.359v9.238c0,1.055-0.226,1.978-0.678,2.769c-0.452,0.791-1.105,1.4-1.96,1.826
				c-0.855,0.426-1.877,0.64-3.067,0.64c-1.769,0-3.144-0.469-4.125-1.406s-1.473-2.227-1.473-3.867v-9.199h2.341v9.033
				c0,1.178,0.273,2.047,0.819,2.607c0.546,0.56,1.385,0.84,2.516,0.84c2.197,0,3.296-1.156,3.296-3.467v-9.014H319.821z"/>
			<path fill="#FFFFFF" d="M331.491,70.759c0,1.27-0.458,2.266-1.375,2.988c-0.917,0.723-2.181,1.084-3.793,1.084
				c-1.613,0-2.933-0.25-3.96-0.752v-2.207c0.65,0.306,1.341,0.547,2.073,0.723s1.412,0.264,2.043,0.264
				c0.923,0,1.604-0.176,2.043-0.527c0.438-0.352,0.658-0.824,0.658-1.416c0-0.534-0.202-0.986-0.605-1.357
				c-0.403-0.371-1.235-0.811-2.497-1.318c-1.3-0.527-2.217-1.129-2.75-1.807c-0.533-0.677-0.8-1.491-0.8-2.441
				c0-1.191,0.422-2.129,1.268-2.813s1.98-1.025,3.404-1.025c1.365,0,2.724,0.299,4.077,0.898l-0.741,1.904
				c-1.268-0.534-2.399-0.801-3.394-0.801c-0.754,0-1.326,0.165-1.716,0.493s-0.585,0.763-0.585,1.304
				c0,0.371,0.078,0.688,0.234,0.952s0.413,0.513,0.771,0.747c0.357,0.234,1.001,0.543,1.931,0.928
				c1.046,0.436,1.814,0.843,2.301,1.221c0.488,0.377,0.845,0.804,1.073,1.279S331.491,70.115,331.491,70.759z"/>
			<path fill="#FFFFFF" d="M342.116,74.636h-8.065V60.359h8.065v1.973h-5.734v3.887h5.374v1.953h-5.374v4.482h5.734V74.636z"/>
			<path fill="#FFFFFF" d="M347.329,68.933v5.703h-2.331V60.359h4.028c1.84,0,3.202,0.345,4.086,1.035
				c0.885,0.69,1.327,1.732,1.327,3.125c0,1.777-0.924,3.043-2.771,3.799l4.028,6.318h-2.653l-3.413-5.703H347.329z M347.329,67
				h1.619c1.086,0,1.873-0.202,2.36-0.605s0.731-1.002,0.731-1.797c0-0.807-0.264-1.387-0.79-1.738s-1.32-0.527-2.38-0.527h-1.541
				V67z"/>
			<path fill="#FFFFFF" d="M286.399,92.933v5.703h-2.331V84.359h4.028c1.84,0,3.202,0.345,4.086,1.035
				c0.884,0.69,1.326,1.732,1.326,3.125c0,1.777-0.923,3.043-2.77,3.799l4.028,6.318h-2.653l-3.414-5.703H286.399z M286.399,91
				h1.619c1.086,0,1.873-0.202,2.36-0.605c0.487-0.404,0.731-1.002,0.731-1.797c0-0.807-0.264-1.387-0.79-1.738
				c-0.527-0.352-1.32-0.527-2.38-0.527h-1.541V91z"/>
			<path fill="#FFFFFF" d="M304.7,98.636h-8.065V84.359h8.065v1.973h-5.734v3.887h5.374v1.953h-5.374v4.482h5.734V98.636z"/>
			<path fill="#FFFFFF" d="M315.804,94.759c0,1.27-0.458,2.266-1.375,2.988c-0.917,0.723-2.181,1.084-3.793,1.084
				c-1.613,0-2.933-0.25-3.96-0.752v-2.207c0.65,0.306,1.341,0.547,2.073,0.723s1.412,0.264,2.043,0.264
				c0.923,0,1.604-0.176,2.043-0.527c0.438-0.352,0.658-0.824,0.658-1.416c0-0.534-0.202-0.986-0.605-1.357
				c-0.403-0.371-1.235-0.811-2.497-1.318c-1.3-0.527-2.217-1.129-2.75-1.807c-0.533-0.677-0.8-1.491-0.8-2.441
				c0-1.191,0.422-2.129,1.268-2.813s1.98-1.025,3.404-1.025c1.365,0,2.724,0.299,4.077,0.898l-0.741,1.904
				c-1.268-0.534-2.399-0.801-3.394-0.801c-0.754,0-1.326,0.165-1.716,0.493s-0.585,0.763-0.585,1.304
				c0,0.371,0.078,0.688,0.234,0.952s0.413,0.513,0.771,0.747c0.357,0.234,1.001,0.543,1.931,0.928
				c1.046,0.436,1.814,0.843,2.301,1.221c0.488,0.377,0.845,0.804,1.073,1.279S315.804,94.115,315.804,94.759z"/>
			<path fill="#FFFFFF" d="M326.43,98.636h-8.065V84.359h8.065v1.973h-5.734v3.887h5.374v1.953h-5.374v4.482h5.734V98.636z"/>
			<path fill="#FFFFFF" d="M338.157,98.636l-1.424-3.965h-5.452l-1.395,3.965h-2.458l5.334-14.336h2.536l5.334,14.336H338.157z
				 M336.118,92.66l-1.335-3.887c-0.098-0.26-0.232-0.67-0.405-1.23s-0.291-0.97-0.356-1.23c-0.175,0.801-0.433,1.676-0.771,2.627
				l-1.287,3.721H336.118z"/>
			<path fill="#FFFFFF" d="M344.647,92.933v5.703h-2.331V84.359h4.028c1.84,0,3.202,0.345,4.086,1.035
				c0.885,0.69,1.327,1.732,1.327,3.125c0,1.777-0.924,3.043-2.771,3.799l4.028,6.318h-2.653l-3.413-5.703H344.647z M344.647,91
				h1.619c1.086,0,1.873-0.202,2.36-0.605s0.731-1.002,0.731-1.797c0-0.807-0.264-1.387-0.79-1.738s-1.32-0.527-2.38-0.527h-1.541
				V91z"/>
			<path fill="#FFFFFF" d="M360.949,86.156c-1.339,0-2.393,0.475-3.16,1.426c-0.767,0.951-1.15,2.262-1.15,3.936
				c0,1.751,0.369,3.076,1.107,3.975c0.737,0.898,1.806,1.348,3.203,1.348c0.604,0,1.19-0.06,1.756-0.181s1.153-0.275,1.765-0.464
				v2.002c-1.118,0.423-2.386,0.635-3.803,0.635c-2.088,0-3.69-0.633-4.809-1.899s-1.678-3.078-1.678-5.435
				c0-1.484,0.271-2.783,0.814-3.896s1.328-1.966,2.355-2.559s2.233-0.889,3.618-0.889c1.456,0,2.803,0.306,4.038,0.918
				l-0.839,1.943c-0.481-0.228-0.99-0.428-1.526-0.601S361.541,86.156,360.949,86.156z"/>
			<path fill="#FFFFFF" d="M378.587,98.636h-2.341v-6.436h-6.573v6.436h-2.331V84.359h2.331v5.84h6.573v-5.84h2.341V98.636z"/>
		</g>
	</g>
	<g>
		<g>
			<path fill="#FFFFFF" d="M278.765,112.991c0.182-0.258,0.458-0.597,0.831-1.016l2.244-2.38h1.249l-2.814,2.964l3.011,3.993h-1.274
				l-2.453-3.288l-0.792,0.686v2.603h-1.04v-9.877h1.04v5.237c0,0.233-0.017,0.592-0.051,1.079H278.765z"/>
			<path fill="#FFFFFF" d="M289.165,116.552v-4.5c0-0.567-0.129-0.99-0.387-1.27s-0.662-0.419-1.211-0.419
				c-0.727,0-1.259,0.197-1.597,0.59c-0.338,0.394-0.507,1.043-0.507,1.949v3.65h-1.052v-6.957h0.856l0.171,0.952h0.051
				c0.215-0.343,0.518-0.608,0.907-0.797c0.389-0.188,0.822-0.282,1.299-0.282c0.837,0,1.466,0.202,1.889,0.606
				c0.422,0.404,0.634,1.05,0.634,1.939v4.539H289.165z"/>
			<path fill="#FFFFFF" d="M298.246,113.067c0,1.134-0.286,2.02-0.856,2.657c-0.57,0.637-1.359,0.955-2.365,0.955
				c-0.621,0-1.172-0.146-1.654-0.438s-0.854-0.711-1.116-1.257c-0.262-0.546-0.393-1.185-0.393-1.917
				c0-1.134,0.283-2.018,0.85-2.65c0.566-0.633,1.352-0.949,2.358-0.949c0.972,0,1.745,0.324,2.317,0.971
				C297.959,111.086,298.246,111.962,298.246,113.067z M292.952,113.067c0,0.889,0.178,1.566,0.533,2.031s0.876,0.698,1.565,0.698
				s1.212-0.232,1.569-0.695c0.357-0.464,0.536-1.142,0.536-2.035c0-0.884-0.179-1.556-0.536-2.015
				c-0.357-0.459-0.885-0.689-1.582-0.689c-0.688,0-1.208,0.227-1.559,0.679C293.127,111.495,292.952,112.17,292.952,113.067z"/>
			<path fill="#FFFFFF" d="M305.634,116.552l-1.274-4.082c-0.081-0.25-0.23-0.817-0.45-1.701h-0.051
				c-0.169,0.741-0.317,1.312-0.443,1.714l-1.313,4.069h-1.217l-1.895-6.957h1.103c0.448,1.748,0.789,3.079,1.023,3.993
				c0.235,0.914,0.369,1.53,0.403,1.847h0.051c0.046-0.241,0.121-0.553,0.225-0.937c0.104-0.383,0.193-0.687,0.27-0.911l1.274-3.993
				h1.141l1.242,3.993c0.237,0.728,0.397,1.339,0.482,1.834h0.051c0.017-0.152,0.062-0.387,0.136-0.705
				c0.074-0.317,0.515-2.025,1.322-5.123h1.09l-1.921,6.957H305.634z"/>
			<path fill="#FFFFFF" d="M312.772,114.146c0-0.55,0.147-1.037,0.44-1.46c0.294-0.423,0.821-0.851,1.582-1.282
				c-0.359-0.402-0.604-0.707-0.732-0.914s-0.231-0.423-0.308-0.647c-0.076-0.224-0.114-0.457-0.114-0.698
				c0-0.635,0.207-1.13,0.621-1.485s0.991-0.533,1.73-0.533c0.685,0,1.224,0.177,1.617,0.53c0.393,0.354,0.589,0.846,0.589,1.476
				c0,0.453-0.144,0.871-0.431,1.253c-0.287,0.383-0.763,0.771-1.426,1.165l2.58,2.482c0.237-0.262,0.426-0.57,0.567-0.923
				c0.142-0.354,0.261-0.74,0.358-1.159h1.065c-0.288,1.21-0.721,2.128-1.3,2.755l1.896,1.847h-1.452l-1.173-1.13
				c-0.499,0.449-1.006,0.77-1.521,0.965c-0.516,0.195-1.09,0.292-1.725,0.292c-0.909,0-1.613-0.224-2.114-0.673
				C313.022,115.557,312.772,114.938,312.772,114.146z M315.663,115.733c1.019,0,1.864-0.326,2.536-0.978l-2.77-2.691
				c-0.469,0.288-0.801,0.526-0.995,0.714c-0.195,0.188-0.338,0.39-0.431,0.606c-0.093,0.216-0.14,0.461-0.14,0.736
				c0,0.495,0.164,0.888,0.491,1.177C314.681,115.588,315.118,115.733,315.663,115.733z M314.68,109.119
				c0,0.292,0.076,0.57,0.228,0.834c0.152,0.265,0.412,0.583,0.78,0.956c0.545-0.317,0.924-0.61,1.138-0.879
				c0.213-0.269,0.32-0.579,0.32-0.93c0-0.326-0.109-0.591-0.326-0.797c-0.218-0.205-0.508-0.308-0.872-0.308
				c-0.376,0-0.681,0.102-0.916,0.305C314.797,108.503,314.68,108.776,314.68,109.119z"/>
			<path fill="#FFFFFF" d="M326.75,109.595v4.513c0,0.567,0.129,0.99,0.387,1.27s0.662,0.419,1.211,0.419
				c0.727,0,1.258-0.199,1.594-0.597s0.504-1.047,0.504-1.949v-3.656h1.052v6.957h-0.868l-0.152-0.933h-0.057
				c-0.215,0.343-0.515,0.605-0.897,0.787s-0.819,0.273-1.309,0.273c-0.845,0-1.478-0.201-1.898-0.603s-0.631-1.045-0.631-1.93
				v-4.551H326.75z"/>
			<path fill="#FFFFFF" d="M338.329,115.619h-0.057c-0.486,0.707-1.213,1.06-2.182,1.06c-0.908,0-1.615-0.311-2.12-0.933
				c-0.505-0.622-0.757-1.506-0.757-2.653s0.253-2.038,0.761-2.672s1.213-0.952,2.117-0.952c0.943,0,1.666,0.343,2.169,1.028h0.082
				l-0.044-0.501l-0.025-0.489v-2.831h1.052v9.877h-0.855L338.329,115.619z M336.225,115.796c0.718,0,1.239-0.196,1.563-0.587
				c0.323-0.391,0.485-1.023,0.485-1.895v-0.222c0-0.986-0.164-1.689-0.491-2.111c-0.328-0.421-0.851-0.631-1.569-0.631
				c-0.617,0-1.089,0.24-1.417,0.72c-0.328,0.48-0.491,1.159-0.491,2.035c0,0.889,0.163,1.56,0.488,2.012
				C335.117,115.57,335.595,115.796,336.225,115.796z"/>
			<path fill="#FFFFFF" d="M344.361,116.679c-1.027,0-1.838-0.313-2.431-0.939c-0.595-0.626-0.891-1.496-0.891-2.609
				c0-1.122,0.275-2.012,0.827-2.672c0.551-0.66,1.292-0.99,2.222-0.99c0.87,0,1.56,0.287,2.066,0.86
				c0.507,0.573,0.761,1.33,0.761,2.269v0.667h-4.786c0.021,0.817,0.228,1.437,0.618,1.86s0.941,0.635,1.651,0.635
				c0.748,0,1.487-0.157,2.219-0.47v0.939c-0.372,0.161-0.724,0.276-1.056,0.346C345.23,116.644,344.83,116.679,344.361,116.679z
				 M344.076,110.35c-0.558,0-1.003,0.182-1.335,0.546c-0.331,0.364-0.526,0.868-0.586,1.511h3.633c0-0.665-0.148-1.173-0.444-1.527
				C345.048,110.527,344.625,110.35,344.076,110.35z"/>
			<path fill="#FFFFFF" d="M351.749,109.468c0.309,0,0.585,0.025,0.831,0.076l-0.146,0.978c-0.287-0.063-0.541-0.095-0.761-0.095
				c-0.562,0-1.043,0.229-1.442,0.686c-0.398,0.457-0.599,1.026-0.599,1.708v3.732h-1.053v-6.957h0.869l0.12,1.289h0.051
				c0.258-0.453,0.568-0.802,0.932-1.047S351.313,109.468,351.749,109.468z"/>
			<path fill="#FFFFFF" d="M358.231,114.654c0,0.647-0.241,1.147-0.723,1.498s-1.158,0.527-2.028,0.527
				c-0.922,0-1.641-0.146-2.155-0.438v-0.978c0.333,0.169,0.691,0.303,1.074,0.4c0.382,0.097,0.751,0.146,1.106,0.146
				c0.549,0,0.972-0.088,1.268-0.263c0.296-0.176,0.443-0.443,0.443-0.803c0-0.271-0.117-0.502-0.352-0.695
				c-0.234-0.193-0.692-0.42-1.372-0.683c-0.647-0.241-1.106-0.452-1.379-0.632c-0.272-0.18-0.476-0.384-0.608-0.612
				c-0.134-0.229-0.2-0.501-0.2-0.819c0-0.567,0.23-1.015,0.691-1.342c0.46-0.328,1.092-0.492,1.896-0.492
				c0.748,0,1.479,0.152,2.193,0.457l-0.374,0.857c-0.697-0.288-1.329-0.432-1.896-0.432c-0.499,0-0.875,0.078-1.129,0.235
				c-0.253,0.157-0.38,0.373-0.38,0.647c0,0.186,0.047,0.345,0.143,0.476c0.095,0.131,0.248,0.256,0.459,0.375
				c0.212,0.119,0.617,0.29,1.218,0.514c0.824,0.3,1.381,0.603,1.67,0.908C358.087,113.81,358.231,114.192,358.231,114.654z"/>
			<path fill="#FFFFFF" d="M362.057,115.809c0.187,0,0.366-0.014,0.539-0.042c0.174-0.027,0.311-0.056,0.412-0.085v0.806
				c-0.114,0.055-0.282,0.101-0.504,0.137c-0.222,0.036-0.422,0.054-0.599,0.054c-1.345,0-2.017-0.709-2.017-2.126v-4.139h-0.995
				v-0.508l0.995-0.438l0.444-1.485h0.608v1.612h2.016v0.819h-2.016v4.094c0,0.419,0.1,0.741,0.298,0.965
				S361.711,115.809,362.057,115.809z"/>
			<path fill="#FFFFFF" d="M368.539,116.552l-0.21-0.99h-0.05c-0.347,0.436-0.692,0.731-1.037,0.886
				c-0.345,0.154-0.774,0.231-1.29,0.231c-0.688,0-1.229-0.178-1.619-0.533c-0.392-0.355-0.587-0.861-0.587-1.517
				c0-1.405,1.122-2.141,3.366-2.209l1.179-0.038v-0.432c0-0.546-0.117-0.949-0.352-1.209c-0.234-0.26-0.609-0.39-1.125-0.39
				c-0.579,0-1.234,0.178-1.965,0.533l-0.323-0.806c0.342-0.186,0.717-0.332,1.125-0.438c0.407-0.106,0.816-0.159,1.227-0.159
				c0.828,0,1.442,0.184,1.842,0.552s0.599,0.958,0.599,1.771v4.748H368.539z M366.161,115.809c0.655,0,1.17-0.18,1.544-0.54
				s0.562-0.863,0.562-1.511v-0.628l-1.053,0.044c-0.837,0.03-1.44,0.16-1.81,0.391c-0.37,0.23-0.555,0.589-0.555,1.076
				c0,0.381,0.115,0.671,0.345,0.87C365.425,115.709,365.747,115.809,366.161,115.809z"/>
			<path fill="#FFFFFF" d="M376.111,116.552v-4.5c0-0.567-0.129-0.99-0.387-1.27s-0.661-0.419-1.211-0.419
				c-0.727,0-1.259,0.197-1.598,0.59c-0.338,0.394-0.507,1.043-0.507,1.949v3.65h-1.053v-6.957h0.856l0.171,0.952h0.051
				c0.216-0.343,0.518-0.608,0.906-0.797c0.389-0.188,0.822-0.282,1.3-0.282c0.837,0,1.467,0.202,1.889,0.606
				c0.423,0.404,0.635,1.05,0.635,1.939v4.539H376.111z"/>
			<path fill="#FFFFFF" d="M383.925,115.619h-0.057c-0.486,0.707-1.213,1.06-2.181,1.06c-0.909,0-1.616-0.311-2.121-0.933
				s-0.757-1.506-0.757-2.653s0.253-2.038,0.76-2.672c0.508-0.635,1.213-0.952,2.118-0.952c0.942,0,1.665,0.343,2.168,1.028h0.082
				l-0.044-0.501l-0.025-0.489v-2.831h1.052v9.877h-0.855L383.925,115.619z M381.82,115.796c0.719,0,1.239-0.196,1.563-0.587
				c0.323-0.391,0.485-1.023,0.485-1.895v-0.222c0-0.986-0.164-1.689-0.491-2.111c-0.328-0.421-0.851-0.631-1.569-0.631
				c-0.617,0-1.09,0.24-1.417,0.72c-0.327,0.48-0.491,1.159-0.491,2.035c0,0.889,0.163,1.56,0.488,2.012
				S381.19,115.796,381.82,115.796z"/>
			<path fill="#FFFFFF" d="M302.97,122.42h1.128l1.521,3.967c0.333,0.906,0.541,1.56,0.621,1.961h0.051
				c0.055-0.216,0.17-0.585,0.345-1.107c0.176-0.523,0.749-2.13,1.721-4.821h1.128l-2.986,7.922
				c-0.296,0.783-0.641,1.338-1.036,1.666c-0.396,0.328-0.88,0.492-1.455,0.492c-0.321,0-0.638-0.036-0.951-0.108v-0.844
				c0.232,0.051,0.492,0.076,0.78,0.076c0.723,0,1.238-0.406,1.546-1.219l0.387-0.99L302.97,122.42z"/>
			<path fill="#FFFFFF" d="M316.482,125.892c0,1.134-0.286,2.02-0.856,2.657c-0.57,0.637-1.359,0.955-2.365,0.955
				c-0.621,0-1.172-0.146-1.654-0.438s-0.854-0.711-1.116-1.257c-0.262-0.546-0.393-1.185-0.393-1.917
				c0-1.134,0.283-2.018,0.85-2.65c0.566-0.633,1.352-0.949,2.358-0.949c0.972,0,1.745,0.324,2.317,0.971
				C316.195,123.912,316.482,124.788,316.482,125.892z M311.188,125.892c0,0.889,0.178,1.566,0.533,2.031s0.876,0.698,1.565,0.698
				s1.212-0.232,1.569-0.695c0.357-0.464,0.536-1.142,0.536-2.035c0-0.884-0.179-1.556-0.536-2.015
				c-0.357-0.459-0.885-0.689-1.582-0.689c-0.688,0-1.208,0.227-1.559,0.679C311.364,124.32,311.188,124.995,311.188,125.892z"/>
			<path fill="#FFFFFF" d="M319.186,122.42v4.513c0,0.567,0.129,0.99,0.387,1.27s0.662,0.419,1.211,0.419
				c0.727,0,1.258-0.199,1.594-0.597s0.504-1.047,0.504-1.949v-3.656h1.052v6.957h-0.868l-0.152-0.933h-0.057
				c-0.215,0.343-0.515,0.605-0.897,0.787s-0.819,0.273-1.309,0.273c-0.845,0-1.478-0.201-1.898-0.603s-0.631-1.045-0.631-1.93
				v-4.551H319.186z"/>
			<path fill="#FFFFFF" d="M329.205,122.293c0.309,0,0.585,0.025,0.831,0.076l-0.146,0.978c-0.287-0.063-0.541-0.095-0.76-0.095
				c-0.563,0-1.043,0.229-1.442,0.686s-0.599,1.026-0.599,1.708v3.732h-1.052v-6.957h0.869l0.12,1.289h0.051
				c0.258-0.453,0.568-0.802,0.932-1.047C328.37,122.416,328.77,122.293,329.205,122.293z"/>
			<path fill="#FFFFFF" d="M335.437,122.42v4.513c0,0.567,0.129,0.99,0.387,1.27s0.662,0.419,1.211,0.419
				c0.727,0,1.258-0.199,1.595-0.597c0.336-0.398,0.504-1.047,0.504-1.949v-3.656h1.052v6.957h-0.868l-0.152-0.933h-0.057
				c-0.216,0.343-0.515,0.605-0.897,0.787s-0.818,0.273-1.309,0.273c-0.846,0-1.479-0.201-1.899-0.603s-0.631-1.045-0.631-1.93
				v-4.551H335.437z"/>
			<path fill="#FFFFFF" d="M346.769,127.479c0,0.647-0.241,1.147-0.723,1.498s-1.158,0.527-2.028,0.527
				c-0.922,0-1.641-0.146-2.155-0.438v-0.978c0.333,0.169,0.691,0.303,1.074,0.4c0.382,0.097,0.751,0.146,1.106,0.146
				c0.549,0,0.972-0.088,1.268-0.263c0.296-0.176,0.443-0.443,0.443-0.803c0-0.271-0.117-0.502-0.352-0.695
				c-0.234-0.193-0.692-0.42-1.372-0.683c-0.647-0.241-1.106-0.452-1.379-0.632c-0.272-0.18-0.476-0.384-0.608-0.612
				c-0.134-0.229-0.2-0.501-0.2-0.819c0-0.567,0.23-1.015,0.691-1.342c0.46-0.328,1.092-0.492,1.896-0.492
				c0.748,0,1.479,0.152,2.193,0.457l-0.374,0.857c-0.697-0.288-1.329-0.432-1.896-0.432c-0.499,0-0.875,0.078-1.129,0.235
				c-0.253,0.157-0.38,0.373-0.38,0.647c0,0.186,0.047,0.345,0.143,0.476c0.095,0.131,0.248,0.256,0.459,0.375
				c0.212,0.119,0.617,0.29,1.218,0.514c0.824,0.3,1.381,0.603,1.67,0.908C346.624,126.635,346.769,127.018,346.769,127.479z"/>
			<path fill="#FFFFFF" d="M351.285,129.504c-1.027,0-1.838-0.313-2.431-0.939c-0.595-0.626-0.891-1.496-0.891-2.609
				c0-1.122,0.275-2.012,0.827-2.672c0.551-0.66,1.292-0.99,2.222-0.99c0.87,0,1.56,0.287,2.066,0.86
				c0.507,0.573,0.761,1.33,0.761,2.269v0.667h-4.786c0.021,0.817,0.228,1.437,0.618,1.86s0.941,0.635,1.651,0.635
				c0.748,0,1.487-0.157,2.219-0.47v0.939c-0.372,0.161-0.724,0.276-1.056,0.346C352.154,129.469,351.754,129.504,351.285,129.504z
				 M351,123.175c-0.558,0-1.003,0.182-1.335,0.546c-0.331,0.364-0.526,0.868-0.586,1.511h3.633c0-0.665-0.148-1.173-0.444-1.527
				C351.972,123.352,351.549,123.175,351,123.175z"/>
			<path fill="#FFFFFF" d="M358.673,122.293c0.309,0,0.585,0.025,0.831,0.076l-0.146,0.978c-0.287-0.063-0.541-0.095-0.761-0.095
				c-0.562,0-1.043,0.229-1.442,0.686c-0.398,0.457-0.599,1.026-0.599,1.708v3.732h-1.053v-6.957h0.869l0.12,1.289h0.051
				c0.258-0.453,0.568-0.802,0.932-1.047S358.237,122.293,358.673,122.293z"/>
		</g>
	</g>
	<path fill="#FC611F" d="M616.985,312.266c-40.221,22.159-90.766,7.472-112.895-32.803c-22.129-40.274-7.465-90.886,32.756-113.045
		s90.766-7.473,112.895,32.802C671.87,239.493,657.204,290.107,616.985,312.266z"/>
	<path fill="#F3AC1E" d="M135.07,577.766c-40.221,22.158-90.766,7.471-112.896-32.803c-22.129-40.273-7.463-90.889,32.758-113.047
		s90.767-7.471,112.896,32.803C189.957,504.995,175.291,555.608,135.07,577.766z"/>
	<path fill="#8DC63F" d="M54.932,312.266c40.221,22.159,90.766,7.472,112.896-32.803c22.129-40.274,7.464-90.886-32.758-113.045
		c-40.22-22.159-90.766-7.473-112.895,32.802C0.046,239.493,14.712,290.107,54.932,312.266z"/>
	<path fill="#D1B0CF" d="M536.847,577.766c40.221,22.158,90.766,7.471,112.895-32.803c22.131-40.273,7.465-90.889-32.756-113.047
		s-90.768-7.471-112.895,32.803C481.962,504.995,496.626,555.608,536.847,577.766z"/>
	<g>
		<g>
			<path fill="#FFFFFF" d="M559.463,226.505v-14.277h2.331v14.277H559.463z"/>
			<path fill="#FFFFFF" d="M574.204,226.505l-1.424-3.965h-5.451l-1.395,3.965h-2.458l5.335-14.336h2.535l5.335,14.336H574.204z
				 M572.166,220.528l-1.336-3.887c-0.098-0.26-0.232-0.67-0.404-1.23c-0.173-0.56-0.292-0.97-0.356-1.23
				c-0.176,0.801-0.433,1.676-0.771,2.627l-1.287,3.721H572.166z"/>
			<path fill="#FFFFFF" d="M582.407,222.726c0-0.853,0.208-1.597,0.624-2.231s1.167-1.265,2.253-1.89
				c-0.618-0.723-1.039-1.333-1.263-1.831c-0.225-0.498-0.337-1.014-0.337-1.548c0-0.99,0.353-1.771,1.059-2.344
				c0.705-0.573,1.652-0.859,2.843-0.859c1.15,0,2.054,0.278,2.711,0.835c0.656,0.557,0.985,1.307,0.985,2.251
				c0,0.742-0.22,1.416-0.658,2.021c-0.439,0.605-1.173,1.211-2.199,1.816l3.374,3.262c0.526-0.697,0.966-1.719,1.316-3.066h2.36
				c-0.455,1.849-1.184,3.356-2.185,4.521l2.936,2.842h-2.955l-1.453-1.416c-0.663,0.534-1.37,0.936-2.121,1.206
				s-1.582,0.405-2.492,0.405c-1.495,0-2.669-0.355-3.521-1.064S582.407,223.956,582.407,222.726z M587.322,224.728
				c1.189,0,2.207-0.348,3.053-1.045l-3.735-3.682c-0.689,0.443-1.164,0.858-1.424,1.245s-0.391,0.829-0.391,1.323
				c0,0.638,0.227,1.157,0.679,1.558C585.955,224.527,586.562,224.728,587.322,224.728z M585.869,215.304
				c0,0.41,0.108,0.797,0.327,1.162c0.218,0.365,0.521,0.752,0.911,1.162c0.735-0.417,1.25-0.806,1.546-1.167
				s0.444-0.767,0.444-1.216c0-0.423-0.142-0.762-0.425-1.016c-0.282-0.254-0.658-0.381-1.126-0.381
				c-0.514,0-0.922,0.132-1.225,0.396C586.021,214.508,585.869,214.861,585.869,215.304z"/>
			<path fill="#FFFFFF" d="M532.318,250.505h-2.536l-2.419-8.516c-0.104-0.371-0.233-0.907-0.39-1.606s-0.251-1.187-0.283-1.46
				c-0.064,0.417-0.171,0.957-0.316,1.621c-0.146,0.664-0.269,1.159-0.366,1.484l-2.36,8.477h-2.535l-1.844-7.148l-1.872-7.129h2.38
				l2.038,8.32c0.318,1.334,0.546,2.513,0.683,3.535c0.071-0.553,0.179-1.172,0.321-1.855c0.144-0.684,0.273-1.237,0.391-1.66
				l2.321-8.34h2.312l2.379,8.379c0.228,0.775,0.469,1.934,0.722,3.477c0.098-0.931,0.332-2.116,0.702-3.555l2.029-8.301h2.359
				L532.318,250.505z"/>
			<path fill="#FFFFFF" d="M537.853,250.505v-14.277h2.331v14.277H537.853z"/>
			<path fill="#FFFFFF" d="M546.079,244.802v5.703h-2.331v-14.277h4.028c1.84,0,3.202,0.345,4.086,1.035
				c0.885,0.69,1.327,1.732,1.327,3.125c0,1.777-0.924,3.043-2.771,3.799l4.028,6.318h-2.653l-3.413-5.703H546.079z
				 M546.079,242.868h1.619c1.086,0,1.873-0.202,2.36-0.605s0.731-1.002,0.731-1.797c0-0.807-0.264-1.387-0.79-1.738
				s-1.32-0.527-2.38-0.527h-1.541V242.868z"/>
			<path fill="#FFFFFF" d="M564.38,250.505h-8.065v-14.277h8.065v1.973h-5.734v3.887h5.374v1.953h-5.374v4.482h5.734V250.505z"/>
			<path fill="#FFFFFF" d="M569.574,250.505h-2.312v-14.277h8.046v1.973h-5.734v4.463h5.374v1.982h-5.374V250.505z"/>
			<path fill="#FFFFFF" d="M580.024,244.802v5.703h-2.331v-14.277h4.028c1.84,0,3.202,0.345,4.086,1.035
				c0.885,0.69,1.327,1.732,1.327,3.125c0,1.777-0.924,3.043-2.771,3.799l4.028,6.318h-2.653l-3.413-5.703H580.024z
				 M580.024,242.868h1.619c1.086,0,1.873-0.202,2.36-0.605s0.731-1.002,0.731-1.797c0-0.807-0.264-1.387-0.79-1.738
				s-1.32-0.527-2.38-0.527h-1.541V242.868z"/>
			<path fill="#FFFFFF" d="M599.105,250.505l-1.424-3.965h-5.451l-1.395,3.965h-2.458l5.335-14.336h2.535l5.335,14.336H599.105z
				 M597.067,244.528l-1.336-3.887c-0.098-0.26-0.232-0.67-0.404-1.23c-0.173-0.56-0.292-0.97-0.356-1.23
				c-0.176,0.801-0.433,1.676-0.771,2.627l-1.287,3.721H597.067z"/>
			<path fill="#FFFFFF" d="M609.429,250.505l-4.135-11.924h-0.078c0.11,1.771,0.166,3.431,0.166,4.98v6.943h-2.117v-14.277h3.287
				l3.96,11.357h0.058l4.077-11.357h3.296v14.277h-2.243v-7.061c0-0.709,0.019-1.634,0.054-2.773c0.036-1.139,0.067-1.83,0.093-2.07
				h-0.078l-4.281,11.904H609.429z"/>
			<path fill="#FFFFFF" d="M629.563,250.505h-8.065v-14.277h8.065v1.973h-5.734v3.887h5.374v1.953h-5.374v4.482h5.734V250.505z"/>
			<path fill="#FFFFFF" d="M640.667,246.628c0,1.27-0.458,2.266-1.375,2.988s-2.182,1.084-3.794,1.084s-2.932-0.25-3.959-0.752
				v-2.207c0.649,0.306,1.341,0.547,2.072,0.723s1.412,0.264,2.043,0.264c0.923,0,1.604-0.176,2.043-0.527
				c0.439-0.352,0.658-0.824,0.658-1.416c0-0.534-0.201-0.986-0.604-1.357s-1.235-0.811-2.496-1.318
				c-1.301-0.527-2.218-1.129-2.751-1.807s-0.8-1.491-0.8-2.441c0-1.191,0.423-2.129,1.269-2.813
				c0.845-0.684,1.979-1.025,3.403-1.025c1.365,0,2.725,0.299,4.077,0.898l-0.741,1.904c-1.269-0.534-2.399-0.801-3.395-0.801
				c-0.754,0-1.326,0.165-1.717,0.493c-0.39,0.329-0.585,0.763-0.585,1.304c0,0.371,0.078,0.688,0.234,0.952
				s0.413,0.513,0.771,0.747s1.001,0.543,1.931,0.928c1.047,0.436,1.814,0.843,2.302,1.221s0.846,0.804,1.073,1.279
				S640.667,245.983,640.667,246.628z"/>
		</g>
	</g>
	<g>
		<g>
			<path fill="#FFFFFF" d="M554.712,263.14c0,0.939-0.32,1.662-0.96,2.168c-0.641,0.505-1.557,0.758-2.748,0.758h-1.091v3.65h-1.077
				v-9.28h2.402C553.554,260.436,554.712,261.337,554.712,263.14z M549.913,265.139h0.97c0.955,0,1.646-0.154,2.073-0.463
				s0.641-0.804,0.641-1.485c0-0.614-0.201-1.071-0.603-1.371s-1.027-0.451-1.876-0.451h-1.205V265.139z"/>
			<path fill="#FFFFFF" d="M559.533,262.632c0.309,0,0.585,0.025,0.831,0.076l-0.146,0.978c-0.287-0.063-0.541-0.095-0.761-0.095
				c-0.562,0-1.043,0.229-1.442,0.686c-0.398,0.457-0.599,1.026-0.599,1.708v3.732h-1.053v-6.957h0.869l0.12,1.289h0.051
				c0.258-0.453,0.568-0.802,0.932-1.047S559.098,262.632,559.533,262.632z"/>
			<path fill="#FFFFFF" d="M567.53,266.231c0,1.134-0.285,2.02-0.855,2.657c-0.57,0.637-1.358,0.955-2.364,0.955
				c-0.621,0-1.173-0.146-1.655-0.438c-0.481-0.292-0.854-0.711-1.115-1.257s-0.393-1.185-0.393-1.917
				c0-1.134,0.282-2.018,0.849-2.65c0.566-0.633,1.353-0.949,2.358-0.949c0.972,0,1.744,0.324,2.317,0.971
				C567.244,264.25,567.53,265.126,567.53,266.231z M562.237,266.231c0,0.889,0.178,1.566,0.532,2.031
				c0.355,0.465,0.877,0.698,1.566,0.698c0.688,0,1.212-0.232,1.568-0.695c0.357-0.464,0.536-1.142,0.536-2.035
				c0-0.884-0.179-1.556-0.536-2.015c-0.356-0.459-0.884-0.689-1.581-0.689c-0.689,0-1.209,0.227-1.56,0.679
				S562.237,265.334,562.237,266.231z"/>
			<path fill="#FFFFFF" d="M571.489,268.973c0.187,0,0.366-0.014,0.539-0.042c0.174-0.027,0.311-0.056,0.412-0.085v0.806
				c-0.114,0.055-0.282,0.101-0.504,0.137c-0.222,0.036-0.422,0.054-0.599,0.054c-1.345,0-2.017-0.709-2.017-2.126v-4.139h-0.995
				v-0.508l0.995-0.438l0.444-1.485h0.608v1.612h2.016v0.819h-2.016v4.094c0,0.419,0.1,0.741,0.298,0.965
				S571.144,268.973,571.489,268.973z"/>
			<path fill="#FFFFFF" d="M579.695,266.231c0,1.134-0.285,2.02-0.855,2.657c-0.57,0.637-1.358,0.955-2.364,0.955
				c-0.621,0-1.173-0.146-1.655-0.438c-0.481-0.292-0.854-0.711-1.115-1.257s-0.393-1.185-0.393-1.917
				c0-1.134,0.282-2.018,0.849-2.65c0.566-0.633,1.353-0.949,2.358-0.949c0.972,0,1.744,0.324,2.317,0.971
				C579.409,264.25,579.695,265.126,579.695,266.231z M574.402,266.231c0,0.889,0.178,1.566,0.532,2.031
				c0.355,0.465,0.877,0.698,1.566,0.698c0.688,0,1.212-0.232,1.568-0.695c0.357-0.464,0.536-1.142,0.536-2.035
				c0-0.884-0.179-1.556-0.536-2.015c-0.356-0.459-0.884-0.689-1.581-0.689c-0.689,0-1.209,0.227-1.56,0.679
				S574.402,265.334,574.402,266.231z"/>
			<path fill="#FFFFFF" d="M583.654,268.973c0.187,0,0.366-0.014,0.539-0.042c0.174-0.027,0.311-0.056,0.412-0.085v0.806
				c-0.114,0.055-0.282,0.101-0.504,0.137c-0.222,0.036-0.422,0.054-0.599,0.054c-1.345,0-2.017-0.709-2.017-2.126v-4.139h-0.995
				v-0.508l0.995-0.438l0.444-1.485h0.608v1.612h2.016v0.819h-2.016v4.094c0,0.419,0.1,0.741,0.298,0.965
				S583.309,268.973,583.654,268.973z"/>
			<path fill="#FFFFFF" d="M584.761,262.759h1.128l1.521,3.967c0.334,0.906,0.541,1.56,0.622,1.961h0.05
				c0.056-0.216,0.171-0.585,0.346-1.107c0.176-0.523,0.749-2.13,1.722-4.821h1.128l-2.985,7.922
				c-0.296,0.783-0.642,1.338-1.037,1.666c-0.395,0.328-0.88,0.492-1.454,0.492c-0.321,0-0.639-0.036-0.951-0.108v-0.844
				c0.232,0.051,0.492,0.076,0.779,0.076c0.723,0,1.238-0.406,1.547-1.219l0.387-0.99L584.761,262.759z"/>
			<path fill="#FFFFFF" d="M595.509,269.843c-0.452,0-0.865-0.083-1.239-0.251c-0.374-0.167-0.688-0.424-0.941-0.771h-0.076
				c0.051,0.406,0.076,0.792,0.076,1.155v2.863h-1.053v-10.08h0.856l0.146,0.952h0.051c0.271-0.381,0.585-0.656,0.944-0.825
				s0.771-0.254,1.236-0.254c0.921,0,1.633,0.315,2.133,0.946c0.501,0.63,0.752,1.515,0.752,2.653c0,1.143-0.255,2.03-0.765,2.663
				C597.12,269.526,596.413,269.843,595.509,269.843z M595.356,263.527c-0.71,0-1.224,0.197-1.54,0.59
				c-0.317,0.394-0.479,1.02-0.488,1.879v0.235c0,0.978,0.163,1.677,0.488,2.098c0.325,0.421,0.847,0.631,1.565,0.631
				c0.601,0,1.07-0.243,1.411-0.73c0.34-0.487,0.51-1.157,0.51-2.012c0-0.868-0.17-1.533-0.51-1.997
				C596.452,263.759,595.974,263.527,595.356,263.527z"/>
			<path fill="#FFFFFF" d="M603.037,269.843c-1.027,0-1.838-0.313-2.431-0.939c-0.595-0.626-0.891-1.496-0.891-2.609
				c0-1.122,0.275-2.012,0.827-2.672c0.551-0.66,1.292-0.99,2.222-0.99c0.87,0,1.56,0.287,2.066,0.86
				c0.507,0.573,0.761,1.33,0.761,2.269v0.667h-4.786c0.021,0.817,0.228,1.437,0.618,1.86s0.941,0.635,1.651,0.635
				c0.748,0,1.487-0.157,2.219-0.47v0.939c-0.372,0.161-0.724,0.276-1.056,0.346C603.906,269.808,603.506,269.843,603.037,269.843z
				 M602.752,263.514c-0.558,0-1.003,0.182-1.335,0.546c-0.331,0.364-0.526,0.868-0.586,1.511h3.633
				c0-0.665-0.148-1.173-0.444-1.527C603.724,263.691,603.301,263.514,602.752,263.514z"/>
		</g>
	</g>
	<g>
		<g>
			<path fill="#FFFFFF" d="M30.309,226.505v-14.277h2.331v14.277H30.309z"/>
			<path fill="#FFFFFF" d="M48.083,226.505h-2.857l-7.012-11.377h-0.078l0.048,0.635c0.091,1.211,0.137,2.318,0.137,3.32v7.422
				h-2.116v-14.277h2.828l6.993,11.318h0.059c-0.013-0.15-0.039-0.695-0.078-1.636s-0.059-1.675-0.059-2.202v-7.48h2.136V226.505z"
				/>
			<path fill="#FFFFFF" d="M56.573,226.505h-2.331v-12.275h-4.194v-2.002h10.718v2.002h-4.194V226.505z"/>
			<path fill="#FFFFFF" d="M70.817,226.505h-8.065v-14.277h8.065v1.973h-5.734v3.887h5.374v1.953h-5.374v4.482h5.734V226.505z"/>
			<path fill="#FFFFFF" d="M79.531,218.761h5.247v7.168c-0.858,0.28-1.683,0.479-2.473,0.596c-0.79,0.117-1.643,0.176-2.56,0.176
				c-2.159,0-3.823-0.64-4.993-1.919s-1.755-3.084-1.755-5.415c0-2.298,0.66-4.097,1.979-5.396s3.137-1.948,5.452-1.948
				c1.489,0,2.899,0.287,4.232,0.859l-0.819,1.943c-1.157-0.534-2.314-0.801-3.472-0.801c-1.521,0-2.725,0.479-3.608,1.436
				c-0.885,0.957-1.327,2.266-1.327,3.926c0,1.745,0.398,3.071,1.195,3.979s1.942,1.362,3.438,1.362c0.754,0,1.56-0.094,2.418-0.283
				v-3.682h-2.955V218.761z"/>
			<path fill="#FFFFFF" d="M90.333,220.802v5.703h-2.331v-14.277h4.028c1.84,0,3.202,0.345,4.086,1.035
				c0.884,0.69,1.326,1.732,1.326,3.125c0,1.777-0.923,3.043-2.77,3.799l4.028,6.318h-2.653l-3.414-5.703H90.333z M90.333,218.868
				h1.619c1.086,0,1.873-0.202,2.36-0.605c0.487-0.404,0.731-1.002,0.731-1.797c0-0.807-0.264-1.387-0.79-1.738
				c-0.527-0.352-1.32-0.527-2.38-0.527h-1.541V218.868z"/>
			<path fill="#FFFFFF" d="M109.414,226.505l-1.424-3.965h-5.452l-1.395,3.965h-2.458l5.334-14.336h2.536l5.334,14.336H109.414z
				 M107.375,220.528l-1.336-3.887c-0.098-0.26-0.232-0.67-0.405-1.23s-0.291-0.97-0.356-1.23c-0.175,0.801-0.433,1.676-0.771,2.627
				l-1.287,3.721H107.375z"/>
			<path fill="#FFFFFF" d="M118.498,226.505h-2.331v-12.275h-4.194v-2.002h10.718v2.002h-4.194V226.505z"/>
			<path fill="#FFFFFF" d="M124.677,226.505v-14.277h2.331v14.277H124.677z"/>
			<path fill="#FFFFFF" d="M143.231,219.347c0,2.324-0.58,4.131-1.741,5.42s-2.804,1.934-4.93,1.934
				c-2.152,0-3.806-0.64-4.959-1.919c-1.154-1.279-1.731-3.097-1.731-5.454s0.58-4.167,1.741-5.43s2.817-1.895,4.969-1.895
				c2.12,0,3.758,0.641,4.916,1.924S143.231,217.016,143.231,219.347z M132.347,219.347c0,1.758,0.354,3.091,1.063,3.999
				s1.759,1.362,3.15,1.362c1.385,0,2.43-0.449,3.135-1.348s1.058-2.236,1.058-4.014c0-1.751-0.35-3.08-1.048-3.984
				c-0.699-0.905-1.741-1.357-3.126-1.357c-1.398,0-2.453,0.453-3.165,1.357S132.347,217.595,132.347,219.347z"/>
			<path fill="#FFFFFF" d="M157.972,226.505h-2.857l-7.012-11.377h-0.078l0.048,0.635c0.091,1.211,0.137,2.318,0.137,3.32v7.422
				h-2.116v-14.277h2.828l6.993,11.318h0.059c-0.013-0.15-0.039-0.695-0.078-1.636s-0.059-1.675-0.059-2.202v-7.48h2.136V226.505z"
				/>
			<path fill="#FFFFFF" d="M59.757,246.628c0,1.27-0.458,2.266-1.375,2.988c-0.917,0.723-2.181,1.084-3.793,1.084
				c-1.613,0-2.933-0.25-3.96-0.752v-2.207c0.65,0.306,1.341,0.547,2.073,0.723s1.412,0.264,2.043,0.264
				c0.923,0,1.604-0.176,2.043-0.527c0.438-0.352,0.658-0.824,0.658-1.416c0-0.534-0.202-0.986-0.605-1.357
				c-0.403-0.371-1.235-0.811-2.497-1.318c-1.3-0.527-2.217-1.129-2.75-1.807c-0.533-0.677-0.8-1.491-0.8-2.441
				c0-1.191,0.422-2.129,1.268-2.813s1.98-1.025,3.404-1.025c1.365,0,2.724,0.299,4.077,0.898l-0.741,1.904
				c-1.268-0.534-2.399-0.801-3.394-0.801c-0.754,0-1.326,0.165-1.716,0.493s-0.585,0.763-0.585,1.304
				c0,0.371,0.078,0.688,0.234,0.952s0.413,0.513,0.771,0.747c0.357,0.234,1.001,0.543,1.931,0.928
				c1.046,0.436,1.814,0.843,2.301,1.221c0.488,0.377,0.845,0.804,1.073,1.279S59.757,245.983,59.757,246.628z"/>
			<path fill="#FFFFFF" d="M73.494,236.228v9.238c0,1.055-0.226,1.978-0.678,2.769c-0.452,0.791-1.105,1.4-1.96,1.826
				c-0.855,0.426-1.877,0.64-3.067,0.64c-1.769,0-3.144-0.469-4.125-1.406s-1.473-2.227-1.473-3.867v-9.199h2.341v9.033
				c0,1.178,0.273,2.047,0.819,2.607c0.546,0.56,1.385,0.84,2.516,0.84c2.197,0,3.296-1.156,3.296-3.467v-9.014H73.494z"/>
			<path fill="#FFFFFF" d="M86.382,240.544c0,1.491-0.488,2.633-1.463,3.428s-2.363,1.191-4.165,1.191h-1.482v5.342h-2.331v-14.277
				h4.106c1.781,0,3.116,0.365,4.003,1.094C85.938,238.05,86.382,239.125,86.382,240.544z M79.273,243.2h1.238
				c1.196,0,2.074-0.208,2.633-0.625s0.839-1.068,0.839-1.953c0-0.82-0.25-1.432-0.751-1.836c-0.501-0.404-1.281-0.605-2.341-0.605
				h-1.619V243.2z"/>
			<path fill="#FFFFFF" d="M98.471,240.544c0,1.491-0.488,2.633-1.463,3.428s-2.363,1.191-4.165,1.191h-1.482v5.342H89.03v-14.277
				h4.106c1.781,0,3.116,0.365,4.003,1.094C98.027,238.05,98.471,239.125,98.471,240.544z M91.361,243.2H92.6
				c1.196,0,2.074-0.208,2.633-0.625s0.839-1.068,0.839-1.953c0-0.82-0.25-1.432-0.751-1.836c-0.501-0.404-1.281-0.605-2.341-0.605
				h-1.619V243.2z"/>
			<path fill="#FFFFFF" d="M113.777,243.347c0,2.324-0.58,4.131-1.741,5.42s-2.804,1.934-4.93,1.934
				c-2.152,0-3.806-0.64-4.959-1.919c-1.154-1.279-1.731-3.097-1.731-5.454s0.58-4.167,1.741-5.43s2.817-1.895,4.969-1.895
				c2.12,0,3.758,0.641,4.916,1.924S113.777,241.016,113.777,243.347z M102.894,243.347c0,1.758,0.354,3.091,1.063,3.999
				s1.759,1.362,3.15,1.362c1.385,0,2.43-0.449,3.135-1.348s1.058-2.236,1.058-4.014c0-1.751-0.35-3.08-1.048-3.984
				c-0.699-0.905-1.741-1.357-3.126-1.357c-1.398,0-2.453,0.453-3.165,1.357S102.894,241.595,102.894,243.347z"/>
			<path fill="#FFFFFF" d="M118.971,244.802v5.703h-2.331v-14.277h4.028c1.84,0,3.202,0.345,4.086,1.035
				c0.884,0.69,1.326,1.732,1.326,3.125c0,1.777-0.923,3.043-2.77,3.799l4.028,6.318h-2.653l-3.414-5.703H118.971z M118.971,242.868
				h1.619c1.086,0,1.873-0.202,2.36-0.605c0.487-0.404,0.731-1.002,0.731-1.797c0-0.807-0.264-1.387-0.79-1.738
				c-0.527-0.352-1.32-0.527-2.38-0.527h-1.541V242.868z"/>
			<path fill="#FFFFFF" d="M134.132,250.505h-2.331v-12.275h-4.194v-2.002h10.718v2.002h-4.194V250.505z"/>
		</g>
	</g>
	<g>
		<g>
			<path fill="#FFFFFF" d="M35.334,269.716h-1.078v-8.322h-2.935v-0.958h6.948v0.958h-2.935V269.716z"/>
			<path fill="#FFFFFF" d="M42.311,269.843c-1.027,0-1.837-0.313-2.431-0.939s-0.891-1.496-0.891-2.609
				c0-1.122,0.276-2.012,0.827-2.672c0.552-0.66,1.292-0.99,2.222-0.99c0.871,0,1.559,0.287,2.066,0.86
				c0.507,0.573,0.761,1.33,0.761,2.269v0.667h-4.786c0.021,0.817,0.227,1.437,0.618,1.86c0.391,0.423,0.941,0.635,1.651,0.635
				c0.748,0,1.487-0.157,2.219-0.47v0.939c-0.372,0.161-0.724,0.276-1.056,0.346C43.18,269.808,42.78,269.843,42.311,269.843z
				 M42.025,263.515c-0.558,0-1.003,0.182-1.334,0.546c-0.332,0.364-0.527,0.868-0.586,1.511h3.632c0-0.665-0.148-1.173-0.444-1.527
				C42.997,263.691,42.575,263.515,42.025,263.515z"/>
			<path fill="#FFFFFF" d="M49.306,269.843c-1.006,0-1.784-0.31-2.336-0.93c-0.551-0.62-0.827-1.497-0.827-2.631
				c0-1.164,0.28-2.063,0.84-2.698s1.358-0.952,2.393-0.952c0.334,0,0.668,0.036,1.001,0.108c0.334,0.072,0.596,0.157,0.786,0.254
				l-0.323,0.895c-0.232-0.093-0.486-0.17-0.761-0.231c-0.274-0.062-0.518-0.092-0.729-0.092c-1.412,0-2.117,0.901-2.117,2.704
				c0,0.855,0.172,1.511,0.517,1.968s0.855,0.686,1.531,0.686c0.579,0,1.173-0.125,1.782-0.375v0.933
				C50.597,269.723,50.012,269.843,49.306,269.843z"/>
			<path fill="#FFFFFF" d="M57.334,269.716v-4.5c0-0.567-0.129-0.99-0.387-1.27s-0.662-0.419-1.211-0.419
				c-0.731,0-1.265,0.199-1.601,0.597s-0.504,1.049-0.504,1.955v3.637H52.58v-9.877h1.052v2.99c0,0.36-0.017,0.658-0.051,0.895
				h0.063c0.207-0.334,0.502-0.598,0.884-0.79c0.382-0.193,0.819-0.289,1.309-0.289c0.85,0,1.487,0.202,1.911,0.606
				c0.425,0.404,0.637,1.046,0.637,1.926v4.539H57.334z"/>
			<path fill="#FFFFFF" d="M65.173,269.716v-4.5c0-0.567-0.129-0.99-0.387-1.27s-0.662-0.419-1.211-0.419
				c-0.727,0-1.259,0.197-1.597,0.59c-0.338,0.394-0.507,1.043-0.507,1.949v3.65h-1.052v-6.957h0.856l0.171,0.952h0.051
				c0.215-0.343,0.518-0.608,0.907-0.797c0.389-0.188,0.822-0.282,1.299-0.282c0.837,0,1.466,0.202,1.889,0.606
				c0.422,0.404,0.634,1.05,0.634,1.939v4.539H65.173z"/>
			<path fill="#FFFFFF" d="M68.168,260.874c0-0.241,0.059-0.418,0.178-0.53c0.118-0.112,0.266-0.168,0.444-0.168
				c0.169,0,0.314,0.057,0.437,0.171s0.184,0.29,0.184,0.527s-0.062,0.414-0.184,0.53c-0.123,0.117-0.268,0.175-0.437,0.175
				c-0.178,0-0.326-0.058-0.444-0.175C68.228,261.288,68.168,261.111,68.168,260.874z M69.31,269.716h-1.052v-6.957h1.052V269.716z"
				/>
			<path fill="#FFFFFF" d="M74.188,269.843c-1.006,0-1.784-0.31-2.336-0.93c-0.551-0.62-0.827-1.497-0.827-2.631
				c0-1.164,0.28-2.063,0.84-2.698s1.358-0.952,2.393-0.952c0.334,0,0.668,0.036,1.001,0.108c0.334,0.072,0.596,0.157,0.786,0.254
				l-0.323,0.895c-0.232-0.093-0.486-0.17-0.761-0.231c-0.274-0.062-0.518-0.092-0.729-0.092c-1.412,0-2.117,0.901-2.117,2.704
				c0,0.855,0.172,1.511,0.517,1.968s0.855,0.686,1.531,0.686c0.579,0,1.173-0.125,1.782-0.375v0.933
				C75.479,269.723,74.894,269.843,74.188,269.843z"/>
			<path fill="#FFFFFF" d="M81.734,269.716l-0.209-0.99h-0.051c-0.347,0.436-0.692,0.731-1.037,0.886
				c-0.344,0.154-0.774,0.231-1.29,0.231c-0.688,0-1.229-0.178-1.62-0.533c-0.391-0.355-0.586-0.861-0.586-1.517
				c0-1.405,1.122-2.141,3.366-2.209l1.179-0.038v-0.432c0-0.546-0.117-0.949-0.352-1.209c-0.234-0.26-0.609-0.39-1.125-0.39
				c-0.579,0-1.234,0.178-1.965,0.533l-0.323-0.806c0.342-0.186,0.717-0.332,1.125-0.438c0.408-0.106,0.816-0.159,1.227-0.159
				c0.828,0,1.442,0.184,1.841,0.552s0.599,0.958,0.599,1.771v4.748H81.734z M79.357,268.974c0.655,0,1.169-0.18,1.543-0.54
				s0.561-0.863,0.561-1.511v-0.628l-1.052,0.044c-0.837,0.03-1.44,0.16-1.81,0.391c-0.37,0.23-0.555,0.589-0.555,1.076
				c0,0.381,0.115,0.671,0.346,0.87S78.943,268.974,79.357,268.974z"/>
			<path fill="#FFFFFF" d="M85.605,269.716h-1.052v-9.877h1.052V269.716z"/>
			<path fill="#FFFFFF" d="M90.55,267.311c0-0.55,0.147-1.037,0.44-1.46c0.294-0.423,0.821-0.851,1.582-1.282
				c-0.359-0.402-0.604-0.707-0.732-0.914s-0.231-0.423-0.308-0.647c-0.076-0.224-0.114-0.457-0.114-0.698
				c0-0.635,0.207-1.13,0.621-1.485s0.991-0.533,1.73-0.533c0.685,0,1.224,0.177,1.617,0.53c0.393,0.354,0.589,0.846,0.589,1.476
				c0,0.453-0.144,0.871-0.431,1.253c-0.287,0.383-0.763,0.771-1.426,1.165l2.58,2.482c0.237-0.262,0.426-0.57,0.567-0.923
				c0.142-0.354,0.261-0.74,0.358-1.159h1.065c-0.288,1.21-0.721,2.128-1.3,2.755l1.896,1.847h-1.452l-1.173-1.13
				c-0.499,0.449-1.006,0.77-1.521,0.965c-0.516,0.195-1.09,0.292-1.725,0.292c-0.909,0-1.613-0.224-2.114-0.673
				C90.8,268.722,90.55,268.102,90.55,267.311z M93.44,268.897c1.019,0,1.864-0.326,2.536-0.978l-2.77-2.691
				c-0.469,0.288-0.801,0.526-0.995,0.714c-0.195,0.188-0.338,0.39-0.431,0.606c-0.093,0.216-0.14,0.461-0.14,0.736
				c0,0.495,0.164,0.888,0.491,1.177C92.459,268.752,92.896,268.897,93.44,268.897z M92.458,262.283c0,0.292,0.076,0.57,0.228,0.834
				c0.152,0.265,0.412,0.583,0.78,0.956c0.545-0.317,0.924-0.61,1.138-0.879c0.213-0.269,0.32-0.579,0.32-0.93
				c0-0.326-0.109-0.591-0.326-0.797c-0.218-0.205-0.508-0.308-0.872-0.308c-0.376,0-0.681,0.102-0.916,0.305
				C92.575,261.667,92.458,261.94,92.458,262.283z"/>
			<path fill="#FFFFFF" d="M106.772,262.645c0.913,0,1.622,0.312,2.127,0.937c0.505,0.624,0.757,1.507,0.757,2.65
				s-0.254,2.03-0.764,2.663c-0.509,0.633-1.216,0.949-2.121,0.949c-0.452,0-0.865-0.083-1.239-0.251
				c-0.374-0.167-0.688-0.424-0.941-0.771h-0.076l-0.222,0.895h-0.754v-9.877h1.052v2.399c0,0.538-0.017,1.02-0.051,1.447h0.051
				C105.082,262.992,105.809,262.645,106.772,262.645z M106.62,263.527c-0.719,0-1.236,0.207-1.553,0.619
				c-0.317,0.413-0.476,1.108-0.476,2.085s0.163,1.677,0.488,2.098c0.325,0.421,0.847,0.631,1.565,0.631
				c0.647,0,1.128-0.236,1.446-0.708c0.317-0.472,0.475-1.15,0.475-2.035c0-0.906-0.158-1.581-0.475-2.025
				C107.773,263.75,107.283,263.527,106.62,263.527z"/>
			<path fill="#FFFFFF" d="M115.637,269.716l-0.209-0.99h-0.051c-0.347,0.436-0.692,0.731-1.037,0.886
				c-0.344,0.154-0.774,0.231-1.29,0.231c-0.688,0-1.229-0.178-1.62-0.533c-0.391-0.355-0.586-0.861-0.586-1.517
				c0-1.405,1.122-2.141,3.366-2.209l1.179-0.038v-0.432c0-0.546-0.117-0.949-0.352-1.209c-0.234-0.26-0.609-0.39-1.125-0.39
				c-0.579,0-1.234,0.178-1.965,0.533l-0.323-0.806c0.342-0.186,0.717-0.332,1.125-0.438c0.408-0.106,0.816-0.159,1.227-0.159
				c0.828,0,1.442,0.184,1.841,0.552s0.599,0.958,0.599,1.771v4.748H115.637z M113.26,268.974c0.655,0,1.169-0.18,1.543-0.54
				s0.561-0.863,0.561-1.511v-0.628l-1.052,0.044c-0.837,0.03-1.44,0.16-1.81,0.391c-0.37,0.23-0.555,0.589-0.555,1.076
				c0,0.381,0.115,0.671,0.346,0.87S112.846,268.974,113.26,268.974z"/>
			<path fill="#FFFFFF" d="M121.232,269.843c-1.006,0-1.784-0.31-2.336-0.93c-0.551-0.62-0.827-1.497-0.827-2.631
				c0-1.164,0.28-2.063,0.84-2.698s1.358-0.952,2.393-0.952c0.334,0,0.668,0.036,1.001,0.108c0.334,0.072,0.596,0.157,0.786,0.254
				l-0.323,0.895c-0.232-0.093-0.486-0.17-0.761-0.231c-0.274-0.062-0.518-0.092-0.729-0.092c-1.412,0-2.117,0.901-2.117,2.704
				c0,0.855,0.172,1.511,0.517,1.968s0.855,0.686,1.531,0.686c0.579,0,1.173-0.125,1.782-0.375v0.933
				C122.523,269.723,121.938,269.843,121.232,269.843z"/>
			<path fill="#FFFFFF" d="M125.546,266.155c0.182-0.258,0.458-0.597,0.831-1.016l2.244-2.38h1.249l-2.814,2.964l3.011,3.993h-1.274
				l-2.453-3.288l-0.792,0.686v2.603h-1.04v-9.877h1.04v5.237c0,0.233-0.017,0.592-0.051,1.079H125.546z"/>
			<path fill="#FFFFFF" d="M130.608,266.714v-0.965h3.112v0.965H130.608z"/>
			<path fill="#FFFFFF" d="M138.174,269.843c-1.027,0-1.837-0.313-2.431-0.939s-0.891-1.496-0.891-2.609
				c0-1.122,0.276-2.012,0.827-2.672c0.552-0.66,1.292-0.99,2.222-0.99c0.871,0,1.559,0.287,2.066,0.86
				c0.507,0.573,0.761,1.33,0.761,2.269v0.667h-4.786c0.021,0.817,0.227,1.437,0.618,1.86c0.391,0.423,0.941,0.635,1.651,0.635
				c0.748,0,1.487-0.157,2.219-0.47v0.939c-0.372,0.161-0.724,0.276-1.056,0.346C139.043,269.808,138.643,269.843,138.174,269.843z
				 M137.889,263.515c-0.558,0-1.003,0.182-1.334,0.546c-0.332,0.364-0.527,0.868-0.586,1.511h3.632
				c0-0.665-0.148-1.173-0.444-1.527C138.86,263.691,138.438,263.515,137.889,263.515z"/>
			<path fill="#FFFFFF" d="M147.147,269.716v-4.5c0-0.567-0.129-0.99-0.387-1.27s-0.662-0.419-1.211-0.419
				c-0.727,0-1.259,0.197-1.597,0.59c-0.338,0.394-0.507,1.043-0.507,1.949v3.65h-1.052v-6.957h0.856l0.171,0.952h0.051
				c0.215-0.343,0.518-0.608,0.907-0.797c0.389-0.188,0.822-0.282,1.299-0.282c0.837,0,1.466,0.202,1.889,0.606
				c0.422,0.404,0.634,1.05,0.634,1.939v4.539H147.147z"/>
			<path fill="#FFFFFF" d="M154.96,268.783h-0.057c-0.486,0.707-1.213,1.06-2.181,1.06c-0.909,0-1.615-0.311-2.121-0.933
				c-0.505-0.622-0.757-1.506-0.757-2.653s0.253-2.038,0.761-2.672s1.213-0.952,2.117-0.952c0.942,0,1.665,0.343,2.168,1.028h0.083
				l-0.044-0.501l-0.025-0.489v-2.831h1.052v9.877H155.1L154.96,268.783z M152.856,268.961c0.718,0,1.239-0.196,1.563-0.587
				c0.323-0.391,0.485-1.023,0.485-1.895v-0.222c0-0.986-0.164-1.689-0.491-2.111c-0.328-0.421-0.851-0.631-1.569-0.631
				c-0.617,0-1.089,0.24-1.417,0.72c-0.328,0.48-0.491,1.159-0.491,2.035c0,0.889,0.163,1.56,0.488,2.012
				C151.749,268.734,152.226,268.961,152.856,268.961z"/>
			<path fill="#FFFFFF" d="M76.228,280.644c0,0.647-0.241,1.147-0.723,1.498c-0.482,0.351-1.158,0.527-2.029,0.527
				c-0.921,0-1.64-0.146-2.155-0.438v-0.978c0.334,0.169,0.692,0.303,1.075,0.4c0.382,0.097,0.751,0.146,1.106,0.146
				c0.549,0,0.972-0.088,1.268-0.263c0.295-0.176,0.444-0.443,0.444-0.803c0-0.271-0.118-0.502-0.352-0.695
				c-0.234-0.193-0.692-0.42-1.373-0.683c-0.646-0.241-1.106-0.452-1.379-0.632c-0.272-0.18-0.475-0.384-0.608-0.612
				s-0.2-0.501-0.2-0.819c0-0.567,0.23-1.015,0.691-1.342c0.461-0.328,1.093-0.492,1.896-0.492c0.748,0,1.479,0.152,2.193,0.457
				l-0.374,0.857c-0.697-0.288-1.329-0.432-1.896-0.432c-0.499,0-0.875,0.078-1.128,0.235c-0.253,0.157-0.38,0.373-0.38,0.647
				c0,0.186,0.048,0.345,0.143,0.476c0.095,0.131,0.248,0.256,0.459,0.375c0.211,0.119,0.617,0.29,1.217,0.514
				c0.824,0.3,1.381,0.603,1.67,0.908S76.228,280.182,76.228,280.644z"/>
			<path fill="#FFFFFF" d="M78.798,275.584v4.513c0,0.567,0.129,0.99,0.387,1.27s0.662,0.419,1.211,0.419
				c0.727,0,1.258-0.199,1.594-0.597s0.504-1.047,0.504-1.949v-3.656h1.052v6.957h-0.868l-0.152-0.933h-0.057
				c-0.215,0.343-0.515,0.605-0.897,0.787s-0.819,0.273-1.309,0.273c-0.845,0-1.478-0.201-1.898-0.603s-0.631-1.045-0.631-1.93
				v-4.551H78.798z"/>
			<path fill="#FFFFFF" d="M88.881,282.668c-0.452,0-0.865-0.083-1.239-0.251c-0.374-0.167-0.688-0.424-0.941-0.771h-0.076
				c0.051,0.406,0.076,0.792,0.076,1.155v2.863h-1.052v-10.08h0.856l0.146,0.952H86.7c0.271-0.381,0.585-0.656,0.945-0.825
				c0.359-0.169,0.771-0.254,1.236-0.254c0.921,0,1.632,0.315,2.133,0.946c0.5,0.63,0.751,1.515,0.751,2.653
				c0,1.143-0.254,2.03-0.764,2.663C90.492,282.352,89.785,282.668,88.881,282.668z M88.729,276.353c-0.71,0-1.224,0.197-1.541,0.59
				s-0.48,1.02-0.488,1.879v0.235c0,0.978,0.163,1.677,0.488,2.098c0.325,0.421,0.847,0.631,1.565,0.631
				c0.6,0,1.07-0.243,1.411-0.73s0.51-1.157,0.51-2.012c0-0.868-0.17-1.533-0.51-1.997
				C89.824,276.584,89.346,276.353,88.729,276.353z"/>
			<path fill="#FFFFFF" d="M96.707,282.668c-0.452,0-0.865-0.083-1.239-0.251c-0.374-0.167-0.688-0.424-0.941-0.771H94.45
				c0.051,0.406,0.076,0.792,0.076,1.155v2.863h-1.052v-10.08h0.856l0.146,0.952h0.051c0.271-0.381,0.585-0.656,0.945-0.825
				c0.359-0.169,0.771-0.254,1.236-0.254c0.921,0,1.632,0.315,2.133,0.946c0.5,0.63,0.751,1.515,0.751,2.653
				c0,1.143-0.254,2.03-0.764,2.663C98.318,282.352,97.611,282.668,96.707,282.668z M96.555,276.353c-0.71,0-1.224,0.197-1.541,0.59
				s-0.48,1.02-0.488,1.879v0.235c0,0.978,0.163,1.677,0.488,2.098c0.325,0.421,0.847,0.631,1.565,0.631
				c0.6,0,1.07-0.243,1.411-0.73s0.51-1.157,0.51-2.012c0-0.868-0.17-1.533-0.51-1.997C97.65,276.584,97.171,276.353,96.555,276.353
				z"/>
			<path fill="#FFFFFF" d="M107.296,279.057c0,1.134-0.286,2.02-0.856,2.657c-0.57,0.637-1.359,0.955-2.365,0.955
				c-0.621,0-1.172-0.146-1.654-0.438s-0.854-0.711-1.116-1.257c-0.262-0.546-0.393-1.185-0.393-1.917
				c0-1.134,0.283-2.018,0.85-2.65c0.566-0.633,1.352-0.949,2.358-0.949c0.972,0,1.745,0.324,2.317,0.971
				C107.01,277.076,107.296,277.952,107.296,279.057z M102.003,279.057c0,0.889,0.178,1.566,0.533,2.031s0.876,0.698,1.565,0.698
				s1.212-0.232,1.569-0.695c0.357-0.464,0.536-1.142,0.536-2.035c0-0.884-0.179-1.556-0.536-2.015
				c-0.357-0.459-0.885-0.689-1.582-0.689c-0.688,0-1.208,0.227-1.559,0.679C102.178,277.484,102.003,278.16,102.003,279.057z"/>
			<path fill="#FFFFFF" d="M112.181,275.458c0.309,0,0.585,0.025,0.831,0.076l-0.146,0.978c-0.287-0.063-0.541-0.095-0.76-0.095
				c-0.563,0-1.043,0.229-1.442,0.686s-0.599,1.026-0.599,1.708v3.732h-1.052v-6.957h0.869l0.12,1.289h0.051
				c0.258-0.453,0.568-0.802,0.932-1.047C111.346,275.58,111.746,275.458,112.181,275.458z"/>
			<path fill="#FFFFFF" d="M116.425,281.799c0.186,0,0.365-0.014,0.539-0.042c0.173-0.027,0.311-0.056,0.412-0.085v0.806
				c-0.114,0.055-0.282,0.101-0.504,0.137c-0.222,0.036-0.421,0.054-0.599,0.054c-1.344,0-2.016-0.709-2.016-2.126v-4.139h-0.996
				v-0.508l0.996-0.438l0.444-1.485h0.608v1.612h2.016v0.819h-2.016v4.094c0,0.419,0.099,0.741,0.298,0.965
				S116.079,281.799,116.425,281.799z"/>
		</g>
	</g>
	<g>
		<g>
			<path fill="#FFFFFF" d="M565.417,479.459v9.238c0,1.055-0.226,1.978-0.678,2.769s-1.105,1.399-1.96,1.826
				c-0.855,0.427-1.878,0.64-3.067,0.64c-1.769,0-3.144-0.469-4.125-1.406c-0.982-0.938-1.473-2.227-1.473-3.867v-9.199h2.34v9.033
				c0,1.179,0.273,2.048,0.819,2.607c0.547,0.56,1.385,0.84,2.517,0.84c2.197,0,3.296-1.155,3.296-3.467v-9.014H565.417z"/>
			<path fill="#FFFFFF" d="M577.086,489.86c0,1.27-0.458,2.266-1.375,2.988s-2.182,1.084-3.794,1.084s-2.932-0.251-3.959-0.752
				v-2.207c0.649,0.306,1.341,0.547,2.072,0.723s1.412,0.264,2.043,0.264c0.923,0,1.604-0.176,2.043-0.527
				c0.439-0.352,0.658-0.823,0.658-1.416c0-0.534-0.201-0.986-0.604-1.357s-1.235-0.811-2.496-1.318
				c-1.301-0.527-2.218-1.13-2.751-1.807s-0.8-1.491-0.8-2.441c0-1.191,0.423-2.129,1.269-2.813
				c0.845-0.684,1.979-1.025,3.403-1.025c1.365,0,2.725,0.3,4.077,0.898l-0.741,1.904c-1.269-0.534-2.399-0.801-3.395-0.801
				c-0.754,0-1.326,0.164-1.717,0.493c-0.39,0.329-0.585,0.764-0.585,1.304c0,0.371,0.078,0.688,0.234,0.952
				s0.413,0.513,0.771,0.747s1.001,0.544,1.931,0.928c1.047,0.437,1.814,0.843,2.302,1.221s0.846,0.804,1.073,1.279
				S577.086,489.215,577.086,489.86z"/>
			<path fill="#FFFFFF" d="M587.712,493.737h-8.065v-14.277h8.065v1.973h-5.734v3.887h5.374v1.953h-5.374v4.482h5.734V493.737z"/>
			<path fill="#FFFFFF" d="M592.925,488.034v5.703h-2.331v-14.277h4.028c1.84,0,3.202,0.345,4.086,1.035
				c0.885,0.69,1.327,1.731,1.327,3.125c0,1.777-0.924,3.044-2.771,3.799l4.028,6.318h-2.653l-3.413-5.703H592.925z M592.925,486.1
				h1.619c1.086,0,1.873-0.202,2.36-0.605s0.731-1.003,0.731-1.797c0-0.808-0.264-1.387-0.79-1.738s-1.32-0.527-2.38-0.527h-1.541
				V486.1z"/>
			<path fill="#FFFFFF" d="M543.837,517.737h-2.331v-12.275h-4.193v-2.002h10.718v2.002h-4.193V517.737z"/>
			<path fill="#FFFFFF" d="M558.08,517.737h-8.065v-14.277h8.065v1.973h-5.734v3.887h5.374v1.953h-5.374v4.482h5.734V517.737z"/>
			<path fill="#FFFFFF" d="M569.184,513.86c0,1.27-0.458,2.266-1.375,2.988s-2.182,1.084-3.794,1.084s-2.932-0.251-3.959-0.752
				v-2.207c0.649,0.306,1.341,0.547,2.072,0.723s1.412,0.264,2.043,0.264c0.923,0,1.604-0.176,2.043-0.527
				c0.439-0.352,0.658-0.823,0.658-1.416c0-0.534-0.201-0.986-0.604-1.357s-1.235-0.811-2.496-1.318
				c-1.301-0.527-2.218-1.13-2.751-1.807s-0.8-1.491-0.8-2.441c0-1.191,0.423-2.129,1.269-2.813
				c0.845-0.684,1.979-1.025,3.403-1.025c1.365,0,2.725,0.3,4.077,0.898l-0.741,1.904c-1.269-0.534-2.399-0.801-3.395-0.801
				c-0.754,0-1.326,0.164-1.717,0.493c-0.39,0.329-0.585,0.764-0.585,1.304c0,0.371,0.078,0.688,0.234,0.952
				s0.413,0.513,0.771,0.747s1.001,0.544,1.931,0.928c1.047,0.437,1.814,0.843,2.302,1.221s0.846,0.804,1.073,1.279
				S569.184,513.215,569.184,513.86z"/>
			<path fill="#FFFFFF" d="M576.67,517.737h-2.331v-12.275h-4.193v-2.002h10.718v2.002h-4.193V517.737z"/>
			<path fill="#FFFFFF" d="M582.848,517.737v-14.277h2.331v14.277H582.848z"/>
			<path fill="#FFFFFF" d="M600.622,517.737h-2.857l-7.012-11.377h-0.078l0.049,0.635c0.091,1.211,0.137,2.317,0.137,3.32v7.422
				h-2.117v-14.277h2.829l6.992,11.318h0.059c-0.013-0.149-0.039-0.695-0.078-1.636s-0.059-1.675-0.059-2.202v-7.48h2.136V517.737z"
				/>
			<path fill="#FFFFFF" d="M610.019,509.993h5.247v7.168c-0.857,0.28-1.682,0.479-2.472,0.596s-1.644,0.176-2.561,0.176
				c-2.158,0-3.823-0.64-4.993-1.919s-1.756-3.084-1.756-5.415c0-2.298,0.66-4.097,1.98-5.396c1.319-1.299,3.137-1.948,5.451-1.948
				c1.489,0,2.9,0.286,4.232,0.859l-0.818,1.943c-1.158-0.534-2.315-0.801-3.473-0.801c-1.521,0-2.724,0.479-3.608,1.436
				c-0.884,0.957-1.326,2.266-1.326,3.926c0,1.745,0.398,3.071,1.194,3.979c0.797,0.908,1.942,1.362,3.438,1.362
				c0.754,0,1.561-0.095,2.418-0.283v-3.682h-2.955V509.993z"/>
		</g>
	</g>
	<g>
		<g>
			<path fill="#FFFFFF" d="M536.284,536.522h-5.166v-9.28h5.166v0.958h-4.089v2.99h3.842v0.952h-3.842v3.415h4.089V536.522z"/>
			<path fill="#FFFFFF" d="M539.571,536.522l-2.637-6.957h1.128l1.496,4.126c0.339,0.965,0.537,1.591,0.597,1.879h0.051
				c0.046-0.225,0.193-0.688,0.44-1.394c0.247-0.704,0.802-2.241,1.664-4.611h1.128l-2.637,6.957H539.571z"/>
			<path fill="#FFFFFF" d="M548.697,536.522l-0.21-0.99h-0.05c-0.347,0.436-0.692,0.731-1.037,0.886s-0.774,0.231-1.29,0.231
				c-0.688,0-1.229-0.178-1.619-0.533c-0.392-0.355-0.587-0.861-0.587-1.518c0-1.404,1.122-2.141,3.366-2.209l1.179-0.037v-0.432
				c0-0.547-0.117-0.949-0.352-1.21c-0.234-0.26-0.609-0.39-1.125-0.39c-0.579,0-1.234,0.178-1.965,0.533l-0.323-0.807
				c0.342-0.187,0.717-0.332,1.125-0.438c0.407-0.106,0.816-0.159,1.227-0.159c0.828,0,1.442,0.185,1.842,0.552
				c0.399,0.369,0.599,0.959,0.599,1.771v4.748H548.697z M546.319,535.78c0.655,0,1.17-0.181,1.544-0.54s0.562-0.863,0.562-1.511
				V533.1l-1.053,0.045c-0.837,0.029-1.44,0.16-1.81,0.391c-0.37,0.23-0.555,0.589-0.555,1.076c0,0.381,0.115,0.67,0.345,0.869
				C545.583,535.68,545.905,535.78,546.319,535.78z"/>
			<path fill="#FFFFFF" d="M552.567,536.522h-1.053v-9.877h1.053V536.522z"/>
			<path fill="#FFFFFF" d="M555.657,529.565v4.514c0,0.566,0.129,0.99,0.387,1.27s0.661,0.418,1.211,0.418
				c0.727,0,1.258-0.198,1.595-0.596c0.336-0.398,0.504-1.048,0.504-1.949v-3.656h1.052v6.957h-0.868l-0.152-0.934h-0.057
				c-0.216,0.344-0.515,0.605-0.897,0.787c-0.383,0.183-0.818,0.273-1.309,0.273c-0.846,0-1.479-0.201-1.899-0.604
				c-0.42-0.401-0.63-1.045-0.63-1.93v-4.551H555.657z"/>
			<path fill="#FFFFFF" d="M566.78,536.522l-0.21-0.99h-0.05c-0.347,0.436-0.692,0.731-1.037,0.886s-0.774,0.231-1.29,0.231
				c-0.688,0-1.229-0.178-1.619-0.533c-0.392-0.355-0.587-0.861-0.587-1.518c0-1.404,1.122-2.141,3.366-2.209l1.179-0.037v-0.432
				c0-0.547-0.117-0.949-0.352-1.21c-0.234-0.26-0.609-0.39-1.125-0.39c-0.579,0-1.234,0.178-1.965,0.533l-0.323-0.807
				c0.342-0.187,0.717-0.332,1.125-0.438c0.407-0.106,0.816-0.159,1.227-0.159c0.828,0,1.442,0.185,1.842,0.552
				c0.399,0.369,0.599,0.959,0.599,1.771v4.748H566.78z M564.402,535.78c0.655,0,1.17-0.181,1.544-0.54s0.562-0.863,0.562-1.511
				V533.1l-1.053,0.045c-0.837,0.029-1.44,0.16-1.81,0.391c-0.37,0.23-0.555,0.589-0.555,1.076c0,0.381,0.115,0.67,0.345,0.869
				C563.666,535.68,563.988,535.78,564.402,535.78z"/>
			<path fill="#FFFFFF" d="M571.842,535.78c0.187,0,0.366-0.015,0.539-0.042c0.174-0.027,0.311-0.056,0.412-0.085v0.806
				c-0.114,0.055-0.282,0.101-0.504,0.137s-0.422,0.054-0.599,0.054c-1.345,0-2.017-0.709-2.017-2.127v-4.139h-0.995v-0.508
				l0.995-0.438l0.444-1.485h0.608v1.612h2.016v0.818h-2.016v4.095c0,0.419,0.1,0.74,0.298,0.965S571.496,535.78,571.842,535.78z"/>
			<path fill="#FFFFFF" d="M576.986,536.649c-1.027,0-1.838-0.313-2.431-0.939c-0.595-0.626-0.891-1.496-0.891-2.609
				c0-1.121,0.275-2.012,0.827-2.672c0.551-0.66,1.292-0.99,2.222-0.99c0.87,0,1.56,0.287,2.066,0.86s0.761,1.329,0.761,2.269v0.667
				h-4.786c0.021,0.816,0.228,1.437,0.618,1.86c0.391,0.423,0.941,0.635,1.651,0.635c0.748,0,1.487-0.157,2.219-0.471v0.939
				c-0.372,0.161-0.724,0.276-1.056,0.347C577.855,536.614,577.455,536.649,576.986,536.649z M576.701,530.321
				c-0.558,0-1.003,0.182-1.335,0.545c-0.331,0.364-0.526,0.868-0.586,1.512h3.633c0-0.665-0.148-1.174-0.444-1.527
				S577.25,530.321,576.701,530.321z"/>
			<path fill="#FFFFFF" d="M592.004,531.793c0,1.531-0.415,2.702-1.245,3.513c-0.831,0.811-2.025,1.216-3.585,1.216h-2.567v-9.28
				h2.84c1.441,0,2.561,0.399,3.359,1.2C591.604,529.241,592.004,530.358,592.004,531.793z M590.863,531.831
				c0-1.21-0.304-2.122-0.91-2.735s-1.508-0.921-2.703-0.921h-1.566v7.414h1.313c1.285,0,2.25-0.315,2.897-0.948
				C590.54,534.007,590.863,533.071,590.863,531.831z"/>
			<path fill="#FFFFFF" d="M596.718,536.649c-1.027,0-1.838-0.313-2.431-0.939c-0.595-0.626-0.891-1.496-0.891-2.609
				c0-1.121,0.275-2.012,0.827-2.672c0.551-0.66,1.292-0.99,2.222-0.99c0.87,0,1.56,0.287,2.066,0.86s0.761,1.329,0.761,2.269v0.667
				h-4.786c0.021,0.816,0.228,1.437,0.618,1.86c0.391,0.423,0.941,0.635,1.651,0.635c0.748,0,1.487-0.157,2.219-0.471v0.939
				c-0.372,0.161-0.724,0.276-1.056,0.347C597.587,536.614,597.187,536.649,596.718,536.649z M596.433,530.321
				c-0.558,0-1.003,0.182-1.335,0.545c-0.331,0.364-0.526,0.868-0.586,1.512h3.633c0-0.665-0.148-1.174-0.444-1.527
				S596.981,530.321,596.433,530.321z"/>
			<path fill="#FFFFFF" d="M605.418,534.624c0,0.648-0.241,1.147-0.723,1.498c-0.481,0.352-1.158,0.527-2.028,0.527
				c-0.922,0-1.641-0.146-2.155-0.438v-0.979c0.333,0.17,0.691,0.303,1.074,0.4c0.382,0.098,0.751,0.146,1.106,0.146
				c0.549,0,0.972-0.088,1.268-0.264s0.443-0.443,0.443-0.803c0-0.271-0.117-0.503-0.352-0.695s-0.692-0.42-1.372-0.683
				c-0.647-0.241-1.106-0.452-1.379-0.632s-0.476-0.384-0.608-0.612c-0.134-0.229-0.2-0.501-0.2-0.819
				c0-0.566,0.23-1.014,0.691-1.342c0.46-0.328,1.092-0.492,1.896-0.492c0.748,0,1.479,0.152,2.193,0.457l-0.374,0.857
				c-0.697-0.288-1.329-0.432-1.896-0.432c-0.499,0-0.875,0.078-1.129,0.234c-0.253,0.156-0.38,0.372-0.38,0.647
				c0,0.187,0.047,0.345,0.143,0.476c0.095,0.132,0.248,0.257,0.459,0.375c0.212,0.118,0.617,0.29,1.218,0.514
				c0.824,0.301,1.381,0.604,1.67,0.908C605.273,533.78,605.418,534.163,605.418,534.624z"/>
			<path fill="#FFFFFF" d="M606.911,527.68c0-0.242,0.059-0.418,0.177-0.53s0.267-0.169,0.444-0.169
				c0.169,0,0.314,0.058,0.438,0.172c0.122,0.114,0.184,0.29,0.184,0.527c0,0.236-0.062,0.413-0.184,0.529
				c-0.123,0.116-0.269,0.175-0.438,0.175c-0.178,0-0.326-0.059-0.444-0.175S606.911,527.917,606.911,527.68z M608.052,536.522
				h-1.053v-6.957h1.053V536.522z"/>
			<path fill="#FFFFFF" d="M615.84,529.565v0.666l-1.287,0.152c0.119,0.148,0.225,0.342,0.317,0.581s0.14,0.509,0.14,0.81
				c0,0.682-0.232,1.225-0.697,1.631s-1.104,0.609-1.915,0.609c-0.207,0-0.401-0.017-0.583-0.051
				c-0.448,0.237-0.672,0.536-0.672,0.896c0,0.19,0.078,0.331,0.234,0.422s0.425,0.137,0.806,0.137h1.229
				c0.752,0,1.33,0.159,1.733,0.476c0.404,0.318,0.605,0.779,0.605,1.385c0,0.77-0.309,1.356-0.925,1.761
				c-0.617,0.404-1.518,0.606-2.701,0.606c-0.908,0-1.608-0.169-2.102-0.508c-0.492-0.339-0.738-0.816-0.738-1.435
				c0-0.423,0.136-0.789,0.406-1.099c0.271-0.309,0.65-0.518,1.141-0.628c-0.178-0.08-0.326-0.205-0.447-0.374
				c-0.12-0.17-0.181-0.366-0.181-0.591c0-0.254,0.068-0.476,0.203-0.667c0.136-0.189,0.349-0.374,0.641-0.552
				c-0.359-0.148-0.652-0.399-0.878-0.755c-0.227-0.355-0.34-0.762-0.34-1.219c0-0.762,0.229-1.35,0.685-1.762
				c0.457-0.413,1.104-0.619,1.94-0.619c0.363,0,0.69,0.042,0.982,0.127H615.84z M610.3,537.69c0,0.377,0.158,0.662,0.476,0.857
				c0.316,0.194,0.771,0.291,1.362,0.291c0.884,0,1.537-0.132,1.962-0.396s0.638-0.623,0.638-1.076c0-0.376-0.116-0.638-0.349-0.783
				c-0.232-0.146-0.67-0.219-1.313-0.219h-1.262c-0.478,0-0.85,0.113-1.115,0.342C610.433,536.934,610.3,537.262,610.3,537.69z
				 M610.87,531.793c0,0.486,0.138,0.854,0.412,1.104c0.274,0.25,0.657,0.375,1.147,0.375c1.026,0,1.54-0.499,1.54-1.498
				c0-1.045-0.52-1.568-1.56-1.568c-0.494,0-0.874,0.134-1.141,0.4S610.87,531.268,610.87,531.793z"/>
			<path fill="#FFFFFF" d="M621.891,536.522v-4.5c0-0.567-0.129-0.99-0.387-1.27s-0.661-0.42-1.211-0.42
				c-0.727,0-1.259,0.197-1.598,0.591c-0.338,0.394-0.507,1.043-0.507,1.948v3.65h-1.053v-6.957h0.856l0.171,0.952h0.051
				c0.216-0.343,0.518-0.608,0.906-0.797s0.822-0.282,1.3-0.282c0.837,0,1.467,0.202,1.889,0.606
				c0.423,0.404,0.635,1.05,0.635,1.938v4.539H621.891z"/>
		</g>
	</g>
	<g>
		<path fill="#FFFFFF" d="M63.708,492.873c0,2.356-0.653,4.158-1.96,5.405c-1.307,1.247-3.189,1.87-5.647,1.87h-3.989v-14.277h4.408
			c2.269,0,4.034,0.612,5.295,1.836C63.077,488.93,63.708,490.653,63.708,492.873z M61.25,492.951c0-3.418-1.596-5.127-4.789-5.127
			h-2.019v10.361h1.658C59.534,498.185,61.25,496.44,61.25,492.951z"/>
		<path fill="#FFFFFF" d="M74.636,500.148H66.57v-14.277h8.065v1.973h-5.734v3.887h5.374v1.953h-5.374v4.482h5.734V500.148z"/>
		<path fill="#FFFFFF" d="M77.518,500.148v-14.277h2.331v12.275h6.037v2.002H77.518z"/>
		<path fill="#FFFFFF" d="M88.144,500.148v-14.277h2.331v14.277H88.144z"/>
		<path fill="#FFFFFF" d="M102.163,485.871h2.418l-4.993,14.277H97.13l-4.974-14.277h2.399l2.975,8.877
			c0.156,0.423,0.322,0.969,0.498,1.636s0.289,1.164,0.341,1.489c0.084-0.495,0.214-1.067,0.39-1.719s0.318-1.133,0.429-1.445
			L102.163,485.871z"/>
		<path fill="#FFFFFF" d="M114.33,500.148h-8.065v-14.277h8.065v1.973h-5.734v3.887h5.374v1.953h-5.374v4.482h5.734V500.148z"/>
		<path fill="#FFFFFF" d="M119.543,494.445v5.703h-2.331v-14.277h4.028c1.84,0,3.202,0.345,4.086,1.035
			c0.884,0.69,1.326,1.731,1.326,3.125c0,1.777-0.923,3.044-2.77,3.799l4.028,6.318h-2.653l-3.414-5.703H119.543z M119.543,492.511
			h1.619c1.086,0,1.873-0.202,2.36-0.605c0.487-0.403,0.731-1.003,0.731-1.797c0-0.808-0.264-1.387-0.79-1.738
			c-0.527-0.352-1.32-0.527-2.38-0.527h-1.541V492.511z"/>
		<path fill="#FFFFFF" d="M133.806,492.384l3.375-6.514h2.536l-4.75,8.74v5.537h-2.341v-5.459l-4.73-8.818h2.536L133.806,492.384z"
			/>
	</g>
	<g>
		<g>
			<path fill="#FFFFFF" d="M51.017,519.41h-1.078v-9.28h5.166v0.958h-4.088v3.396h3.841v0.959h-3.841V519.41z"/>
			<path fill="#FFFFFF" d="M59.521,512.326c0.309,0,0.585,0.025,0.831,0.076l-0.146,0.978c-0.287-0.063-0.541-0.095-0.76-0.095
				c-0.563,0-1.043,0.229-1.442,0.686s-0.599,1.025-0.599,1.707v3.732h-1.052v-6.957h0.869l0.12,1.289h0.051
				c0.258-0.453,0.568-0.803,0.932-1.048C58.686,512.449,59.085,512.326,59.521,512.326z"/>
			<path fill="#FFFFFF" d="M67.518,515.925c0,1.134-0.286,2.02-0.856,2.656s-1.359,0.955-2.365,0.955
				c-0.621,0-1.172-0.146-1.654-0.438c-0.482-0.293-0.854-0.711-1.116-1.258c-0.262-0.545-0.393-1.185-0.393-1.916
				c0-1.135,0.283-2.018,0.85-2.65c0.566-0.633,1.352-0.949,2.358-0.949c0.972,0,1.745,0.324,2.317,0.971
				C67.231,513.945,67.518,514.82,67.518,515.925z M62.224,515.925c0,0.889,0.178,1.565,0.533,2.031
				c0.355,0.465,0.876,0.697,1.565,0.697s1.212-0.231,1.569-0.694c0.357-0.464,0.536-1.142,0.536-2.034
				c0-0.885-0.179-1.557-0.536-2.016c-0.357-0.459-0.885-0.689-1.582-0.689c-0.688,0-1.208,0.227-1.559,0.68
				C62.399,514.353,62.224,515.028,62.224,515.925z"/>
			<path fill="#FFFFFF" d="M73.987,519.41v-4.5c0-0.567-0.129-0.99-0.387-1.27s-0.662-0.42-1.211-0.42
				c-0.727,0-1.259,0.197-1.597,0.591c-0.338,0.394-0.507,1.043-0.507,1.948v3.65h-1.052v-6.957h0.856l0.171,0.952h0.051
				c0.215-0.343,0.518-0.608,0.907-0.797c0.389-0.188,0.822-0.282,1.299-0.282c0.837,0,1.466,0.202,1.889,0.606
				c0.422,0.404,0.634,1.05,0.634,1.938v4.539H73.987z"/>
			<path fill="#FFFFFF" d="M79.315,518.667c0.186,0,0.365-0.015,0.539-0.042s0.311-0.056,0.412-0.085v0.806
				c-0.114,0.055-0.282,0.101-0.504,0.137c-0.222,0.036-0.421,0.054-0.599,0.054c-1.344,0-2.016-0.709-2.016-2.127v-4.139h-0.996
				v-0.508l0.996-0.438l0.444-1.485H78.2v1.612h2.016v0.818H78.2v4.095c0,0.419,0.099,0.74,0.298,0.965
				S78.969,518.667,79.315,518.667z"/>
			<path fill="#FFFFFF" d="M80.941,516.408v-0.965h3.112v0.965H80.941z"/>
			<path fill="#FFFFFF" d="M88.507,519.537c-1.027,0-1.837-0.313-2.431-0.939s-0.891-1.496-0.891-2.609
				c0-1.121,0.276-2.012,0.827-2.672c0.552-0.66,1.292-0.99,2.222-0.99c0.871,0,1.559,0.287,2.066,0.86s0.761,1.329,0.761,2.269
				v0.667h-4.786c0.021,0.816,0.227,1.437,0.618,1.86c0.391,0.423,0.941,0.635,1.651,0.635c0.748,0,1.487-0.157,2.219-0.471v0.939
				c-0.372,0.161-0.724,0.276-1.056,0.347C89.377,519.501,88.977,519.537,88.507,519.537z M88.222,513.208
				c-0.558,0-1.003,0.182-1.334,0.545c-0.332,0.364-0.527,0.868-0.586,1.512h3.632c0-0.665-0.148-1.174-0.444-1.527
				S88.771,513.208,88.222,513.208z"/>
			<path fill="#FFFFFF" d="M97.48,519.41v-4.5c0-0.567-0.129-0.99-0.387-1.27s-0.662-0.42-1.211-0.42
				c-0.727,0-1.259,0.197-1.597,0.591c-0.338,0.394-0.507,1.043-0.507,1.948v3.65h-1.052v-6.957h0.856l0.171,0.952h0.051
				c0.215-0.343,0.518-0.608,0.907-0.797c0.389-0.188,0.822-0.282,1.299-0.282c0.837,0,1.466,0.202,1.889,0.606
				c0.422,0.404,0.634,1.05,0.634,1.938v4.539H97.48z"/>
			<path fill="#FFFFFF" d="M105.294,518.476h-0.057c-0.486,0.707-1.213,1.061-2.181,1.061c-0.909,0-1.615-0.311-2.121-0.934
				c-0.505-0.621-0.757-1.506-0.757-2.652c0-1.147,0.253-2.038,0.761-2.673s1.213-0.952,2.117-0.952
				c0.942,0,1.665,0.343,2.168,1.028h0.083l-0.044-0.501l-0.025-0.489v-2.831h1.052v9.877h-0.855L105.294,518.476z M103.189,518.654
				c0.718,0,1.239-0.195,1.563-0.587s0.485-1.022,0.485-1.895v-0.222c0-0.986-0.164-1.69-0.491-2.111s-0.851-0.631-1.569-0.631
				c-0.617,0-1.089,0.239-1.417,0.72s-0.491,1.159-0.491,2.034c0,0.889,0.163,1.56,0.488,2.013
				C102.082,518.428,102.56,518.654,103.189,518.654z"/>
			<path fill="#FFFFFF" d="M115.76,510.96c-1.019,0-1.823,0.34-2.412,1.02c-0.59,0.679-0.884,1.609-0.884,2.789
				c0,1.215,0.284,2.153,0.853,2.815s1.379,0.993,2.431,0.993c0.646,0,1.384-0.116,2.212-0.349v0.946
				c-0.643,0.24-1.435,0.361-2.377,0.361c-1.365,0-2.418-0.415-3.16-1.244s-1.112-2.008-1.112-3.535
				c0-0.957,0.178-1.795,0.536-2.514c0.357-0.72,0.873-1.274,1.547-1.664c0.674-0.389,1.467-0.584,2.38-0.584
				c0.972,0,1.821,0.178,2.548,0.533l-0.457,0.928C117.163,511.126,116.461,510.96,115.76,510.96z"/>
			<path fill="#FFFFFF" d="M125.691,515.925c0,1.134-0.286,2.02-0.856,2.656s-1.359,0.955-2.365,0.955
				c-0.621,0-1.172-0.146-1.654-0.438c-0.482-0.293-0.854-0.711-1.116-1.258c-0.262-0.545-0.393-1.185-0.393-1.916
				c0-1.135,0.283-2.018,0.85-2.65c0.566-0.633,1.352-0.949,2.358-0.949c0.972,0,1.745,0.324,2.317,0.971
				C125.404,513.945,125.691,514.82,125.691,515.925z M120.397,515.925c0,0.889,0.178,1.565,0.533,2.031
				c0.355,0.465,0.876,0.697,1.565,0.697s1.212-0.231,1.569-0.694c0.357-0.464,0.536-1.142,0.536-2.034
				c0-0.885-0.179-1.557-0.536-2.016c-0.357-0.459-0.885-0.689-1.582-0.689c-0.688,0-1.208,0.227-1.559,0.68
				C120.573,514.353,120.397,515.028,120.397,515.925z"/>
			<path fill="#FFFFFF" d="M132.134,518.476h-0.057c-0.486,0.707-1.213,1.061-2.181,1.061c-0.909,0-1.615-0.311-2.121-0.934
				c-0.505-0.621-0.757-1.506-0.757-2.652c0-1.147,0.253-2.038,0.761-2.673s1.213-0.952,2.117-0.952
				c0.942,0,1.665,0.343,2.168,1.028h0.083l-0.044-0.501l-0.025-0.489v-2.831h1.052v9.877h-0.855L132.134,518.476z M130.03,518.654
				c0.718,0,1.239-0.195,1.563-0.587s0.485-1.022,0.485-1.895v-0.222c0-0.986-0.164-1.69-0.491-2.111s-0.851-0.631-1.569-0.631
				c-0.617,0-1.089,0.239-1.417,0.72s-0.491,1.159-0.491,2.034c0,0.889,0.163,1.56,0.488,2.013
				C128.922,518.428,129.4,518.654,130.03,518.654z"/>
			<path fill="#FFFFFF" d="M138.167,519.537c-1.027,0-1.837-0.313-2.431-0.939s-0.891-1.496-0.891-2.609
				c0-1.121,0.276-2.012,0.827-2.672c0.552-0.66,1.292-0.99,2.222-0.99c0.871,0,1.559,0.287,2.066,0.86s0.761,1.329,0.761,2.269
				v0.667h-4.786c0.021,0.816,0.227,1.437,0.618,1.86c0.391,0.423,0.941,0.635,1.651,0.635c0.748,0,1.487-0.157,2.219-0.471v0.939
				c-0.372,0.161-0.724,0.276-1.056,0.347C139.036,519.501,138.636,519.537,138.167,519.537z M137.881,513.208
				c-0.558,0-1.003,0.182-1.334,0.545c-0.332,0.364-0.527,0.868-0.586,1.512h3.632c0-0.665-0.148-1.174-0.444-1.527
				S138.431,513.208,137.881,513.208z"/>
			<path fill="#FFFFFF" d="M63.588,527.506c0,1.531-0.415,2.702-1.246,3.513c-0.83,0.811-2.025,1.216-3.584,1.216h-2.567v-9.28h2.84
				c1.441,0,2.561,0.399,3.36,1.2C63.189,524.954,63.588,526.071,63.588,527.506z M62.447,527.543c0-1.21-0.303-2.122-0.91-2.735
				s-1.507-0.921-2.704-0.921h-1.565v7.414h1.312c1.285,0,2.25-0.315,2.897-0.948S62.447,528.784,62.447,527.543z"/>
			<path fill="#FFFFFF" d="M68.302,532.362c-1.027,0-1.837-0.313-2.431-0.939s-0.891-1.496-0.891-2.609
				c0-1.121,0.276-2.012,0.827-2.672c0.552-0.66,1.292-0.99,2.222-0.99c0.871,0,1.559,0.287,2.066,0.86s0.761,1.329,0.761,2.269
				v0.667H66.07c0.021,0.816,0.227,1.437,0.618,1.86c0.391,0.423,0.941,0.635,1.651,0.635c0.748,0,1.487-0.157,2.219-0.471v0.939
				c-0.372,0.161-0.724,0.276-1.056,0.347C69.171,532.327,68.771,532.362,68.302,532.362z M68.017,526.034
				c-0.558,0-1.003,0.182-1.334,0.545c-0.332,0.364-0.527,0.868-0.586,1.512h3.632c0-0.665-0.148-1.174-0.444-1.527
				S68.566,526.034,68.017,526.034z"/>
			<path fill="#FFFFFF" d="M74.042,532.235l-2.637-6.957h1.128l1.496,4.126c0.338,0.965,0.537,1.591,0.596,1.879h0.051
				c0.046-0.225,0.193-0.688,0.44-1.394c0.248-0.704,0.802-2.241,1.664-4.611h1.128l-2.637,6.957H74.042z"/>
			<path fill="#FFFFFF" d="M81.83,532.362c-1.027,0-1.837-0.313-2.431-0.939s-0.891-1.496-0.891-2.609
				c0-1.121,0.276-2.012,0.827-2.672c0.552-0.66,1.292-0.99,2.222-0.99c0.871,0,1.559,0.287,2.066,0.86s0.761,1.329,0.761,2.269
				v0.667h-4.786c0.021,0.816,0.227,1.437,0.618,1.86c0.391,0.423,0.941,0.635,1.651,0.635c0.748,0,1.487-0.157,2.219-0.471v0.939
				c-0.372,0.161-0.724,0.276-1.056,0.347C82.7,532.327,82.299,532.362,81.83,532.362z M81.545,526.034
				c-0.558,0-1.003,0.182-1.334,0.545c-0.332,0.364-0.527,0.868-0.586,1.512h3.632c0-0.665-0.148-1.174-0.444-1.527
				S82.094,526.034,81.545,526.034z"/>
			<path fill="#FFFFFF" d="M87.101,532.235h-1.052v-9.877h1.052V532.235z"/>
			<path fill="#FFFFFF" d="M95.2,528.75c0,1.134-0.286,2.02-0.856,2.656s-1.359,0.955-2.365,0.955c-0.621,0-1.172-0.146-1.654-0.438
				c-0.482-0.293-0.854-0.711-1.116-1.258c-0.262-0.545-0.393-1.185-0.393-1.916c0-1.135,0.283-2.018,0.85-2.65
				c0.566-0.633,1.352-0.949,2.358-0.949c0.972,0,1.745,0.324,2.317,0.971C94.913,526.77,95.2,527.645,95.2,528.75z M89.906,528.75
				c0,0.889,0.178,1.565,0.533,2.031c0.355,0.465,0.876,0.697,1.565,0.697s1.212-0.231,1.569-0.694
				c0.357-0.464,0.536-1.142,0.536-2.034c0-0.885-0.179-1.557-0.536-2.016c-0.357-0.459-0.885-0.689-1.582-0.689
				c-0.688,0-1.208,0.227-1.559,0.68C90.082,527.178,89.906,527.853,89.906,528.75z"/>
			<path fill="#FFFFFF" d="M100.147,532.362c-0.452,0-0.865-0.084-1.239-0.251s-0.688-0.424-0.941-0.771h-0.076
				c0.051,0.406,0.076,0.791,0.076,1.154v2.863h-1.052v-10.08h0.856l0.146,0.952h0.051c0.271-0.381,0.585-0.656,0.945-0.825
				c0.359-0.169,0.771-0.254,1.236-0.254c0.921,0,1.632,0.315,2.133,0.945c0.5,0.631,0.751,1.516,0.751,2.654
				c0,1.143-0.254,2.029-0.764,2.662S101.052,532.362,100.147,532.362z M99.996,526.045c-0.71,0-1.224,0.197-1.541,0.591
				s-0.48,1.02-0.488,1.879v0.235c0,0.977,0.163,1.677,0.488,2.098c0.325,0.421,0.847,0.631,1.565,0.631
				c0.6,0,1.07-0.243,1.411-0.729s0.51-1.157,0.51-2.013c0-0.867-0.17-1.532-0.51-1.996
				C101.091,526.278,100.612,526.045,99.996,526.045z"/>
			<path fill="#FFFFFF" d="M113.596,532.235v-4.525c0-0.555-0.119-0.971-0.355-1.248c-0.237-0.277-0.604-0.416-1.103-0.416
				c-0.655,0-1.139,0.188-1.452,0.565c-0.313,0.377-0.469,0.956-0.469,1.739v3.885h-1.052v-4.525c0-0.555-0.119-0.971-0.355-1.248
				c-0.237-0.277-0.606-0.416-1.109-0.416c-0.659,0-1.142,0.198-1.449,0.594c-0.306,0.396-0.459,1.045-0.459,1.945v3.65h-1.052
				v-6.957h0.856l0.171,0.952h0.051c0.199-0.339,0.479-0.603,0.84-0.794c0.361-0.189,0.766-0.285,1.214-0.285
				c1.086,0,1.796,0.394,2.13,1.181h0.05c0.207-0.364,0.507-0.651,0.9-0.863s0.841-0.317,1.344-0.317
				c0.786,0,1.375,0.202,1.766,0.606s0.586,1.05,0.586,1.938v4.539H113.596z"/>
			<path fill="#FFFFFF" d="M119.622,532.362c-1.027,0-1.837-0.313-2.431-0.939s-0.891-1.496-0.891-2.609
				c0-1.121,0.276-2.012,0.827-2.672c0.552-0.66,1.292-0.99,2.222-0.99c0.871,0,1.559,0.287,2.066,0.86s0.761,1.329,0.761,2.269
				v0.667h-4.786c0.021,0.816,0.227,1.437,0.618,1.86c0.391,0.423,0.941,0.635,1.651,0.635c0.748,0,1.487-0.157,2.219-0.471v0.939
				c-0.372,0.161-0.724,0.276-1.056,0.347C120.492,532.327,120.091,532.362,119.622,532.362z M119.337,526.034
				c-0.558,0-1.003,0.182-1.334,0.545c-0.332,0.364-0.527,0.868-0.586,1.512h3.632c0-0.665-0.148-1.174-0.444-1.527
				S119.886,526.034,119.337,526.034z"/>
			<path fill="#FFFFFF" d="M128.595,532.235v-4.5c0-0.567-0.129-0.99-0.387-1.27s-0.662-0.42-1.211-0.42
				c-0.727,0-1.259,0.197-1.597,0.591c-0.338,0.394-0.507,1.043-0.507,1.948v3.65h-1.052v-6.957h0.856l0.171,0.952h0.051
				c0.215-0.343,0.518-0.608,0.907-0.797c0.389-0.188,0.822-0.282,1.299-0.282c0.837,0,1.466,0.202,1.889,0.606
				c0.422,0.404,0.634,1.05,0.634,1.938v4.539H128.595z"/>
			<path fill="#FFFFFF" d="M133.923,531.493c0.186,0,0.365-0.015,0.539-0.042s0.311-0.056,0.412-0.085v0.806
				c-0.114,0.055-0.282,0.101-0.504,0.137c-0.222,0.036-0.421,0.054-0.599,0.054c-1.344,0-2.016-0.709-2.016-2.127v-4.139h-0.996
				v-0.508l0.996-0.438l0.444-1.485h0.608v1.612h2.016v0.818h-2.016v4.095c0,0.419,0.099,0.74,0.298,0.965
				S133.577,531.493,133.923,531.493z"/>
		</g>
	</g>
	<g>
		<g>
			<path fill="#FFFFFF" d="M317.964,668.919v6.005c0,1.058-0.319,1.89-0.957,2.494c-0.638,0.605-1.515,0.908-2.631,0.908
				s-1.979-0.305-2.589-0.914c-0.611-0.609-0.916-1.447-0.916-2.514v-5.979h1.078v6.056c0,0.774,0.211,1.369,0.634,1.783
				c0.423,0.415,1.044,0.623,1.864,0.623c0.782,0,1.384-0.209,1.807-0.626s0.634-1.015,0.634-1.793v-6.043H317.964z"/>
			<path fill="#FFFFFF" d="M324.883,678.2v-4.5c0-0.567-0.129-0.99-0.387-1.27s-0.662-0.42-1.211-0.42
				c-0.727,0-1.259,0.197-1.597,0.591c-0.338,0.394-0.507,1.043-0.507,1.948v3.65h-1.052v-6.957h0.856l0.171,0.952h0.051
				c0.215-0.343,0.518-0.608,0.907-0.797c0.389-0.188,0.822-0.282,1.299-0.282c0.837,0,1.466,0.202,1.889,0.606
				c0.422,0.404,0.634,1.05,0.634,1.938v4.539H324.883z"/>
			<path fill="#FFFFFF" d="M327.879,669.358c0-0.242,0.059-0.418,0.178-0.53c0.118-0.112,0.266-0.169,0.444-0.169
				c0.169,0,0.314,0.058,0.437,0.172s0.184,0.29,0.184,0.527c0,0.236-0.062,0.413-0.184,0.529s-0.268,0.175-0.437,0.175
				c-0.178,0-0.326-0.059-0.444-0.175C327.938,669.771,327.879,669.594,327.879,669.358z M329.02,678.2h-1.052v-6.957h1.052V678.2z"
				/>
			<path fill="#FFFFFF" d="M333.587,678.327c-0.896,0-1.595-0.315-2.098-0.945c-0.503-0.631-0.754-1.512-0.754-2.641
				c0-1.139,0.253-2.027,0.761-2.666c0.507-0.64,1.213-0.959,2.117-0.959c0.951,0,1.682,0.359,2.193,1.079h0.057l0.152-0.952h0.83
				v10.08h-1.052v-2.977c0-0.424,0.023-0.783,0.07-1.08h-0.083C335.295,677.973,334.564,678.327,333.587,678.327z M333.746,677.444
				c0.701,0,1.213-0.188,1.534-0.564c0.321-0.377,0.492-1.012,0.513-1.904v-0.234c0-0.974-0.165-1.674-0.494-2.102
				c-0.33-0.428-0.852-0.641-1.566-0.641c-0.617,0-1.089,0.239-1.417,0.72s-0.491,1.159-0.491,2.034
				c0,0.877,0.162,1.544,0.485,2.003S333.112,677.444,333.746,677.444z"/>
			<path fill="#FFFFFF" d="M339.937,671.243v4.514c0,0.566,0.129,0.99,0.387,1.27s0.661,0.418,1.211,0.418
				c0.727,0,1.258-0.198,1.594-0.596c0.336-0.398,0.504-1.048,0.504-1.949v-3.656h1.053v6.957h-0.869l-0.152-0.934h-0.057
				c-0.215,0.344-0.515,0.605-0.896,0.787c-0.383,0.183-0.819,0.273-1.31,0.273c-0.845,0-1.478-0.201-1.898-0.604
				c-0.421-0.401-0.631-1.045-0.631-1.93v-4.551H339.937z"/>
			<path fill="#FFFFFF" d="M349.722,678.327c-1.027,0-1.838-0.313-2.432-0.939s-0.891-1.496-0.891-2.609
				c0-1.121,0.275-2.012,0.827-2.672s1.292-0.99,2.222-0.99c0.871,0,1.56,0.287,2.066,0.86c0.508,0.573,0.762,1.329,0.762,2.269
				v0.667h-4.787c0.021,0.816,0.228,1.437,0.619,1.86c0.391,0.423,0.941,0.635,1.65,0.635c0.748,0,1.488-0.157,2.219-0.471v0.939
				c-0.371,0.161-0.723,0.276-1.055,0.347C350.591,678.292,350.19,678.327,349.722,678.327z M349.437,671.999
				c-0.559,0-1.004,0.182-1.335,0.545c-0.332,0.364-0.527,0.868-0.587,1.512h3.633c0-0.665-0.148-1.174-0.443-1.527
				C350.407,672.174,349.985,671.999,349.437,671.999z"/>
			<path fill="#FFFFFF" d="M302.715,691.025l-1.154-2.951h-3.715l-1.141,2.951h-1.09l3.664-9.318h0.907l3.645,9.318H302.715z
				 M301.225,687.102l-1.078-2.876c-0.14-0.363-0.283-0.81-0.431-1.339c-0.093,0.406-0.226,0.853-0.399,1.339l-1.09,2.876H301.225z"
				/>
			<path fill="#FFFFFF" d="M308.049,691.152c-0.452,0-0.865-0.084-1.239-0.251s-0.688-0.424-0.941-0.771h-0.076
				c0.051,0.406,0.076,0.791,0.076,1.154v2.863h-1.052v-10.08h0.856l0.146,0.952h0.051c0.271-0.381,0.585-0.656,0.945-0.825
				c0.359-0.169,0.771-0.254,1.236-0.254c0.921,0,1.632,0.315,2.133,0.945c0.5,0.631,0.751,1.516,0.751,2.654
				c0,1.143-0.254,2.029-0.764,2.662S308.954,691.152,308.049,691.152z M307.897,684.835c-0.71,0-1.224,0.197-1.541,0.591
				s-0.48,1.02-0.488,1.879v0.235c0,0.977,0.163,1.677,0.488,2.098c0.325,0.421,0.847,0.631,1.565,0.631
				c0.6,0,1.07-0.243,1.411-0.729s0.51-1.157,0.51-2.013c0-0.867-0.17-1.532-0.51-1.996
				C308.993,685.068,308.514,684.835,307.897,684.835z"/>
			<path fill="#FFFFFF" d="M315.875,691.152c-0.452,0-0.865-0.084-1.239-0.251s-0.688-0.424-0.941-0.771h-0.076
				c0.051,0.406,0.076,0.791,0.076,1.154v2.863h-1.052v-10.08h0.856l0.146,0.952h0.051c0.271-0.381,0.585-0.656,0.945-0.825
				c0.359-0.169,0.771-0.254,1.236-0.254c0.921,0,1.632,0.315,2.133,0.945c0.5,0.631,0.751,1.516,0.751,2.654
				c0,1.143-0.254,2.029-0.764,2.662S316.779,691.152,315.875,691.152z M315.723,684.835c-0.71,0-1.224,0.197-1.541,0.591
				s-0.48,1.02-0.488,1.879v0.235c0,0.977,0.163,1.677,0.488,2.098c0.325,0.421,0.847,0.631,1.565,0.631
				c0.6,0,1.07-0.243,1.411-0.729s0.51-1.157,0.51-2.013c0-0.867-0.17-1.532-0.51-1.996
				C316.818,685.068,316.34,684.835,315.723,684.835z"/>
			<path fill="#FFFFFF" d="M323.403,691.152c-1.027,0-1.837-0.313-2.431-0.939s-0.891-1.496-0.891-2.609
				c0-1.121,0.276-2.012,0.827-2.672c0.552-0.66,1.292-0.99,2.222-0.99c0.871,0,1.559,0.287,2.066,0.86s0.761,1.329,0.761,2.269
				v0.667h-4.786c0.021,0.816,0.227,1.437,0.618,1.86c0.391,0.423,0.941,0.635,1.651,0.635c0.748,0,1.487-0.157,2.219-0.471v0.939
				c-0.372,0.161-0.724,0.276-1.056,0.347C324.273,691.117,323.873,691.152,323.403,691.152z M323.118,684.824
				c-0.558,0-1.003,0.182-1.334,0.545c-0.332,0.364-0.527,0.868-0.586,1.512h3.632c0-0.665-0.148-1.174-0.444-1.527
				S323.667,684.824,323.118,684.824z"/>
			<path fill="#FFFFFF" d="M331.895,691.025l-0.209-0.99h-0.051c-0.347,0.436-0.692,0.731-1.037,0.886
				c-0.344,0.154-0.774,0.231-1.29,0.231c-0.688,0-1.229-0.178-1.62-0.533c-0.391-0.355-0.586-0.861-0.586-1.518
				c0-1.404,1.122-2.141,3.366-2.209l1.179-0.037v-0.432c0-0.547-0.117-0.949-0.352-1.21c-0.234-0.26-0.609-0.39-1.125-0.39
				c-0.579,0-1.234,0.178-1.965,0.533l-0.323-0.807c0.342-0.187,0.717-0.332,1.125-0.438c0.408-0.106,0.816-0.159,1.227-0.159
				c0.828,0,1.442,0.185,1.841,0.552c0.399,0.369,0.599,0.959,0.599,1.771v4.748H331.895z M329.518,690.283
				c0.655,0,1.169-0.181,1.543-0.54s0.561-0.863,0.561-1.511v-0.629l-1.052,0.045c-0.837,0.029-1.44,0.16-1.81,0.391
				c-0.37,0.23-0.555,0.589-0.555,1.076c0,0.381,0.115,0.67,0.346,0.869S329.103,690.283,329.518,690.283z"/>
			<path fill="#FFFFFF" d="M337.882,683.941c0.309,0,0.586,0.025,0.83,0.076l-0.146,0.978c-0.287-0.063-0.541-0.095-0.761-0.095
				c-0.563,0-1.043,0.229-1.441,0.686c-0.4,0.457-0.6,1.025-0.6,1.707v3.732h-1.052v-6.957h0.869l0.12,1.289h0.051
				c0.258-0.453,0.568-0.803,0.933-1.048C337.048,684.064,337.446,683.941,337.882,683.941z"/>
			<path fill="#FFFFFF" d="M344.155,691.025l-0.209-0.99h-0.051c-0.348,0.436-0.692,0.731-1.037,0.886
				c-0.344,0.154-0.774,0.231-1.29,0.231c-0.688,0-1.229-0.178-1.62-0.533c-0.391-0.355-0.586-0.861-0.586-1.518
				c0-1.404,1.122-2.141,3.366-2.209l1.179-0.037v-0.432c0-0.547-0.117-0.949-0.352-1.21c-0.234-0.26-0.609-0.39-1.125-0.39
				c-0.579,0-1.234,0.178-1.965,0.533l-0.324-0.807c0.343-0.187,0.718-0.332,1.126-0.438c0.407-0.106,0.816-0.159,1.227-0.159
				c0.828,0,1.442,0.185,1.841,0.552c0.4,0.369,0.6,0.959,0.6,1.771v4.748H344.155z M341.778,690.283
				c0.654,0,1.169-0.181,1.543-0.54s0.561-0.863,0.561-1.511v-0.629l-1.052,0.045c-0.837,0.029-1.44,0.16-1.81,0.391
				c-0.37,0.23-0.555,0.589-0.555,1.076c0,0.381,0.115,0.67,0.346,0.869S341.363,690.283,341.778,690.283z"/>
			<path fill="#FFFFFF" d="M351.728,691.025v-4.5c0-0.567-0.129-0.99-0.387-1.27s-0.662-0.42-1.211-0.42
				c-0.727,0-1.26,0.197-1.598,0.591s-0.508,1.043-0.508,1.948v3.65h-1.052v-6.957h0.856l0.17,0.952h0.051
				c0.216-0.343,0.518-0.608,0.907-0.797c0.389-0.188,0.821-0.282,1.3-0.282c0.836,0,1.466,0.202,1.889,0.606
				c0.422,0.404,0.634,1.05,0.634,1.938v4.539H351.728z"/>
			<path fill="#FFFFFF" d="M357.588,691.152c-1.006,0-1.784-0.31-2.336-0.93s-0.827-1.497-0.827-2.631
				c0-1.164,0.279-2.063,0.84-2.698s1.357-0.952,2.393-0.952c0.334,0,0.668,0.036,1.002,0.107c0.334,0.072,0.596,0.157,0.786,0.254
				l-0.323,0.896c-0.232-0.093-0.486-0.17-0.761-0.231s-0.518-0.092-0.729-0.092c-1.411,0-2.117,0.9-2.117,2.703
				c0,0.855,0.173,1.512,0.518,1.969c0.344,0.457,0.854,0.686,1.53,0.686c0.579,0,1.173-0.125,1.782-0.375v0.934
				C358.879,691.031,358.294,691.152,357.588,691.152z"/>
			<path fill="#FFFFFF" d="M363.798,691.152c-1.027,0-1.838-0.313-2.432-0.939s-0.891-1.496-0.891-2.609
				c0-1.121,0.275-2.012,0.827-2.672s1.292-0.99,2.222-0.99c0.871,0,1.56,0.287,2.066,0.86c0.508,0.573,0.762,1.329,0.762,2.269
				v0.667h-4.787c0.021,0.816,0.228,1.437,0.619,1.86c0.391,0.423,0.941,0.635,1.65,0.635c0.748,0,1.488-0.157,2.219-0.471v0.939
				c-0.371,0.161-0.723,0.276-1.055,0.347C364.667,691.117,364.267,691.152,363.798,691.152z M363.513,684.824
				c-0.559,0-1.004,0.182-1.335,0.545c-0.332,0.364-0.527,0.868-0.587,1.512h3.633c0-0.665-0.148-1.174-0.443-1.527
				C364.483,685,364.062,684.824,363.513,684.824z"/>
		</g>
	</g>
	<g>
		<g>
			<path fill="#FFFFFF" d="M271.519,632.359v-14.277h2.331v12.275h6.037v2.002H271.519z"/>
			<path fill="#FFFFFF" d="M294.803,625.201c0,2.324-0.58,4.131-1.741,5.42s-2.804,1.934-4.93,1.934
				c-2.152,0-3.806-0.64-4.959-1.919c-1.154-1.279-1.731-3.098-1.731-5.454s0.58-4.167,1.741-5.43s2.817-1.895,4.969-1.895
				c2.12,0,3.758,0.642,4.916,1.924S294.803,622.87,294.803,625.201z M283.919,625.201c0,1.758,0.354,3.091,1.063,3.999
				s1.759,1.362,3.15,1.362c1.385,0,2.43-0.449,3.135-1.348s1.058-2.236,1.058-4.014c0-1.751-0.35-3.079-1.048-3.984
				c-0.699-0.905-1.741-1.357-3.126-1.357c-1.398,0-2.453,0.452-3.165,1.357S283.919,623.45,283.919,625.201z"/>
			<path fill="#FFFFFF" d="M310.324,625.201c0,2.324-0.58,4.131-1.741,5.42s-2.804,1.934-4.93,1.934
				c-2.152,0-3.806-0.64-4.959-1.919c-1.154-1.279-1.731-3.098-1.731-5.454s0.58-4.167,1.741-5.43s2.817-1.895,4.969-1.895
				c2.12,0,3.758,0.642,4.916,1.924S310.324,622.87,310.324,625.201z M299.44,625.201c0,1.758,0.354,3.091,1.063,3.999
				s1.759,1.362,3.15,1.362c1.385,0,2.43-0.449,3.135-1.348s1.058-2.236,1.058-4.014c0-1.751-0.35-3.079-1.048-3.984
				c-0.699-0.905-1.741-1.357-3.126-1.357c-1.398,0-2.453,0.452-3.165,1.357S299.44,623.45,299.44,625.201z"/>
			<path fill="#FFFFFF" d="M324.071,632.359h-2.701l-4.477-6.465l-1.375,1.123v5.342h-2.331v-14.277h2.331v6.816
				c0.637-0.781,1.271-1.533,1.901-2.256l3.853-4.561h2.653c-2.49,2.93-4.275,5.017-5.354,6.26L324.071,632.359z"/>
			<path fill="#FFFFFF" d="M329.796,628.58c0-0.853,0.208-1.597,0.625-2.231c0.416-0.635,1.167-1.265,2.253-1.89
				c-0.618-0.723-1.039-1.333-1.263-1.831s-0.336-1.014-0.336-1.548c0-0.989,0.353-1.771,1.058-2.344s1.653-0.859,2.843-0.859
				c1.151,0,2.055,0.278,2.712,0.835c0.656,0.557,0.984,1.307,0.984,2.251c0,0.742-0.219,1.416-0.658,2.021
				s-1.172,1.211-2.199,1.816l3.375,3.262c0.525-0.696,0.965-1.719,1.316-3.066h2.359c-0.455,1.849-1.184,3.356-2.184,4.521
				l2.936,2.842h-2.955l-1.453-1.416c-0.664,0.534-1.371,0.936-2.121,1.206c-0.752,0.271-1.583,0.405-2.493,0.405
				c-1.495,0-2.669-0.354-3.521-1.064C330.222,630.78,329.796,629.81,329.796,628.58z M334.711,630.582
				c1.19,0,2.208-0.349,3.053-1.045l-3.736-3.682c-0.689,0.442-1.164,0.857-1.424,1.245c-0.26,0.388-0.39,0.828-0.39,1.323
				c0,0.638,0.226,1.157,0.678,1.558C333.344,630.381,333.951,630.582,334.711,630.582z M333.258,621.158
				c0,0.41,0.109,0.798,0.327,1.162s0.522,0.752,0.912,1.162c0.734-0.417,1.25-0.806,1.545-1.167
				c0.297-0.361,0.444-0.767,0.444-1.216c0-0.423-0.142-0.762-0.425-1.016c-0.282-0.254-0.658-0.381-1.126-0.381
				c-0.514,0-0.921,0.132-1.224,0.396S333.258,620.715,333.258,621.158z"/>
			<path fill="#FFFFFF" d="M352.627,632.359h-2.312v-14.277h8.046v1.973h-5.734v4.463h5.374v1.982h-5.374V632.359z"/>
			<path fill="#FFFFFF" d="M368.812,632.359h-8.065v-14.277h8.065v1.973h-5.734v3.887h5.374v1.953h-5.374v4.482h5.734V632.359z"/>
			<path fill="#FFFFFF" d="M379.76,632.359h-8.065v-14.277h8.065v1.973h-5.734v3.887h5.374v1.953h-5.374v4.482h5.734V632.359z"/>
			<path fill="#FFFFFF" d="M382.642,632.359v-14.277h2.331v12.275h6.037v2.002H382.642z"/>
			<path fill="#FFFFFF" d="M291.685,649.083c0,2.356-0.653,4.158-1.96,5.405c-1.307,1.247-3.189,1.87-5.647,1.87h-3.989v-14.277
				h4.408c2.269,0,4.034,0.612,5.295,1.836C291.054,645.141,291.685,646.864,291.685,649.083z M289.227,649.162
				c0-3.418-1.596-5.127-4.789-5.127h-2.019v10.361h1.658C287.511,654.396,289.227,652.651,289.227,649.162z"/>
			<path fill="#FFFFFF" d="M302.613,656.359h-8.065v-14.277h8.065v1.973h-5.734v3.887h5.374v1.953h-5.374v4.482h5.734V656.359z"/>
			<path fill="#FFFFFF" d="M313.716,652.482c0,1.27-0.458,2.266-1.375,2.988c-0.917,0.723-2.181,1.084-3.793,1.084
				c-1.613,0-2.933-0.251-3.96-0.752v-2.207c0.65,0.306,1.341,0.547,2.073,0.723s1.412,0.264,2.043,0.264
				c0.923,0,1.604-0.176,2.043-0.527c0.438-0.352,0.658-0.823,0.658-1.416c0-0.534-0.202-0.986-0.605-1.357
				c-0.403-0.371-1.235-0.811-2.497-1.318c-1.3-0.527-2.217-1.13-2.75-1.807c-0.533-0.677-0.8-1.491-0.8-2.441
				c0-1.191,0.422-2.129,1.268-2.813s1.98-1.025,3.404-1.025c1.365,0,2.724,0.3,4.077,0.898l-0.741,1.904
				c-1.268-0.534-2.399-0.801-3.394-0.801c-0.754,0-1.326,0.164-1.716,0.493s-0.585,0.764-0.585,1.304
				c0,0.371,0.078,0.688,0.234,0.952s0.413,0.513,0.771,0.747c0.357,0.234,1.001,0.544,1.931,0.928
				c1.046,0.437,1.814,0.843,2.301,1.221c0.488,0.378,0.845,0.804,1.073,1.279S313.716,651.837,313.716,652.482z"/>
			<path fill="#FFFFFF" d="M316.277,656.359v-14.277h2.331v14.277H316.277z"/>
			<path fill="#FFFFFF" d="M328.004,648.615h5.247v7.168c-0.858,0.28-1.683,0.479-2.473,0.596c-0.79,0.117-1.643,0.176-2.56,0.176
				c-2.159,0-3.823-0.64-4.993-1.919s-1.755-3.084-1.755-5.415c0-2.298,0.66-4.097,1.979-5.396s3.137-1.948,5.452-1.948
				c1.489,0,2.899,0.286,4.232,0.859l-0.819,1.943c-1.157-0.534-2.314-0.801-3.472-0.801c-1.521,0-2.725,0.479-3.608,1.436
				c-0.885,0.957-1.327,2.266-1.327,3.926c0,1.745,0.398,3.071,1.195,3.979s1.942,1.362,3.438,1.362c0.754,0,1.56-0.095,2.418-0.283
				v-3.682h-2.955V648.615z"/>
			<path fill="#FFFFFF" d="M348.353,656.359h-2.857l-7.012-11.377h-0.078l0.049,0.635c0.092,1.211,0.137,2.317,0.137,3.32v7.422
				h-2.116v-14.277h2.829l6.992,11.318h0.059c-0.014-0.149-0.039-0.695-0.078-1.636s-0.059-1.675-0.059-2.202v-7.48h2.135V656.359z"
				/>
			<path fill="#FFFFFF" d="M350.836,650.88c0-1.726,0.252-3.34,0.756-4.844s1.23-2.822,2.18-3.955h1.999
				c-0.903,1.224-1.596,2.596-2.077,4.116s-0.722,3.074-0.722,4.663s0.24,3.128,0.722,4.619s1.167,2.839,2.058,4.043h-1.979
				c-0.956-1.106-1.685-2.399-2.185-3.877C351.086,654.168,350.836,652.58,350.836,650.88z"/>
			<path fill="#FFFFFF" d="M369.225,642.082v9.238c0,1.055-0.226,1.978-0.678,2.769s-1.105,1.399-1.96,1.826
				c-0.855,0.427-1.878,0.64-3.067,0.64c-1.769,0-3.144-0.469-4.125-1.406c-0.982-0.938-1.473-2.227-1.473-3.867v-9.199h2.34v9.033
				c0,1.179,0.273,2.048,0.819,2.607c0.547,0.56,1.385,0.84,2.517,0.84c2.197,0,3.296-1.155,3.296-3.467v-9.014H369.225z"/>
			<path fill="#FFFFFF" d="M372.672,656.359v-14.277h2.331v14.277H372.672z"/>
			<path fill="#FFFFFF" d="M382.215,650.88c0,1.712-0.252,3.308-0.756,4.785s-1.23,2.764-2.18,3.857H377.3
				c0.897-1.218,1.585-2.568,2.063-4.053c0.479-1.484,0.717-3.021,0.717-4.609c0-1.595-0.24-3.149-0.722-4.663
				c-0.48-1.514-1.173-2.886-2.077-4.116h1.999c0.956,1.14,1.685,2.463,2.185,3.97C381.965,647.558,382.215,649.168,382.215,650.88z
				"/>
		</g>
	</g>
	<g opacity="0.5">
		<path fill="#2EAEB7" d="M433.292,631.477l-0.713-1.914c1.592-0.596,3.18-1.207,4.76-1.828l0.748,1.9
			C436.495,630.262,434.897,630.875,433.292,631.477z"/>
		<path fill="#2EAEB7" d="M237.811,631.17c-1.598-0.604-3.191-1.219-4.773-1.85l0.753-1.896c1.573,0.625,3.153,1.236,4.741,1.834
			L237.811,631.17z"/>
		<path fill="#2EAEB7" d="M442.849,627.706l-0.785-1.887c1.57-0.652,3.133-1.318,4.688-2.002l0.818,1.873
			C446.005,626.375,444.429,627.049,442.849,627.706z"/>
		<path fill="#2EAEB7" d="M228.316,627.391c-1.569-0.656-3.131-1.33-4.687-2.016l0.824-1.869c1.543,0.68,3.092,1.348,4.65,2
			L228.316,627.391z"/>
		<path fill="#2EAEB7" d="M452.253,623.584l-0.852-1.855c1.543-0.711,3.08-1.438,4.609-2.174l0.885,1.84
			C455.356,622.139,453.81,622.868,452.253,623.584z"/>
		<path fill="#2EAEB7" d="M218.98,623.27c-1.543-0.717-3.08-1.445-4.608-2.189l0.891-1.84c1.518,0.74,3.043,1.465,4.576,2.176
			L218.98,623.27z"/>
		<path fill="#2EAEB7" d="M461.497,619.122l-0.92-1.824c1.516-0.768,3.023-1.549,4.523-2.342l0.955,1.805
			C464.544,617.561,463.024,618.346,461.497,619.122z"/>
		<path fill="#2EAEB7" d="M209.801,618.807c-1.516-0.771-3.027-1.559-4.529-2.357l0.959-1.807c1.49,0.795,2.988,1.576,4.494,2.342
			L209.801,618.807z"/>
		<path fill="#2EAEB7" d="M470.567,614.317l-0.988-1.787c1.486-0.822,2.965-1.658,4.434-2.506l1.02,1.768
			C473.552,612.649,472.063,613.491,470.567,614.317z"/>
		<path fill="#2EAEB7" d="M200.788,614.006c-1.488-0.828-2.97-1.67-4.44-2.523l1.022-1.768c1.463,0.848,2.932,1.684,4.41,2.506
			L200.788,614.006z"/>
		<path fill="#2EAEB7" d="M479.45,609.186l-1.051-1.75c1.453-0.877,2.9-1.768,4.336-2.668l1.084,1.73
			C482.372,607.407,480.917,608.303,479.45,609.186z"/>
		<path fill="#2EAEB7" d="M191.953,608.875c-1.458-0.883-2.907-1.777-4.349-2.686l1.088-1.73c1.43,0.902,2.869,1.791,4.315,2.668
			L191.953,608.875z"/>
		<path fill="#2EAEB7" d="M488.138,603.731l-1.117-1.709c1.422-0.93,2.834-1.871,4.236-2.826l1.146,1.689
			C490.989,601.848,489.567,602.797,488.138,603.731z"/>
		<path fill="#2EAEB7" d="M183.307,603.422c-1.425-0.936-2.841-1.883-4.248-2.846l1.15-1.686c1.396,0.953,2.803,1.895,4.217,2.824
			L183.307,603.422z"/>
		<path fill="#2EAEB7" d="M496.614,597.963l-1.176-1.668c1.385-0.979,2.76-1.973,4.127-2.979l1.207,1.648
			C499.397,595.977,498.011,596.975,496.614,597.963z"/>
		<path fill="#2EAEB7" d="M174.863,597.655c-1.389-0.986-2.769-1.986-4.142-3l1.211-1.645c1.362,1.006,2.732,1.998,4.111,2.977
			L174.863,597.655z"/>
		<path fill="#2EAEB7" d="M504.874,591.889l-1.236-1.625c1.348-1.029,2.686-2.07,4.012-3.125l1.268,1.602
			C507.581,589.803,506.231,590.852,504.874,591.889z"/>
		<path fill="#2EAEB7" d="M166.637,591.579c-1.354-1.037-2.698-2.088-4.033-3.15l1.271-1.6c1.324,1.057,2.658,2.098,4.002,3.127
			L166.637,591.579z"/>
		<path fill="#2EAEB7" d="M512.903,585.52l-1.297-1.58c1.311-1.076,2.609-2.168,3.898-3.268l1.324,1.553
			C515.53,583.333,514.222,584.432,512.903,585.52z"/>
		<path fill="#2EAEB7" d="M158.631,585.206c-1.316-1.088-2.619-2.188-3.914-3.297l1.326-1.551c1.287,1.102,2.582,2.191,3.886,3.271
			L158.631,585.206z"/>
		<path fill="#2EAEB7" d="M61.828,420.549c-0.308-1.678-0.601-3.361-0.877-5.051l2.014-0.33c0.274,1.676,0.564,3.346,0.87,5.014
			L61.828,420.549z"/>
		<path fill="#2EAEB7" d="M611.614,411.352l-2.018-0.303c0.25-1.674,0.484-3.354,0.703-5.037l2.023,0.262
			C612.101,407.973,611.864,409.665,611.614,411.352z"/>
		<path fill="#2EAEB7" d="M60.167,410.432c-0.244-1.688-0.475-3.381-0.69-5.078l2.025-0.258c0.214,1.688,0.442,3.365,0.685,5.043
			L60.167,410.432z"/>
		<path fill="#2EAEB7" d="M612.938,401.186l-2.029-0.227c0.189-1.684,0.359-3.371,0.52-5.063l2.029,0.189
			C613.3,397.792,613.128,399.491,612.938,401.186z"/>
		<path fill="#2EAEB7" d="M58.879,400.262c-0.184-1.695-0.352-3.395-0.506-5.1l2.032-0.184c0.153,1.693,0.319,3.381,0.502,5.064
			L58.879,400.262z"/>
		<path fill="#2EAEB7" d="M613.888,390.979l-2.035-0.152c0.127-1.688,0.238-3.381,0.334-5.076l2.035,0.113
			C614.126,387.575,614.015,389.28,613.888,390.979z"/>
		<path fill="#2EAEB7" d="M57.963,390.055c-0.121-1.703-0.229-3.408-0.318-5.117l2.037-0.107c0.09,1.695,0.195,3.389,0.315,5.078
			L57.963,390.055z"/>
		<path fill="#2EAEB7" d="M614.464,380.745l-2.037-0.078c0.064-1.689,0.113-3.381,0.146-5.076l2.041,0.043
			C614.579,377.34,614.53,379.045,614.464,380.745z"/>
		<path fill="#2EAEB7" d="M57.419,379.817c-0.062-1.705-0.104-3.412-0.134-5.123l2.041-0.035c0.028,1.699,0.072,3.396,0.132,5.086
			L57.419,379.817z"/>
		<path fill="#2EAEB7" d="M614.671,370.504h-2.041v-0.628c0-1.694-0.014-3.39-0.045-5.083l2.041-0.036
			c0.031,1.704,0.045,3.413,0.045,5.125V370.504z"/>
		<path fill="#2EAEB7" d="M59.286,369.57l-2.04-0.002c0.003-1.713,0.02-3.422,0.052-5.127l2.039,0.039
			C59.305,366.175,59.289,367.871,59.286,369.57z"/>
		<path fill="#2EAEB7" d="M612.448,359.707c-0.063-1.699-0.139-3.393-0.23-5.084l2.039-0.11c0.092,1.702,0.168,3.409,0.229,5.122
			L612.448,359.707z"/>
		<path fill="#2EAEB7" d="M59.481,359.404l-2.039-0.076c0.063-1.709,0.142-3.417,0.236-5.12l2.037,0.114
			C59.622,356.014,59.544,357.707,59.481,359.404z"/>
		<path fill="#2EAEB7" d="M611.897,349.545c-0.123-1.693-0.26-3.387-0.414-5.071l2.033-0.185c0.152,1.699,0.291,3.4,0.416,5.108
			L611.897,349.545z"/>
		<path fill="#2EAEB7" d="M60.042,349.244l-2.034-0.152c0.125-1.704,0.267-3.408,0.423-5.106l2.031,0.188
			C60.306,345.858,60.167,347.549,60.042,349.244z"/>
		<path fill="#2EAEB7" d="M610.978,339.411c-0.186-1.689-0.383-3.374-0.6-5.054l2.023-0.258c0.217,1.691,0.418,3.387,0.604,5.088
			L610.978,339.411z"/>
		<path fill="#2EAEB7" d="M60.973,339.11l-2.029-0.224c0.189-1.703,0.393-3.398,0.61-5.09l2.023,0.262
			C61.361,335.738,61.159,337.422,60.973,339.11z"/>
		<path fill="#2EAEB7" d="M152.346,162.638l-1.354-1.527c1.276-1.135,2.563-2.258,3.86-3.369l1.326,1.552
			C154.891,160.397,153.613,161.513,152.346,162.638z"/>
		<path fill="#2EAEB7" d="M519.466,162.546c-1.266-1.125-2.543-2.238-3.83-3.338l1.328-1.553c1.295,1.11,2.582,2.23,3.855,3.364
			L519.466,162.546z"/>
		<path fill="#2EAEB7" d="M160.073,156.021l-1.299-1.577c1.316-1.088,2.645-2.163,3.98-3.226l1.271,1.599
			C162.696,153.874,161.379,154.941,160.073,156.021z"/>
		<path fill="#2EAEB7" d="M511.747,155.939c-1.309-1.077-2.623-2.142-3.947-3.197l1.268-1.599c1.336,1.062,2.66,2.135,3.977,3.219
			L511.747,155.939z"/>
		<path fill="#2EAEB7" d="M168.035,149.688l-1.239-1.623c1.357-1.04,2.723-2.066,4.098-3.08l1.211,1.645
			C170.738,147.637,169.381,148.655,168.035,149.688z"/>
		<path fill="#2EAEB7" d="M503.794,149.62c-1.344-1.027-2.697-2.043-4.061-3.048l1.209-1.645c1.373,1.011,2.736,2.034,4.092,3.071
			L503.794,149.62z"/>
		<path fill="#2EAEB7" d="M176.227,143.648l-1.18-1.667c1.393-0.988,2.797-1.965,4.209-2.928l1.148,1.689
			C179.002,141.698,177.61,142.667,176.227,143.648z"/>
		<path fill="#2EAEB7" d="M495.62,143.599c-1.381-0.978-2.77-1.944-4.17-2.897l1.148-1.689c1.41,0.961,2.809,1.934,4.199,2.918
			L495.62,143.599z"/>
		<path fill="#2EAEB7" d="M184.637,137.914l-1.119-1.709c1.43-0.938,2.869-1.861,4.315-2.772l1.087,1.73
			C187.483,136.067,186.054,136.983,184.637,137.914z"/>
		<path fill="#2EAEB7" d="M487.231,137.882c-1.412-0.927-2.836-1.841-4.27-2.743l1.086-1.729c1.441,0.909,2.877,1.83,4.301,2.762
			L487.231,137.882z"/>
		<path fill="#2EAEB7" d="M193.253,132.489l-1.054-1.748c1.461-0.883,2.934-1.755,4.416-2.612l1.02,1.769
			C196.167,130.748,194.706,131.613,193.253,132.489z"/>
		<path fill="#2EAEB7" d="M478.644,132.478c-1.445-0.873-2.902-1.734-4.363-2.58l1.02-1.77c1.475,0.854,2.943,1.721,4.396,2.602
			L478.644,132.478z"/>
		<path fill="#2EAEB7" d="M469.868,127.396c-1.479-0.82-2.961-1.627-4.457-2.419l0.957-1.806c1.506,0.8,3.002,1.613,4.488,2.438
			L469.868,127.396z"/>
		<path fill="#2EAEB7" d="M202.066,127.384l-0.988-1.787c1.494-0.828,2.998-1.644,4.509-2.448l0.956,1.805
			C205.043,125.751,203.549,126.562,202.066,127.384z"/>
		<path fill="#2EAEB7" d="M460.915,122.64c-1.506-0.765-3.02-1.516-4.539-2.253l0.889-1.838c1.533,0.742,3.057,1.499,4.572,2.269
			L460.915,122.64z"/>
		<path fill="#2EAEB7" d="M211.063,122.608l-0.922-1.823c1.525-0.773,3.059-1.534,4.6-2.281l0.887,1.842
			C214.098,121.085,212.577,121.841,211.063,122.608z"/>
		<path fill="#2EAEB7" d="M451.798,118.22c-1.533-0.709-3.072-1.403-4.617-2.083l0.82-1.871c1.559,0.686,3.107,1.385,4.652,2.097
			L451.798,118.22z"/>
		<path fill="#2EAEB7" d="M220.236,118.166l-0.854-1.856c1.553-0.717,3.113-1.419,4.681-2.108l0.819,1.871
			C223.325,116.755,221.778,117.454,220.236,118.166z"/>
		<path fill="#2EAEB7" d="M442.528,114.141c-1.557-0.651-3.119-1.288-4.689-1.912l0.752-1.9c1.582,0.629,3.156,1.271,4.723,1.925
			L442.528,114.141z"/>
		<path fill="#2EAEB7" d="M229.569,114.065l-0.785-1.886c1.578-0.658,3.164-1.304,4.757-1.934l0.75,1.899
			C232.709,112.772,231.134,113.411,229.569,114.065z"/>
		<path fill="#2EAEB7" d="M433.099,110.399c-1.586-0.596-3.178-1.176-4.775-1.743l0.68-1.926c1.611,0.57,3.215,1.157,4.811,1.755
			L433.099,110.399z"/>
		<polygon fill="#2EAEB7" points="511.991,154.772 516.849,148.99 519.421,156.093 521.993,163.198 514.563,161.876 
			507.134,160.555 		"/>
		<polygon fill="#2EAEB7" points="611.854,401.008 619.337,401.985 614.749,407.987 610.163,413.987 607.267,407.008 604.37,400.03 
					"/>
		<polygon fill="#2EAEB7" points="442.296,627.043 445.421,633.922 437.909,633.194 430.397,632.465 434.782,626.315 
			439.169,620.167 		"/>
		<polygon fill="#2EAEB7" points="157.566,578.522 164.969,579.995 159.995,585.678 155.02,591.36 152.592,584.204 150.165,577.051 
					"/>
		<polygon fill="#2EAEB7" points="64.819,331.306 67.713,338.285 60.231,337.306 52.747,336.327 57.336,330.326 61.924,324.328 		
			"/>
		<polygon fill="#2EAEB7" points="237.061,113.187 232.631,119.307 229.553,112.409 226.472,105.508 233.979,106.289 
			241.486,107.067 		"/>
	</g>
</g>
</svg>
