<?xml version="1.0" encoding="iso-8859-1"?>
<!-- Generator: Adobe Illustrator 19.0.0, SVG Export Plug-In . SVG Version: 6.00 Build 0)  -->
<svg version="1.1" id="Capa_1" xmlns="http://www.w3.org/2000/svg" xmlns:xlink="http://www.w3.org/1999/xlink" x="0px" y="0px"
	 viewBox="0 0 480 480" style="enable-background:new 0 0 480 480;" xml:space="preserve">
<rect y="8" style="fill:#3F708D;" width="480" height="464"/>
<polygon style="fill:#E15D2D;" points="368,200 368,120 336,120 336,128 280,168 152,168 152,192 112,208 112,272 152,288 152,312 
	216,312 232,368 272,368 256,312 280,312 336,344 336,352 368,352 368,272 408,256 408,216 "/>
<polygon style="fill:#E3DCD9;" points="216,200 280,240 216,280 "/>
<g>
	<rect x="32" y="40" style="fill:#FFBE00;" width="32" height="32"/>
	<rect x="96" y="40" style="fill:#FFBE00;" width="32" height="32"/>
	<rect x="160" y="40" style="fill:#FFBE00;" width="32" height="32"/>
	<rect x="224" y="40" style="fill:#FFBE00;" width="32" height="32"/>
	<rect x="288" y="40" style="fill:#FFBE00;" width="32" height="32"/>
	<rect x="352" y="40" style="fill:#FFBE00;" width="32" height="32"/>
	<rect x="416" y="40" style="fill:#FFBE00;" width="32" height="32"/>
	<rect x="32" y="408" style="fill:#FFBE00;" width="32" height="32"/>
	<rect x="96" y="408" style="fill:#FFBE00;" width="32" height="32"/>
	<rect x="160" y="408" style="fill:#FFBE00;" width="32" height="32"/>
	<rect x="224" y="408" style="fill:#FFBE00;" width="32" height="32"/>
	<rect x="288" y="408" style="fill:#FFBE00;" width="32" height="32"/>
	<rect x="352" y="408" style="fill:#FFBE00;" width="32" height="32"/>
	<rect x="416" y="408" style="fill:#FFBE00;" width="32" height="32"/>
</g>
<g>
</g>
<g>
</g>
<g>
</g>
<g>
</g>
<g>
</g>
<g>
</g>
<g>
</g>
<g>
</g>
<g>
</g>
<g>
</g>
<g>
</g>
<g>
</g>
<g>
</g>
<g>
</g>
<g>
</g>
</svg>
