<?xml version="1.0" encoding="iso-8859-1"?>
<!-- Generator: Adobe Illustrator 19.0.0, SVG Export Plug-In . SVG Version: 6.00 Build 0)  -->
<svg version="1.1" id="Capa_1" xmlns="http://www.w3.org/2000/svg" xmlns:xlink="http://www.w3.org/1999/xlink" x="0px" y="0px"
	 viewBox="0 0 469.657 469.657" style="enable-background:new 0 0 469.657 469.657;" xml:space="preserve">
<path style="fill:#E15D2D;" d="M411.778,92.708c4.444,7.277,7.051,15.798,7.051,24.949v208c0,26.51-21.49,48-48,48h-304
	c-9.151,0-17.672-2.607-24.949-7.051c8.43,13.805,23.59,23.051,40.949,23.051h304c26.51,0,48-21.49,48-48v-208
	C434.829,116.298,425.582,101.138,411.778,92.708z"/>
<path style="fill:#F88756;" d="M370.829,373.657c26.51,0,48-21.49,48-48v-208c0-9.151-2.607-17.672-7.051-24.949
	c-7.277-4.444-15.798-7.051-24.949-7.051h-304c-26.51,0-48,21.49-48,48v208c0,9.151,2.607,17.672,7.051,24.949
	c7.277,4.444,15.798,7.051,24.949,7.051H370.829z"/>
<g>
	
		<rect x="280.896" y="21.66" transform="matrix(-0.7071 0.7071 -0.7071 -0.7071 558.4316 -171.9894)" style="fill:#E15D2D;" width="67.88" height="16"/>
	
		<rect x="146.826" y="-4.284" transform="matrix(-0.7071 0.7071 -0.7071 -0.7071 285.2752 -58.8525)" style="fill:#E15D2D;" width="16" height="67.88"/>
</g>
<path style="fill:#2E5166;" d="M106.829,141.657h232v-8c0-8.837-7.164-16-16-16h-240c-8.836,0-16,7.163-16,16v208
	c0,8.836,7.164,16,16,16h8v-200C90.829,148.82,97.992,141.657,106.829,141.657z"/>
<path style="fill:#3F708D;" d="M338.829,341.657v-200h-232c-8.836,0-16,7.163-16,16v200h232
	C331.665,357.657,338.829,350.494,338.829,341.657z"/>
<g>
	<rect x="362.829" y="213.657" style="fill:#E3DCD9;" width="16" height="16"/>
	<rect x="394.829" y="213.657" style="fill:#E3DCD9;" width="16" height="16"/>
	<rect x="362.829" y="245.657" style="fill:#E3DCD9;" width="16" height="16"/>
	<rect x="394.829" y="245.657" style="fill:#E3DCD9;" width="16" height="16"/>
	<circle style="fill:#E3DCD9;" cx="386.829" cy="309.657" r="16"/>
	<circle style="fill:#E3DCD9;" cx="386.829" cy="165.657" r="16"/>
	<path style="fill:#E3DCD9;" d="M226.829,165.657l-64,64l40,8l48,48c21.333,0,32-10.667,32-32l-48-48L226.829,165.657z"/>
</g>
<rect x="174.547" y="260.693" transform="matrix(-0.7071 0.7071 -0.7071 -0.7071 542.5864 330.5844)" style="fill:#E15D2D;" width="56.56" height="33.944"/>
<g>
	
		<rect x="154.829" y="154.345" transform="matrix(-0.7071 0.7071 -0.7071 -0.7071 395.1038 167.6569)" style="fill:#FFBE00;" width="16" height="22.624"/>
	
		<rect x="182.827" y="140.729" transform="matrix(-0.8944 0.4472 -0.4472 -0.8944 428.4434 198.2049)" style="fill:#FFBE00;" width="16" height="17.888"/>
	
		<rect x="138.859" y="184.713" transform="matrix(-0.4472 0.8944 -0.8944 -0.4472 385.7486 148.9079)" style="fill:#FFBE00;" width="16" height="17.888"/>
</g>
<polygon style="fill:#E15D2D;" points="178.829,213.657 170.829,189.657 186.829,173.657 210.829,181.657 "/>
<path style="fill:#E0A700;" d="M161.163,66.671c-5.298,5.632-10.201,11.847-14.334,18.986l176,0v0
	c-8.613-14.877-20.152-26.284-33.179-34.618c-25.087,11.627-56.549,18.618-90.821,18.618
	C185.788,69.657,173.209,68.554,161.163,66.671z"/>
<path style="fill:#FFBE00;" d="M161.163,66.671c12.046,1.883,24.625,2.986,37.666,2.986c34.271,0,65.734-6.991,90.821-18.618
	C249.689,25.476,195.032,30.669,161.163,66.671z"/>
<polygon style="fill:#E0A700;" points="90.829,469.657 138.829,389.657 118.829,389.657 78.829,469.657 "/>
<g>
	<polygon style="fill:#FFBE00;" points="66.829,469.657 78.829,469.657 118.829,389.657 98.829,389.657 	"/>
	<polygon style="fill:#FFBE00;" points="330.829,389.657 378.829,469.657 390.829,469.657 350.829,389.657 	"/>
</g>
<polygon style="fill:#E0A700;" points="370.829,389.657 350.829,389.657 390.829,469.657 402.829,469.657 "/>
<g>
</g>
<g>
</g>
<g>
</g>
<g>
</g>
<g>
</g>
<g>
</g>
<g>
</g>
<g>
</g>
<g>
</g>
<g>
</g>
<g>
</g>
<g>
</g>
<g>
</g>
<g>
</g>
<g>
</g>
</svg>
