<?xml version="1.0" encoding="iso-8859-1"?>
<!-- Generator: Adobe Illustrator 19.0.0, SVG Export Plug-In . SVG Version: 6.00 Build 0)  -->
<svg version="1.1" id="Capa_1" xmlns="http://www.w3.org/2000/svg" xmlns:xlink="http://www.w3.org/1999/xlink" x="0px" y="0px"
	 viewBox="0 0 485.657 485.657" style="enable-background:new 0 0 485.657 485.657;" xml:space="preserve">
<path style="fill:#FFBE00;" d="M368.004,165.657v160c0,26.51-21.49,48-48,48h-16v104h-128v-104h-16c-26.51,0-48-21.49-48-48v-160
	c0-26.51,21.49-48,48-48h56v-32c-11.665-8.773-18.45-23.934-15.177-40.167c3.127-15.508,15.681-28.062,31.213-31.063
	c25.568-4.94,47.964,14.545,47.964,39.229c0,13.04-6.32,24.72-16,32v32h56C346.514,117.657,368.004,139.147,368.004,165.657z"/>
<circle style="fill:#3F708D;" cx="240.004" cy="245.657" r="96"/>
<circle style="fill:#E3DCD9;" cx="240.004" cy="245.657" r="64"/>
<circle style="fill:#E7343A;" cx="240.004" cy="245.657" r="32"/>
<g>
	
		<rect x="431.719" y="17.654" transform="matrix(-0.7071 0.7071 -0.7071 -0.7071 803.407 -281.4742)" style="fill:#2E5166;" width="56.56" height="16"/>
	
		<rect x="210.169" y="165.668" transform="matrix(-0.7071 0.7071 -0.7071 -0.7071 655.4073 75.8577)" style="fill:#2E5166;" width="203.649" height="16"/>
</g>
<polygon style="fill:#F88756;" points="408.004,37.657 376.004,69.657 376.004,109.657 416.004,109.657 448.004,77.657 
	408.004,77.657 "/>
<polygon style="fill:#E7343A;" points="440.004,45.657 440.004,5.657 408.004,37.657 408.004,77.657 448.004,77.657 480.004,45.657 
	"/>
<rect x="31.478" y="389.664" transform="matrix(-0.7071 0.7071 -0.7071 -0.7071 431.4822 616.6017)" style="fill:#2E5166;" width="113.121" height="16"/>
<polygon style="fill:#FFBE00;" points="48.004,437.657 48.004,389.657 0.004,485.657 96.004,437.657 "/>
<g>
</g>
<g>
</g>
<g>
</g>
<g>
</g>
<g>
</g>
<g>
</g>
<g>
</g>
<g>
</g>
<g>
</g>
<g>
</g>
<g>
</g>
<g>
</g>
<g>
</g>
<g>
</g>
<g>
</g>
</svg>
