<?xml version="1.0" encoding="iso-8859-1"?>
<!-- Generator: Adobe Illustrator 19.0.0, SVG Export Plug-In . SVG Version: 6.00 Build 0)  -->
<svg version="1.1" id="Capa_1" xmlns="http://www.w3.org/2000/svg" xmlns:xlink="http://www.w3.org/1999/xlink" x="0px" y="0px"
	 viewBox="0 0 464 464" style="enable-background:new 0 0 464 464;" xml:space="preserve">
<g>
	<path style="fill:#FE946F;" d="M324,32H220l-32,32l32,32l32-32h64l32,32l-6.171,21.6c-3.021,10.572-1.722,21.438,2.833,30.746
		L372,80L324,32z"/>
	<polygon style="fill:#FE946F;" points="52,48 52,96 156,96 108,48 	"/>
</g>
<path style="fill:#FFB398;" d="M340,0H52v48h56l48,48l72,72c17.673-17.673,17.673-46.327,0-64l-8-8l-32-32l32-32h104l48,48
	l-27.338,68.346C348.701,156.6,355.279,163.64,364,168l48-96L340,0z"/>
<rect x="204" y="416" style="fill:#2E5166;" width="176" height="16"/>
<path style="fill:#3F708D;" d="M364,400H220c-8.836,0-16,7.163-16,16h176C380,407.163,372.836,400,364,400z"/>
<rect x="188" y="448" style="fill:#2E5166;" width="208" height="16"/>
<path style="fill:#3F708D;" d="M380,432H204c-8.836,0-16,7.163-16,16h208C396,439.163,388.836,432,380,432z"/>
<polygon style="fill:#E15D2D;" points="292,232 252,280 337.913,326.261 292,288 292,264 340,276 340,256 "/>
<polygon style="fill:#F88756;" points="337.913,326.261 252,280 292,232 340,256 340,276 356,280 372,256 324,216 324,184 292,200 
	260,176 188,296 228,352 220,400 364,400 340,328 "/>
<g>
	<polygon style="fill:#E15D2D;" points="188,296 268,352 268,400 220,400 228,352 	"/>
	<polygon style="fill:#E15D2D;" points="324,184 308,208 324,216 	"/>
	<polygon style="fill:#E15D2D;" points="292,200 260,200 188,296 260,176 	"/>
</g>
<g>
</g>
<g>
</g>
<g>
</g>
<g>
</g>
<g>
</g>
<g>
</g>
<g>
</g>
<g>
</g>
<g>
</g>
<g>
</g>
<g>
</g>
<g>
</g>
<g>
</g>
<g>
</g>
<g>
</g>
</svg>
