<?xml version="1.0" encoding="iso-8859-1"?>
<!-- Generator: Adobe Illustrator 19.0.0, SVG Export Plug-In . SVG Version: 6.00 Build 0)  -->
<svg version="1.1" id="Capa_1" xmlns="http://www.w3.org/2000/svg" xmlns:xlink="http://www.w3.org/1999/xlink" x="0px" y="0px"
	 viewBox="0 0 485.656 485.656" style="enable-background:new 0 0 485.656 485.656;" xml:space="preserve">
<polygon style="fill:#3F708D;" points="186.828,141.656 218.828,141.656 242.828,165.656 266.828,141.656 346.828,141.656 
	346.828,13.656 138.828,13.656 138.828,109.656 186.828,109.656 "/>
<polygon style="fill:#F88756;" points="186.828,237.656 138.828,237.656 114.828,261.656 90.828,237.656 10.828,237.656 
	10.828,109.656 186.828,109.656 "/>
<polygon style="fill:#E3DCD9;" points="346.828,109.656 474.828,109.656 474.828,237.656 410.828,237.656 386.828,261.656 
	362.828,237.656 298.697,238.473 298.697,142.473 346.828,141.656 "/>
<g>
	<path style="fill:#F88756;" d="M112.484,24l-24-24L77.172,11.313l10.344,10.344H50.828c-4.418,0-8,3.582-8,8v56h16v-48h28.688
		L77.172,48l11.313,11.313l24-24C115.609,32.188,115.609,27.125,112.484,24z"/>
	<path style="fill:#F88756;" d="M442.828,77.656h-16v-40h-56v-16h64c4.418,0,8,3.582,8,8V77.656z"/>
	<path style="fill:#F88756;" d="M434.828,85.656c-2.047,0-4.094-0.781-5.656-2.344l-24-24L416.484,48l18.344,18.344L453.172,48
		l11.313,11.313l-24,24C438.922,84.875,436.875,85.656,434.828,85.656z"/>
</g>
<g>
	<rect x="42.828" y="165.656" style="fill:#E3DCD9;" width="16" height="16"/>
	<rect x="74.828" y="165.656" style="fill:#E3DCD9;" width="16" height="16"/>
	<rect x="106.828" y="165.656" style="fill:#E3DCD9;" width="16" height="16"/>
	<rect x="138.828" y="165.656" style="fill:#E3DCD9;" width="16" height="16"/>
</g>
<g>
	<rect x="186.828" y="69.656" style="fill:#F88756;" width="16" height="16"/>
	<rect x="218.828" y="69.656" style="fill:#F88756;" width="16" height="16"/>
	<rect x="250.828" y="69.656" style="fill:#F88756;" width="16" height="16"/>
	<rect x="282.828" y="69.656" style="fill:#F88756;" width="16" height="16"/>
	<rect x="330.828" y="165.656" style="fill:#F88756;" width="16" height="16"/>
	<rect x="362.828" y="165.656" style="fill:#F88756;" width="16" height="16"/>
	<rect x="394.828" y="165.656" style="fill:#F88756;" width="16" height="16"/>
	<rect x="426.828" y="165.656" style="fill:#F88756;" width="16" height="16"/>
</g>
<g>
	<path style="fill:#FFB398;" d="M462.828,453.656h-20v-8c0-8.837-7.164-16-16-16h-32v48h68c6.627,0,12-5.373,12-12
		S469.456,453.656,462.828,453.656z"/>
	<path style="fill:#FFB398;" d="M90.828,289.656c0-6.627-5.373-12-12-12s-12,5.373-12,12v20h-8c-8.836,0-16,7.163-16,16v32h48
		V289.656z"/>
</g>
<g>
	<path style="fill:#3F708D;" d="M170.828,357.656c-26.51,0-48,21.49-48,48v8c0,8.836-7.164,16-16,16s-16-7.164-16-16v-56h-48v72
		c0,26.51,21.49,48,48,48h32c26.51,0,48-21.49,48-48v56h32v-128H170.828z"/>
	<path style="fill:#3F708D;" d="M386.828,429.656c-8.836,0-16-7.164-16-16v-8c0-26.51-21.49-48-48-48h-40v128h40v-56
		c0,26.51,21.49,48,48,48h24v-48H386.828z"/>
</g>
<path style="fill:#FFB398;" d="M266.828,336.216c18.96-8.96,32-28.16,32-50.56c0-31.376-25.717-56.672-57.252-55.986
	c-29.24,0.637-53.836,24.999-54.721,54.233c-0.701,23.148,12.52,43.12,31.973,52.313v21.44h48V336.216z"/>
<polygon style="fill:#E7F6FE;" points="266.828,357.656 218.828,357.656 202.828,357.656 202.828,485.656 242.828,485.656 
	282.828,485.656 282.828,357.656 "/>
<g>
	<path style="fill:#F88756;" d="M226.828,309.656h32l0,0C253.051,324.1,232.605,324.1,226.828,309.656L226.828,309.656z"/>
	<polygon style="fill:#F88756;" points="226.828,373.656 242.828,357.656 258.828,373.656 250.828,389.656 266.828,461.656 
		242.828,485.656 218.828,461.656 234.828,389.656 	"/>
</g>
<g>
</g>
<g>
</g>
<g>
</g>
<g>
</g>
<g>
</g>
<g>
</g>
<g>
</g>
<g>
</g>
<g>
</g>
<g>
</g>
<g>
</g>
<g>
</g>
<g>
</g>
<g>
</g>
<g>
</g>
</svg>
