<?xml version="1.0" encoding="iso-8859-1"?>
<!-- Generator: Adobe Illustrator 19.0.0, SVG Export Plug-In . SVG Version: 6.00 Build 0)  -->
<svg version="1.1" id="Capa_1" xmlns="http://www.w3.org/2000/svg" xmlns:xlink="http://www.w3.org/1999/xlink" x="0px" y="0px"
	 viewBox="0 0 472 472" style="enable-background:new 0 0 472 472;" xml:space="preserve">
<rect x="272" y="144" style="fill:#3F708D;" width="160" height="128"/>
<polygon style="fill:#E3DCD9;" points="184,96 272,144 272,272 184,320 "/>
<g>
	<polygon style="fill:#F88756;" points="432,256 472,248 472,168 432,160 	"/>
	<path style="fill:#F88756;" d="M184,96v-8c0-8.837-7.163-16-16-16h0c-8.837,0-16,7.163-16,16v240c0,8.837,7.163,16,16,16h0
		c8.837,0,16-7.163,16-16v-8"/>
</g>
<polygon style="fill:#3F708D;" points="368,272 320,400 272,384 320,272 "/>
<polygon style="fill:#E15D2D;" points="152,240 104,232 104,184 152,176 "/>
<g>
	<rect y="200" style="fill:#F88756;" width="80" height="16"/>
	
		<rect x="51.995" y="68.398" transform="matrix(-0.7071 0.7071 -0.7071 -0.7071 178.7818 141.9351)" style="fill:#F88756;" width="16" height="79.192"/>
	
		<rect x="20.388" y="292.005" transform="matrix(-0.7071 0.7071 -0.7071 -0.7071 314.5353 469.7256)" style="fill:#F88756;" width="79.192" height="16"/>
</g>
<g>
</g>
<g>
</g>
<g>
</g>
<g>
</g>
<g>
</g>
<g>
</g>
<g>
</g>
<g>
</g>
<g>
</g>
<g>
</g>
<g>
</g>
<g>
</g>
<g>
</g>
<g>
</g>
<g>
</g>
</svg>
