<?xml version="1.0" encoding="iso-8859-1"?>
<!-- Generator: Adobe Illustrator 19.0.0, SVG Export Plug-In . SVG Version: 6.00 Build 0)  -->
<svg version="1.1" id="Capa_1" xmlns="http://www.w3.org/2000/svg" xmlns:xlink="http://www.w3.org/1999/xlink" x="0px" y="0px"
	 viewBox="0 0 472 472" style="enable-background:new 0 0 472 472;" xml:space="preserve">
<rect x="232" y="156" style="fill:#F88756;" width="32" height="160"/>
<g>
	<rect x="152" y="228" style="fill:#FFBE00;" width="32" height="16"/>
	
		<rect x="164.006" y="167.065" transform="matrix(-0.7071 0.7071 -0.7071 -0.7071 423.766 192.5435)" style="fill:#FFBE00;" width="16" height="33.944"/>
	
		<rect x="155.029" y="279.994" transform="matrix(-0.7071 0.7071 -0.7071 -0.7071 497.2675 370.0138)" style="fill:#FFBE00;" width="33.944" height="16"/>
</g>
<polygon style="fill:#E3DCD9;" points="264,164 312,196 312,276 264,308 "/>
<rect x="312" y="196" style="fill:#3F708D;" width="96" height="80"/>
<rect x="408" y="188" style="fill:#F88756;" width="32" height="96"/>
<g>
	<rect x="208" y="212" style="fill:#E15D2D;" width="24" height="48"/>
	<polygon style="fill:#E15D2D;" points="440,196 472,212 472,260 440,276 	"/>
</g>
<rect x="344" y="276" style="fill:#2E5166;" width="32" height="40"/>
<path style="fill:#FFB398;" d="M472,412v-56h-40l-40-40h-48c-8.836,0-16,7.163-16,16v8h-16v72H472z"/>
<path style="fill:#FE946F;" d="M312,412v-72h-8c-8.836,0-16,7.163-16,16v72c0,8.836,7.164,16,16,16h168v-32H312z"/>
<path style="fill:#FFB398;" d="M32,260h64v-77.21c-5.011-1.774-10.381-2.79-16-2.79h-8v56H32V132H0v296h32V260z"/>
<path style="fill:#FE946F;" d="M96,182.79V260H32v168H0v40h8c35.346,0,64-28.654,64-64V300h8c26.51,0,48-21.49,48-48v-24
	C128,207.109,114.631,189.386,96,182.79z"/>
<path style="fill:#FFBE00;" d="M56,132h48V84c0-22.091-17.909-40-40-40C64,21.909,46.091,4,24,4H0v128h32v104l24-24V132z"/>
<polygon style="fill:#E0A700;" points="56,132 56,212 32,236 72,236 72,180 80,180 104,148 104,132 "/>
<g>
</g>
<g>
</g>
<g>
</g>
<g>
</g>
<g>
</g>
<g>
</g>
<g>
</g>
<g>
</g>
<g>
</g>
<g>
</g>
<g>
</g>
<g>
</g>
<g>
</g>
<g>
</g>
<g>
</g>
</svg>
