<?xml version="1.0" encoding="iso-8859-1"?>
<!-- Generator: Adobe Illustrator 19.0.0, SVG Export Plug-In . SVG Version: 6.00 Build 0)  -->
<svg version="1.1" id="Capa_1" xmlns="http://www.w3.org/2000/svg" xmlns:xlink="http://www.w3.org/1999/xlink" x="0px" y="0px"
	 viewBox="0 0 477.647 477.647" style="enable-background:new 0 0 477.647 477.647;" xml:space="preserve">
<circle style="fill:#3F708D;" cx="232" cy="245.646" r="168"/>
<circle style="fill:#FFBE00;" cx="232" cy="245.646" r="104"/>
<path style="fill:#E15D2D;" d="M328.721,325.646L328.721,325.646c8.837,0,16-7.163,16-16v-128c0-8.837-7.163-16-16-16h0
	c-8.837,0-16,7.163-16,16v128C312.721,318.483,319.885,325.646,328.721,325.646z"/>
<g>
	<rect x="392.72" y="237.646" style="fill:#FFBE00;" width="32" height="16"/>
	
		<rect x="387.759" y="185.616" transform="matrix(-0.7071 0.7071 -0.7071 -0.7071 827.8262 44.3346)" style="fill:#FFBE00;" width="33.944" height="16"/>
	
		<rect x="396.727" y="280.68" transform="matrix(-0.7071 0.7071 -0.7071 -0.7071 901.3833 221.9391)" style="fill:#FFBE00;" width="16" height="33.944"/>
</g>
<polygon style="fill:#E3DCD9;" points="312.721,173.646 264.721,205.646 264.721,285.646 312.721,317.646 "/>
<rect x="128.72" y="205.646" style="fill:#E15D2D;" width="136" height="80"/>
<rect x="344.72" y="221.646" style="fill:#E3DCD9;" width="24" height="48"/>
<polygon style="fill:#E15D2D;" points="208.721,285.646 208,373.646 176,373.646 176.721,285.646 "/>
<path style="fill:#E3DCD9;" d="M128.721,205.646L128.721,205.646c-32.962,16.481-32.962,63.519,0,80l0,0V205.646z"/>
<g>
	<polygon style="fill:#FFBE00;" points="256,61.646 246.08,78.206 232,101.646 218,78.286 208,61.646 	"/>
	<polygon style="fill:#FFBE00;" points="88,245.646 64.64,259.646 48,269.646 48,221.646 64.64,231.646 	"/>
	<polygon style="fill:#FFBE00;" points="256,429.646 208,429.646 218,413.006 232,389.646 246,413.006 	"/>
</g>
<rect x="307.834" y="65.654" transform="matrix(-0.7071 0.7071 -0.7071 -0.7071 741.7431 -159.9324)" style="fill:#3F708D;" width="192.321" height="16"/>
<polygon style="fill:#E15D2D;" points="424,53.646 424,13.646 368,69.646 368,109.646 408,109.646 464,53.646 "/>
<rect x="8.847" y="381.643" transform="matrix(-0.7071 0.7071 -0.7071 -0.7071 425.8181 602.906)" style="fill:#3F708D;" width="158.393" height="16"/>
<polygon style="fill:#FFBE00;" points="72,453.646 0,477.646 24,405.646 32,445.646 "/>
<g>
</g>
<g>
</g>
<g>
</g>
<g>
</g>
<g>
</g>
<g>
</g>
<g>
</g>
<g>
</g>
<g>
</g>
<g>
</g>
<g>
</g>
<g>
</g>
<g>
</g>
<g>
</g>
<g>
</g>
</svg>
