<?xml version="1.0" encoding="iso-8859-1"?>
<!-- Generator: Adobe Illustrator 19.0.0, SVG Export Plug-In . SVG Version: 6.00 Build 0)  -->
<svg version="1.1" id="Capa_1" xmlns="http://www.w3.org/2000/svg" xmlns:xlink="http://www.w3.org/1999/xlink" x="0px" y="0px"
	 viewBox="0 0 480 480" style="enable-background:new 0 0 480 480;" xml:space="preserve">
<polyline style="fill:#E15D2D;" points="392,72 440,408 344,408 392,72 "/>
<polygon style="fill:#FFBE00;" points="56,408 344,408 392,72 104,72 "/>
<rect x="63.954" y="244.008" transform="matrix(-0.7071 0.7071 -0.7071 -0.7071 567.408 268.9885)" style="fill:#3F708D;" width="328.081" height="16"/>
<polygon style="fill:#F88756;" points="128,0 112,0 112,16 96,16 96,32 112,32 112,48 128,48 128,32 144,32 144,16 128,16 "/>
<polygon style="fill:#3F708D;" points="464,168 464,152 448,152 448,168 432,168 432,184 448,184 448,200 464,200 464,184 480,184 
	480,168 "/>
<polygon style="fill:#E15D2D;" points="32,272 16,272 16,288 0,288 0,304 16,304 16,320 32,320 32,304 48,304 48,288 32,288 "/>
<polygon style="fill:#E7343A;" points="288,432 272,432 272,448 256,448 256,464 272,464 272,480 288,480 288,464 304,464 304,448 
	288,448 "/>
<rect x="392" style="fill:#3F708D;" width="16" height="32"/>
<g>
	<rect x="88" y="432" style="fill:#F88756;" width="16" height="32"/>
	<rect x="448" y="440" style="fill:#F88756;" width="32" height="16"/>
</g>
<g>
	<rect y="136" style="fill:#3F708D;" width="32" height="16"/>
	<circle style="fill:#3F708D;" cx="272" cy="320" r="40"/>
	<circle style="fill:#3F708D;" cx="184" cy="160" r="40"/>
</g>
<g>
</g>
<g>
</g>
<g>
</g>
<g>
</g>
<g>
</g>
<g>
</g>
<g>
</g>
<g>
</g>
<g>
</g>
<g>
</g>
<g>
</g>
<g>
</g>
<g>
</g>
<g>
</g>
<g>
</g>
</svg>
