<?xml version="1.0" encoding="iso-8859-1"?>
<!-- Generator: Adobe Illustrator 19.0.0, SVG Export Plug-In . SVG Version: 6.00 Build 0)  -->
<svg version="1.1" id="Capa_1" xmlns="http://www.w3.org/2000/svg" xmlns:xlink="http://www.w3.org/1999/xlink" x="0px" y="0px"
	 viewBox="0 0 464.002 464.002" style="enable-background:new 0 0 464.002 464.002;" xml:space="preserve">
<path style="fill:#B9ACA9;" d="M168,0.001H16c-8.837,0-16,7.163-16,16v80h168V0.001z"/>
<g>
	<circle style="fill:#3F708D;" cx="232" cy="232.001" r="32"/>
	<path style="fill:#3F708D;" d="M314.344,237.657c-0.285-0.281-30.602-29.656-82.344-29.656c-58.676,0-80.723,27.668-81.633,28.844
		l-12.766-9.645c1.078-1.438,27.172-35.199,94.398-35.199c58.641,0,92.254,32.941,93.656,34.344L314.344,237.657z"/>
</g>
<path style="fill:#E3DCD9;" d="M0,16.001L0,16.001c0,8.837,7.163,16,16,16h144v96H16c-8.837,0-16-7.163-16-16V16.001"/>
<g>
	<rect x="32" y="64.001" style="fill:#F88756;" width="48" height="32"/>
	<rect x="104" y="56.001" style="fill:#F88756;" width="32" height="16"/>
	<rect x="104" y="88.001" style="fill:#F88756;" width="32" height="16"/>
</g>
<rect x="288" y="0.001" style="fill:#3F708D;" width="176" height="112"/>
<polyline style="fill:#B9ACA9;" points="360,112.001 360,160.001 400,160.001 400,112.001 "/>
<rect x="336" y="152.001" style="fill:#E3DCD9;" width="88" height="16"/>
<rect y="336.001" style="fill:#B9ACA9;" width="80" height="128"/>
<rect x="32" y="424.001" style="fill:#E3DCD9;" width="16" height="16"/>
<polygon style="fill:#F88756;" points="56,336.001 80,336.001 80,360.001 104,336.001 128,336.001 128,288.001 56,288.001 "/>
<polygon style="fill:#3F708D;" points="80,288.001 80,256.001 8,256.001 8,304.001 56,304.001 56,288.001 "/>
<polygon style="fill:#E3DCD9;" points="464,464.001 320,464.001 320,368.001 392,440.001 464,368.001 "/>
<rect x="341.089" y="317.078" transform="matrix(-0.7071 0.7071 -0.7071 -0.7071 929.3958 351.0121)" style="fill:#B9ACA9;" width="101.824" height="101.824"/>
<rect x="352" y="304.001" style="fill:#F88756;" width="80" height="96"/>
<g>
	<rect x="376" y="328.001" style="fill:#3F708D;" width="32" height="16"/>
	<rect x="376" y="360.001" style="fill:#3F708D;" width="32" height="16"/>
</g>
<g>
	<path style="fill:#E7343A;" d="M288,264.001v12.688l-10.344-10.344l-11.313,11.313l10.344,10.344H264v16h32c4.418,0,8-3.582,8-8
		v-32H288z"/>
	<path style="fill:#E7343A;" d="M187.313,288.001l10.344-10.344l-11.313-11.313L176,276.688v-12.688h-16v32c0,4.418,3.582,8,8,8h32
		v-16H187.313z"/>
</g>
<g>
	<path style="fill:#FFBE00;" d="M296,144.001h-32v16h12.688l-10.344,10.344l11.313,11.313L288,171.313v12.688h16v-32
		C304,147.583,300.418,144.001,296,144.001z"/>
	<path style="fill:#FFBE00;" d="M200,144.001h-32c-4.418,0-8,3.582-8,8v32h16v-12.688l10.344,10.344l11.313-11.313l-10.344-10.344
		H200V144.001z"/>
</g>
<rect x="304" y="16.001" style="fill:#2E5166;" width="144" height="80"/>
<g>
</g>
<g>
</g>
<g>
</g>
<g>
</g>
<g>
</g>
<g>
</g>
<g>
</g>
<g>
</g>
<g>
</g>
<g>
</g>
<g>
</g>
<g>
</g>
<g>
</g>
<g>
</g>
<g>
</g>
</svg>
