<?xml version="1.0" encoding="iso-8859-1"?>
<!-- Generator: Adobe Illustrator 19.0.0, SVG Export Plug-In . SVG Version: 6.00 Build 0)  -->
<svg version="1.1" id="Capa_1" xmlns="http://www.w3.org/2000/svg" xmlns:xlink="http://www.w3.org/1999/xlink" x="0px" y="0px"
	 viewBox="0 0 472 472" style="enable-background:new 0 0 472 472;" xml:space="preserve">
<circle style="fill:#F88756;" cx="28" cy="112" r="24"/>
<rect x="164" y="104" style="fill:#E15D2D;" width="32" height="16"/>
<circle style="fill:#F88756;" cx="212" cy="112" r="16"/>
<rect x="20" y="136" style="fill:#E15D2D;" width="16" height="64"/>
<rect x="4" y="200" style="fill:#F88756;" width="48" height="32"/>
<g>
	<path style="fill:#FFBE00;" d="M382.344,226.344L372,236.688V112c0-4.418-3.582-8-8-8H252v16h104v116.688l-10.344-10.344
		l-11.313,11.313l24,24c1.563,1.563,3.609,2.344,5.656,2.344s4.094-0.781,5.656-2.344l24-24L382.344,226.344z"/>
	<path style="fill:#FFBE00;" d="M116,368v-92.688l10.344,10.344l11.313-11.313l-24-24c-3.125-3.125-8.188-3.125-11.313,0l-24,24
		l11.313,11.313L100,275.313V376c0,4.418,3.582,8,8,8h112v-16H116z"/>
</g>
<path style="fill:#E15D2D;" d="M84,80c0,44.183,35.817,80,80,80v64c-61.856,0-112-50.144-112-112S102.144,0,164,0
	C119.817,0,84,35.817,84,80z"/>
<path style="fill:#F88756;" d="M84,80c0-44.183,35.817-80,80-80v160C119.817,160,84,124.183,84,80z"/>
<polygon style="fill:#345C74;" points="444,312 444,408 356,408 356,432 380,432 468,432 468,288 356,288 356,312 "/>
<polygon style="fill:#3F708D;" points="356,408 268,408 268,312 356,312 356,288 244,288 244,432 332,432 356,432 "/>
<polygon style="fill:#E3DCD9;" points="332,456 308,456 308,472 356,472 356,456 "/>
<polygon style="fill:#CAC4C1;" points="356,472 404,472 404,456 380,456 356,456 "/>
<rect x="356" y="312" style="fill:#233D4D;" width="88" height="96"/>
<rect x="268" y="312" style="fill:#2E5166;" width="88" height="96"/>
<rect x="332" y="432" style="fill:#B9ACA9;" width="24" height="24"/>
<rect x="356" y="432" style="fill:#A09592;" width="24" height="24"/>
<g>
</g>
<g>
</g>
<g>
</g>
<g>
</g>
<g>
</g>
<g>
</g>
<g>
</g>
<g>
</g>
<g>
</g>
<g>
</g>
<g>
</g>
<g>
</g>
<g>
</g>
<g>
</g>
<g>
</g>
</svg>
