<?xml version="1.0" encoding="iso-8859-1"?>
<!-- Generator: Adobe Illustrator 19.0.0, SVG Export Plug-In . SVG Version: 6.00 Build 0)  -->
<svg version="1.1" id="Capa_1" xmlns="http://www.w3.org/2000/svg" xmlns:xlink="http://www.w3.org/1999/xlink" x="0px" y="0px"
	 viewBox="0 0 493.956 493.956" style="enable-background:new 0 0 493.956 493.956;" xml:space="preserve">
<g>
	<rect x="238.976" y="46.963" style="fill:#FFBE00;" width="16" height="24"/>
	
		<rect x="440.34" y="22.94" transform="matrix(-0.7071 0.7071 -0.7071 -0.7071 812.2134 -274.549)" style="fill:#FFBE00;" width="45.256" height="16"/>
	<rect x="454.976" y="238.963" style="fill:#FFBE00;" width="32" height="16"/>
	<rect x="238.976" y="6.963" style="fill:#FFBE00;" width="16" height="24"/>
	<rect x="422.976" y="238.963" style="fill:#FFBE00;" width="16" height="16"/>
	
		<rect x="408.985" y="168.549" transform="matrix(-0.9238 0.3828 -0.3828 -0.9238 869.7917 180.0247)" style="fill:#FFBE00;" width="16" height="16"/>
	
		<rect x="389.368" y="80.562" transform="matrix(-0.7071 0.7071 -0.7071 -0.7071 754.6298 -135.4533)" style="fill:#FFBE00;" width="32" height="16"/>
	
		<rect x="369.079" y="108.881" transform="matrix(-0.7071 0.7071 -0.7071 -0.7071 726.3616 -67.1074)" style="fill:#FFBE00;" width="16" height="16"/>
	
		<rect x="309.396" y="68.975" transform="matrix(-0.3828 0.9238 -0.9238 -0.3828 510.0098 -186.777)" style="fill:#FFBE00;" width="16" height="16"/>
	
		<rect x="437.015" y="148.644" transform="matrix(-0.9238 0.3828 -0.3828 -0.9238 954.5737 123.3435)" style="fill:#FFBE00;" width="56" height="16"/>
	
		<rect x="309.287" y="20.933" transform="matrix(-0.3828 0.9238 -0.9238 -0.3828 493.1329 -271.5873)" style="fill:#FFBE00;" width="56" height="16"/>
	
		<rect x="22.979" y="8.338" transform="matrix(-0.7071 0.7071 -0.7071 -0.7071 74.7817 30.9569)" style="fill:#FFBE00;" width="16" height="45.256"/>
	<rect x="6.976" y="238.963" style="fill:#FFBE00;" width="32" height="16"/>
	<rect x="54.976" y="238.963" style="fill:#FFBE00;" width="16" height="16"/>
	
		<rect x="68.994" y="168.539" transform="matrix(-0.3827 0.9239 -0.9239 -0.3827 269.5592 172.9737)" style="fill:#FFBE00;" width="16" height="16"/>
	
		<rect x="80.615" y="72.571" transform="matrix(-0.7071 0.7071 -0.7071 -0.7071 213.9048 88.5406)" style="fill:#FFBE00;" width="16" height="32"/>
	
		<rect x="108.871" y="108.854" transform="matrix(-0.7071 0.7071 -0.7071 -0.7071 282.1391 116.8417)" style="fill:#FFBE00;" width="16" height="16"/>
	
		<rect x="168.578" y="68.964" transform="matrix(-0.9239 0.3827 -0.3827 -0.9239 369.1681 80.4864)" style="fill:#FFBE00;" width="16" height="16"/>
	
		<rect x="20.942" y="128.653" transform="matrix(-0.3827 0.9239 -0.9239 -0.3827 184.7452 189.8634)" style="fill:#FFBE00;" width="16" height="56"/>
	
		<rect x="148.662" y="0.93" transform="matrix(-0.9239 0.3827 -0.3827 -0.9239 312.4691 -4.2946)" style="fill:#FFBE00;" width="16" height="56"/>
	<rect x="238.976" y="422.963" style="fill:#FFBE00;" width="16" height="24"/>
	
		<rect x="454.967" y="440.327" transform="matrix(-0.7071 0.7071 -0.7071 -0.7071 1117.693 462.9463)" style="fill:#FFBE00;" width="16" height="45.256"/>
	<rect x="238.976" y="462.963" style="fill:#FFBE00;" width="16" height="24"/>
	
		<rect x="408.974" y="309.368" transform="matrix(-0.3827 0.9239 -0.9239 -0.3827 869.7657 53.6094)" style="fill:#FFBE00;" width="16" height="16"/>
	
		<rect x="397.369" y="389.355" transform="matrix(-0.7071 0.7071 -0.7071 -0.7071 978.6382 405.3456)" style="fill:#FFBE00;" width="16" height="32"/>
	
		<rect x="369.05" y="369.043" transform="matrix(-0.7071 0.7071 -0.7071 -0.7071 910.2744 377.0388)" style="fill:#FFBE00;" width="16" height="16"/>
	
		<rect x="309.397" y="408.959" transform="matrix(-0.9239 0.3827 -0.3827 -0.9239 770.211 680.6925)" style="fill:#FFBE00;" width="16" height="16"/>
	
		<rect x="456.994" y="309.334" transform="matrix(-0.3827 0.9239 -0.9239 -0.3827 954.5972 36.8316)" style="fill:#FFBE00;" width="16" height="56"/>
	
		<rect x="329.296" y="437.026" transform="matrix(-0.9239 0.3827 -0.3827 -0.9239 826.8772 765.574)" style="fill:#FFBE00;" width="16" height="56"/>
	
		<rect x="8.391" y="454.96" transform="matrix(-0.7071 0.7071 -0.7071 -0.7071 380.315 768.3886)" style="fill:#FFBE00;" width="45.256" height="16"/>
	
		<rect x="68.988" y="309.384" transform="matrix(-0.9238 0.3828 -0.3828 -0.9238 269.6088 581.1196)" style="fill:#FFBE00;" width="16" height="16"/>
	
		<rect x="72.616" y="397.357" transform="matrix(-0.7071 0.7071 -0.7071 -0.7071 437.9076 629.3258)" style="fill:#FFBE00;" width="32" height="16"/>
	
		<rect x="108.849" y="369.028" transform="matrix(-0.7071 0.7071 -0.7071 -0.7071 466.0735 561.0016)" style="fill:#FFBE00;" width="16" height="16"/>
	
		<rect x="168.577" y="408.978" transform="matrix(-0.3828 0.9238 -0.9238 -0.3828 629.3876 413.4738)" style="fill:#FFBE00;" width="16" height="16"/>
	
		<rect x="0.947" y="329.282" transform="matrix(-0.9238 0.3828 -0.3828 -0.9238 184.8027 637.7908)" style="fill:#FFBE00;" width="56" height="16"/>
	
		<rect x="128.634" y="456.98" transform="matrix(-0.3828 0.9238 -0.9238 -0.3828 646.1564 498.2752)" style="fill:#FFBE00;" width="56" height="16"/>
</g>
<path style="fill:#3F708D;" d="M226.385,282.628l-50.739,5.518l30.147-41.183l-30.147-41.183l50.739,5.518l20.591-46.7V94.963
	c-8,16-29.918,24-56,24c-17.673,0-32,14.327-32,32h-24v24h-0.222c-13.132,0-23.778,10.646-23.778,23.778
	c0,15.794-7.239,35.081-16,48.222c8.761,13.141,16,32.428,16,48.222c0,13.132,10.646,23.778,23.778,23.778h0.222v24h24
	c0,17.673,14.327,32,32,32c26.082,0,48,0,56,24v-69.635L226.385,282.628z"/>
<path style="fill:#2E5166;" d="M382.976,198.741c0-13.132-10.646-23.778-23.778-23.778h-0.222v-24h-24c0-17.673-14.327-32-32-32
	c-26.082,0-48-8-56-24v69.635l20.591,46.7l50.739-5.518l-30.147,41.183l30.147,41.183l-50.739-5.518l-20.591,46.7v69.635
	c8-24,29.918-24,56-24c17.673,0,32-14.327,32-32h24v-24h0.222c13.132,0,23.778-10.646,23.778-23.778
	c0-15.794,7.239-35.081,16-48.222C390.215,233.822,382.976,214.535,382.976,198.741z"/>
<polygon style="fill:#E15D2D;" points="267.567,282.628 318.306,288.146 288.158,246.963 318.306,205.781 267.567,211.298 
	246.976,164.598 246.976,329.328 "/>
<polygon style="fill:#F88756;" points="175.646,205.781 205.793,246.963 175.646,288.146 226.385,282.628 246.976,329.328 
	246.976,164.598 226.385,211.298 "/>
<g>
</g>
<g>
</g>
<g>
</g>
<g>
</g>
<g>
</g>
<g>
</g>
<g>
</g>
<g>
</g>
<g>
</g>
<g>
</g>
<g>
</g>
<g>
</g>
<g>
</g>
<g>
</g>
<g>
</g>
</svg>
