<?xml version="1.0" encoding="iso-8859-1"?>
<!-- Generator: Adobe Illustrator 19.0.0, SVG Export Plug-In . SVG Version: 6.00 Build 0)  -->
<svg version="1.1" id="Capa_1" xmlns="http://www.w3.org/2000/svg" xmlns:xlink="http://www.w3.org/1999/xlink" x="0px" y="0px"
	 viewBox="0 0 472 472" style="enable-background:new 0 0 472 472;" xml:space="preserve">
<rect y="72" style="fill:#F88756;" width="232" height="304"/>
<rect x="232" y="72" style="fill:#E15D2D;" width="232" height="304"/>
<g>
	<path style="fill:#2E5166;" d="M288,32V8c0-4.418-3.578-8-8-8h-32c-2.125,0-4.156,0.844-5.656,2.344l-64,64l11.313,11.313
		L251.313,16H272v16h-24v16h64V32H288z"/>
	<path style="fill:#2E5166;" d="M120,32V8c0-4.418-3.578-8-8-8H80c-2.125,0-4.156,0.844-5.656,2.344l-64,64l11.313,11.313L83.313,16
		H104v16H80v16h64V32H120z"/>
	<path style="fill:#2E5166;" d="M448,32V8c0-4.418-3.578-8-8-8h-32c-2.125,0-4.156,0.844-5.656,2.344l-64,64l11.313,11.313
		L411.313,16H432v16h-24v16h64V32H448z"/>
	<rect x="48" y="376" style="fill:#2E5166;" width="40" height="96"/>
	<rect x="376" y="376" style="fill:#2E5166;" width="40" height="96"/>
</g>
<g>
	<path style="fill:#3F708D;" d="M311.594,216c-3.766-37.738-33.859-67.83-71.594-71.595V112h-16v32.405
		c-37.735,3.765-67.829,33.857-71.594,71.595H120v16h32.406c3.766,37.737,33.862,67.822,71.594,71.588V336h16v-32.412
		c37.732-3.766,67.829-33.851,71.594-71.588H344v-16H311.594z M224,160.496V216h-55.5C172.117,187.094,195.094,164.117,224,160.496z
		 M168.5,232H224v55.504C195.094,283.883,172.117,260.906,168.5,232z M240,287.504V232h55.5
		C291.883,260.906,268.906,283.883,240,287.504z M240,216v-55.504c28.906,3.621,51.883,26.598,55.5,55.504H240z"/>
	<rect x="24" y="96" style="fill:#3F708D;" width="16" height="16"/>
	<rect x="40" y="112" style="fill:#3F708D;" width="16" height="16"/>
	<rect x="24" y="128" style="fill:#3F708D;" width="16" height="16"/>
	<rect x="56" y="96" style="fill:#3F708D;" width="16" height="16"/>
	<rect x="56" y="128" style="fill:#3F708D;" width="16" height="16"/>
	<rect x="88" y="96" style="fill:#3F708D;" width="16" height="16"/>
	<rect x="72" y="112" style="fill:#3F708D;" width="16" height="16"/>
	<rect x="40" y="144" style="fill:#3F708D;" width="16" height="16"/>
	<rect x="24" y="160" style="fill:#3F708D;" width="16" height="16"/>
	<rect x="424" y="336" style="fill:#3F708D;" width="16" height="16"/>
	<rect x="424" y="304" style="fill:#3F708D;" width="16" height="16"/>
	<rect x="408" y="320" style="fill:#3F708D;" width="16" height="16"/>
	<rect x="392" y="336" style="fill:#3F708D;" width="16" height="16"/>
	<rect x="360" y="336" style="fill:#3F708D;" width="16" height="16"/>
	<rect x="376" y="320" style="fill:#3F708D;" width="16" height="16"/>
	<rect x="392" y="304" style="fill:#3F708D;" width="16" height="16"/>
	<rect x="408" y="288" style="fill:#3F708D;" width="16" height="16"/>
	<rect x="424" y="272" style="fill:#3F708D;" width="16" height="16"/>
</g>
<g>
</g>
<g>
</g>
<g>
</g>
<g>
</g>
<g>
</g>
<g>
</g>
<g>
</g>
<g>
</g>
<g>
</g>
<g>
</g>
<g>
</g>
<g>
</g>
<g>
</g>
<g>
</g>
<g>
</g>
</svg>
